<svg xmlns="http://www.w3.org/2000/svg" viewBox="0 0 1000 702.68"><defs><style>.cls-1{fill:#5c5649;}.cls-2{fill:#151625;}.cls-3{fill:#dfddda;}.cls-4{fill:#392e28;}.cls-5{fill:#574a41;}.cls-6{fill:#584a41;}.cls-7{fill:#c7853d;}.cls-8{fill:#3c332c;}.cls-9{fill:#3a2f29;}.cls-10{fill:#3c322b;}.cls-11{fill:#392f28;}.cls-12{fill:#3b322a;}.cls-13{fill:#3c322a;}.cls-14{fill:#3c312a;}.cls-15{fill:#986c3e;}.cls-16{fill:#3a3029;}.cls-17{fill:#92693e;}.cls-18{fill:#c4833e;}.cls-19{fill:#da903f;}.cls-20{fill:#e2943f;}.cls-21{fill:#5d5749;}.cls-22{fill:#5d574a;}.cls-23{fill:#625c4f;}.cls-24{fill:#ee9b3e;}.cls-25{fill:#ed9a3e;}.cls-26{fill:#ec993e;}.cls-27{fill:#c2823e;}.cls-28{fill:#c8853d;}.cls-29{fill:#c9863e;}.cls-30{fill:#c0813e;}.cls-31{fill:#ab763e;}.cls-32{fill:#b87d3e;}.cls-33{fill:#c8863e;}.cls-34{fill:#b67b3e;}.cls-35{fill:#ba7e3e;}.cls-36{fill:#ac763e;}.cls-37{fill:#ce883d;}.cls-38{fill:#cd883d;}.cls-39{fill:#d58d3f;}.cls-40{fill:#df923e;}.cls-41{fill:#604e40;}.cls-42{fill:#e1943e;}.cls-43{fill:#cb873d;}.cls-44{fill:#7b5d40;}.cls-45{fill:#9b6d40;}.cls-46{fill:#c7853e;}.cls-47{fill:#9d6f3f;}.cls-48{fill:#7f5f40;}.cls-49{fill:#e9983e;}.cls-50{fill:#b37b3e;}.cls-51{fill:#af783d;}.cls-52{fill:#a16f3d;}.cls-53{fill:#cf8c3e;}.cls-54{fill:#ea983e;}.cls-55{fill:#e4953e;}.cls-56{fill:#d28b3e;}.cls-57{fill:#8d663f;}.cls-58{fill:#a2713f;}.cls-59{fill:#88643f;}.cls-60{fill:#ba7e3d;}.cls-61{fill:#90683f;}.cls-62{fill:#d78e3e;}.cls-63{fill:#e9963f;}.cls-64{fill:#e3943e;}.cls-65{fill:#594b40;}.cls-66{fill:#584a40;}.cls-67{fill:#574a40;}.cls-68{fill:#af783e;}.cls-69{fill:#916840;}.cls-70{fill:#966b40;}.cls-71{fill:#85623f;}.cls-72{fill:#a47340;}.cls-73{fill:#584b40;}.cls-74{fill:#5d4d40;}.cls-75{fill:#5b4c41;}.cls-76{fill:#7d5e40;}.cls-77{fill:#795b3f;}.cls-78{fill:#bc7f3d;}.cls-79{fill:#a06f3e;}.cls-80{fill:#8b663f;}.cls-81{fill:#ae793e;}.cls-82{fill:#a47241;}.cls-83{fill:#8c653f;}.cls-84{fill:#795a40;}.cls-85{fill:#996c3e;}.cls-86{fill:#ad773f;}.cls-87{fill:#aa753e;}.cls-88{fill:#a9763d;}.cls-89{fill:#9d6f3d;}.cls-90{fill:#94693d;}.cls-91{fill:#9f703d;}.cls-92{fill:#6c543f;}.cls-93{fill:#89643f;}.cls-94{fill:#87643e;}.cls-95{fill:#a3713e;}.cls-96{fill:#b97d3e;}.cls-97{fill:#805d40;}.cls-98{fill:#88643e;}.cls-99{fill:#7e5e41;}.cls-100{fill:#88633e;}.cls-101{fill:#a0703f;}.cls-102{fill:#a2723e;}.cls-103{fill:#e39440;}.cls-104{fill:#966c40;}</style></defs><title>Asset 11b</title><g id="Layer_2" data-name="Layer 2"><g id="Layer_3" data-name="Layer 3"><path class="cls-1" d="M0,700.58V.58C1.73-.35,3.6.11,5.4.11q494.6,0,989.2,0c1.8,0,3.67-.46,5.4.47v700c-1.54,1.53-3.5,1.83-5.53,1.91s-4,.06-6,.06q-488.47,0-977,0C7.62,702.51,3.45,703.52,0,700.58Z"/><path class="cls-2" d="M0,700.58H1000"/><path class="cls-3" d="M270.31,479.51c-.85-5.65-1-11.2-2.8-16.41-.77-2.19-1.58-4.79-4.21-5.11-2.24-.28-3.29,2-4.39,3.62-11,15.7-14.22,33.44-13.53,52.16.06,1.69-.06,4.08,2,4.81s3.8-.77,5.3-2.08a27.74,27.74,0,0,0,9.28-15.6c.74-3.6,1.61-7.16,3.59-10.3,1.86-3,4.07-3.52,7-1.07,4.3,3.62,6.37,7.76,5.26,13.59a67.79,67.79,0,0,0-.8,20.41c.23,2,.45,4.23,2.67,5,2,.66,3.46-1,4.76-2.21,10.83-9.83,16.38-22.81,21.59-36,4.41-11.19,5.42-22.86,6.06-34.71,1-17.81,2.92-35.52,8.07-52.7,2.5-8.35,6-16.25,12.31-22.55a24.4,24.4,0,0,1,9.17-5.88c10.93-3.85,20.34,1.39,22.5,12.72,2.56,13.45-1,26.18-5.39,38.62-5.73,16.3-13.8,31.36-25.75,44.09A6,6,0,0,0,331,474.2c0,21.33.19,42.66,3.93,63.75a38.9,38.9,0,0,0,2.38,8.13c1.78,4.25,3.9,4.79,7.79,2.18,4.4-2.94,7.36-7.19,10-11.65,9.56-16.16,13.92-34.09,17.93-52.16,3.17-14.25,2.08-28.86,3.93-43.22,1.93-15,3.59-30.09,9.09-44.37,2.48-6.42,5.73-12.39,10.84-17.16,3.75-3.5,8-5.88,13.27-6.28,9.76-.75,15.91,3.93,17.81,13.54,2.13,10.81,0,21.27-3.08,31.51-5.65,19-14.35,36.52-28,51.24a6,6,0,0,0-2,4.34c.06,21.5.11,43,4,64.25a28.4,28.4,0,0,0,.83,3.39c.94,3,1.11,6.85,4.54,7.81,3.9,1.09,6.45-2.21,8.73-4.75,8.65-9.65,13.1-21.52,17-33.57a228.28,228.28,0,0,0,8-33.46c1-6.12,2.3-12.82,7.36-16.51s8.07-7.93,10.94-13.64c5.64-11.23,24.22-9.21,31.07,3,5.15,9.22,7.14,19.34,4.88,29.93-1.43,6.73-1.13,7.18,5.7,7,11.45-.27,19.3-7.82,20-19.26.39-6.16,1.33-6.86,7.41-5.51,8.95,2,13.13,7.2,13.44,16.53.42,13-.58,26,1,39,.27,2.24-.07,5.54,2.4,5.93s3.39-2.78,4.35-4.85c3-6.53,4.4-13.59,6.36-20.46.69-2.4,1.29-4.83,2.15-7.16,2.27-6.22,4.34-6.65,9.78-3.14,8.91,5.75,14.33,13,13.44,24.32-.36,4.53,1,9.23,1.84,13.81.31,1.71.65,4.12,2.65,4.43,2.2.34,3.44-1.78,4.39-3.52a35.44,35.44,0,0,0,2.83-6.36c1.14-3.65,1.91-7.4,2.94-11.08,1.25-4.46,1.13-8.24-1.86-12.48a26.36,26.36,0,0,1-4.47-19c.52-3.86,2.27-6.65,6.43-7.11s7.44,1.25,9.11,5.37c2.16,5.34,1.7,10.88.56,16.23-.74,3.44.45,4.42,3.39,5,5.37,1.1,9.48-.78,12.65-5,3.56-4.73,5.57-10.2,7.32-15.77a77.26,77.26,0,0,1,5.46-13.36c7.47-14,21.06-15.58,33-12,5,1.48,7.14,5.7,7.37,10.83a25.62,25.62,0,0,1-21.62,26.49c-2.06.35-3.57.48-3.19,3.11.68,4.76.83,9.61,2.64,14.18,3.43,8.66,12.29,12,20.38,7.41,7.37-4.17,12-10.87,16.12-18,5-8.72,7.94-18.28,11.52-27.59,5.48-14.28,17.46-20.62,32.36-17.24,6.72,1.53,10,5.51,10.07,12.31A25.41,25.41,0,0,1,719,489.36c-2.86.47-3.55,1.29-3.32,4a76.08,76.08,0,0,0,1.71,11.34c2.25,9.47,13.55,15.6,23.15,8.28,7.52-5.75,12.41-13.33,16.58-21.57,5.39-10.65,8.34-22,10.06-33.77,1-6.92,4-8.08,10-4.58,7.88,4.61,9,7,7.56,15.85-.7,4.44-1.1,8.92-1.61,13.39-.09.78,0,1.58,0,3.77,3.24-7.05,5.49-13.08,8.73-18.64a87.5,87.5,0,0,1,13.09-17.57A10.47,10.47,0,0,1,815.43,447c7.56,1.75,15.8,9.68,15.87,18.84.1,13.09-2.07,25.85-3.77,38.72-1.38,10.42-2.17,20.9.32,31.3.67,2.78,1.3,5.82,4.55,6.59,3.57.84,5.54-1.93,7.19-4.36,7.3-10.79,10.69-23.22,14.29-35.5,2.44-8.29,4.24-16.77,6.53-25.11.39-1.39-.21-4.35,2.84-3.6,2.45.61,2.63,2.86,2.24,4.87-1.07,5.56-2.18,11.11-3.53,16.6-3.9,15.85-8.12,31.6-16.63,45.79-2.6,4.33-5.63,8.29-9.86,11.13-6,4-11.24,3.2-15.78-2.3-7.24-8.76-9-19.48-10.66-30.2-3-18.43-.09-36.5,3.43-54.53a34.65,34.65,0,0,0,.58-10c-.28-2.91-1.77-3.48-3.95-1.55a47.16,47.16,0,0,0-8.9,11.37c-6.64,11-11.35,22.94-16.05,34.86-.81,2.05-.2,3.91-.08,5.87.22,3.71,1.68,8-3.6,9.54-5.66,1.64-11.06-.54-13.19-5.29-2.54-5.66-2.79-11.82-3.56-18.75-2.46,4.43-4.34,8.25-6.6,11.82-6.87,10.84-16,18.6-29.11,20.85a38,38,0,0,1-15.82-1c-10.83-2.69-16-10-17.13-20.71-.25-2.3-.62-4.59-1-7.67-2.65,4.27-4.69,8.13-7.26,11.59-10,13.46-22.86,20.66-40.12,17.4-12.19-2.31-17.57-7.89-19.6-20-.47-2.79-.81-5.6-1.3-9-1.83,1.92-3.34,3.75-5.11,5.31-4.56,4-10.09,5.19-15.88,4.26-3.53-.57-4.44.55-5.11,3.81a140.67,140.67,0,0,1-6.91,24,40.88,40.88,0,0,1-9.36,14.6c-4,3.91-8.48,4.37-12.75.62s-6.38-8.46-7.58-13.78c-2.31-10.21-2.74-20.7-4.43-31.75-2,2.74-1.84,5.5-2.54,7.92-1.86,6.43-4,12.68-7.82,18.28a25.84,25.84,0,0,1-8.07,8c-6.29,3.76-11.09,2.45-14.35-4.14-3.36-6.79-4.64-14.2-5.75-21.61a214.9,214.9,0,0,1-2.22-25.87c-7.71,8-16.77,9.47-26.51,8.32-2.25-.27-2.87.93-3.36,2.71a60.39,60.39,0,0,1-5.32,12.89c-5.43,9.88-14,14.95-25,15.83-6.31.5-10.76-2.83-14.08-7.86-2.22-3.35-3.61-7.1-5-11.9-2.07,6.41-3.74,12-5.69,17.49-3.31,9.29-7.48,18.16-13.88,25.79-4.27,5.08-9.25,9.15-16,10.51-4.35.88-7.95-.23-11.41-3.32-9.44-8.41-12-19.62-13.57-31.32-.94-6.92-2.09-13.8-2.15-20.92-1.88.6-1.62,2.14-1.94,3.32-3.73,13.7-8.15,27.12-16.57,38.8-4.57,6.34-10,11.6-18,13.37-4.58,1-8.25-.21-11.84-3.41-9.59-8.58-11.72-20.12-13.49-31.91-1.31-8.7-2.07-17.46-3.3-26.41-2.2,4.8-4.36,9.62-6.6,14.4A54.2,54.2,0,0,1,281,535.49c-6.06,3.41-11.64,1.91-15.23-4.24-2.53-4.35-2.95-9.41-4.67-14.26-3,2.33-5.48,4.72-8.37,6.52-12.11,7.54-23.44,2.34-25.91-11.61-1.58-8.86,0-17.54,1.45-27.16a73.07,73.07,0,0,1-26,10.88,2.39,2.39,0,0,0-2,2.45c-.89,12.11-2.6,24.21-.42,36.36.41,2.32.86,4.89,3.51,5.53,2.42.58,3.82-1.59,5.36-3.06.36-.34.65-.77,1-1.11,1.05-1,2.17-2.88,3.63-1.7s.84,3.11-.1,4.61c-3.37,5.38-7.37,10.26-14.24,10.54s-11-4.08-14.21-9.46A26.19,26.19,0,0,1,181,525c.38-8.82.79-17.64,1.17-26.46.07-1.84.31-3.66-2.52-3.85-12.05-.84-23-4.84-33.66-12.17-1.05,8.59-2,16.57-3,24.55-.69,5.62-1.28,11.25-2.08,16.86-.84,5.92-2.88,7.53-9,7.52s-8-1.56-8.52-7.84c-1.16-14,.28-28,2.12-41.84,3.27-24.59,6.83-49.15,8.59-73.9.32-4.47-.15-9-.16-13.49,0-5.59,4.29-8.3,9.49-6,4.5,2,6.69,5.93,8.16,10.24,2.95,8.63,3.37,17.6,3,26.64-.7,15.85-4.16,31.34-6.3,47-.48,3.51.11,5.27,3.44,6.89,8.37,4.09,16.49,8.67,25.81,10.42,3.74.7,5.38.21,5.79-4.41,2.23-25.19,3.85-50.48,8.77-75.36.52-2.65-.55-6.93,4.23-7.23s8,1.89,9.87,6.16c2.81,6.55,2.15,13.45,1.5,20.22-1.82,19.06-3.76,38.11-6,57.13-.52,4.46.9,4.81,4.41,3.6,12.58-4.34,23.66-10.23,29.11-23.65,3-7.32,7.44-13.78,16.11-15.77,5.38-1.23,10-.07,13.82,3.66,6,5.87,8.46,13.37,9.19,21.56C274.58,478.39,272.72,479,270.31,479.51Z"/><path class="cls-4" d="M153.66,291.67a35.72,35.72,0,0,0-12.22,1.95c-2.1.63-3.06.78-3.54-2.06-2.21-13.16-8.88-22.73-22.57-25.93-2.19-.51-2.65-2-2.93-3.48-1.36-7.34-4.34-13.43-11.26-17.23-3.14-1.72-1.73-3.28.93-4.25,6.9-2.52,13.52-.45,20,1.58,16.79,5.27,33.62,10.5,50.15,16.52,10.1,3.67,20.71,6.13,30.16,11.51,2.55,1.45,4.42,1.64,6.14-1.38,1.44-2.53,4.37-4.07,5.07-7.25.19-.86,1-2.19,2.12-1.16,2.69,2.58,6.71,1.93,9.47,4.19,2.19,1.79,6,2.37,3.27,7-1.09,1.9.45,5.21,4.32,4.9,14.76-1.19,29,2.54,43.39,4.79a8.39,8.39,0,0,0,2,.15C295,280,311,284.78,327.27,288.15c5.34,1.1,10.9,1.24,16,3.39a24.61,24.61,0,0,1,4.37,2.3c.75.52,1.67,1.58,1.6,2.32-.14,1.44-1.66,1.2-2.78,1.43-6.77,1.43-13.19,3.61-17.26,9.74-1.35,2-2.81,2.2-5,1.92-12.93-1.62-23.56,3-31.28,13.22-2.86,3.81-4.73,4.24-8.13,1.35-3-2.56-6-5.33-9.45-7.17-7.3-3.9-14.92-2.42-22.25.11A188.92,188.92,0,0,0,219,333c-2.82,1.66-3.52,4.19-4.59,6.78-.56,1.36-1.26,3-3.18,2.43-1.67-.53-1.21-2.25-1.12-3.47a11.37,11.37,0,0,1,1.06-4.8c1.76-2.95-1.2-2.91-2.25-4-2.2-2.29-2.36.79-3,1.47a71.11,71.11,0,0,0-5.33,7.19c-.93,1.34-2,2.6-3.62,1.55s-1.12-2.83,0-3.9c2.7-2.49,1.52-4.26-.28-6.74-2.82-3.88-4.9-8.28-7.48-12.35-6.77-10.69-14.55-20.3-27.23-24.43a20.8,20.8,0,0,0-3.85-1A39.52,39.52,0,0,0,153.66,291.67Z"/><path class="cls-5" d="M776.11,262.61c11.51,2.66,23,5.2,34.52,8,10.79,2.66,22.45,4.32,30.56,12.38,8.85,8.79,18.88,16.69,25.08,28,5.9,10.78,10,22.07,9.65,34.45a74.1,74.1,0,0,1-14.85,42.94c-6.59,8.85-12.6,18.3-21.87,24.72-18.46,12.77-37.56,23.87-60.59,26.69a196.85,196.85,0,0,1-28.77,1.74c-19-.45-37.17-4.27-53.49-14.72a23.92,23.92,0,0,0-6.28-3c-9.22-2.56-16.49-8.24-23.57-14.25-1.58-1.35-3-2.9-5-.72-9,9.44-19.85,16.33-30.9,23.05-9.34,5.68-19.45,9.37-29.67,12.78a135.48,135.48,0,0,1-55.86,6.85c-21.44-2-41.3-8.92-60.21-19.25-11.44-6.25-22.27-13.22-31.06-22.74a144.36,144.36,0,0,1-16-21.48c-11.83-18.91-16.17-40-18.85-61.78-3.19-25.9,4-49.79,14.13-72.81a71.34,71.34,0,0,1,18.46-25,4.54,4.54,0,0,1,4.52-.91l.25.63c-.86,3-4.33,3.9-5.45,6.71-13.37,14.09-20.28,31.34-24.43,49.94-.14.65,0-.17,0,.5,0,.28.25.38.69.29a3.45,3.45,0,0,1,1.28,2.7c-1.16,7.63-2.63,15.22-3,23-.79,4.67-2.85,9.23-1.15,14.11a125.63,125.63,0,0,0,2.16,19.72c2.66,14.55,8.62,27.78,16.27,40.32a16.12,16.12,0,0,0,5.87,7.61c3.91,5.83,8.11,11.4,14,15.45.87,1.05,2.16,1.38,3.34,1.91,6.41,7,14.42,11.47,23.37,15.5-1-4-3.48-7-3.19-10.81a10.1,10.1,0,0,0,.12-4.77c-.38-1.55-.42-3.28,1.62-4,1.93.86,2.16,2.83,2.81,4.47,3,7.67,8,14.14,12.91,20.57,2.31,3,6.27,3.52,9.67,4.75,3.35.66,6.34,2.93,10.32,2.32-1.47-4.78-4.39-8.75-5.58-13.4-.56-2.21-1.77-4.44.06-6.64a1.89,1.89,0,0,1,1.42,0c3.15,3.73,4.81,8.34,6.51,12.73,3.13,8.07,8.38,12.37,17.08,12.3,2.94.77,5.86,1.33,8.76-.16a7.87,7.87,0,0,1,2.61-1.21,3.67,3.67,0,0,1,1.47.21c8.29,1.66,16.48.83,24.62-1,2.11-.48,3.25-2.19,4.29-3.92a76.65,76.65,0,0,0,6.48-13.44c.78-2.16,1.37-4.51,3.79-5.58a1.85,1.85,0,0,1,1.85,1.13c1,4.36-2.1,7.81-2.62,11.83-.94,2.76-2.82,5.17-3.48,8.48,14.65-1.86,27.66-5.47,33.19-21,5-10.8,8.09-22.28,11.67-33.58a67.41,67.41,0,0,0,2.33-10.33,14,14,0,0,0,.79-3.69,62.75,62.75,0,0,0,1.33-7.59c.5-1.27.9-2.6,2.29-3.24,2.13.56,2,2.39,2.23,4-2.66,22-8.51,43.11-19.05,62.73-.41,1-.31,1.64,1,1.07a53,53,0,0,0,13.85-8.63A128.81,128.81,0,0,1,656.17,407c5-2.91,8.52-7.26,11.62-12,1.37-2,3.17-3.77,4-6.17a6.81,6.81,0,0,1,1.57-2.32c5.46-6.91,8.09-15.24,11.65-23.1,5.12-13.42,8.95-27.35,9.16-41.59.18-12.63-.43-25.53-4.14-37.93-2-6.52-3.71-13.1-6.4-19.39a13.37,13.37,0,0,1-1.48-6.26c1.3-3.34,3.12-2.51,4.52-.28a14,14,0,0,1,1.93,4.51c.83,4.26,3.77,7.17,6.19,10.43a83.15,83.15,0,0,0,2.56,9.93c1.12,3.26.38,6.87,2,10.05,1.63,6.32.78,12.84,1.51,19.23a11.69,11.69,0,0,1,.44,2.43c-.51,8.2-1,16.41-1.92,24.58-.9,5.84-1.8,11.67-3.76,17.27a31.67,31.67,0,0,1-1.49,5.82c-.38,1.13-1.28,2-1.72,3.07a14.9,14.9,0,0,0-1.31,3.84c-1.23,2.48-2.39,5-3.53,7.5-1.27,4.33-.15,8.56.52,12.79.24,1.47.59,2.94.73,4.42a2.37,2.37,0,0,1-1.65,2.77c-2,.45-1.39-1.29-1.61-2.28-.57-2.51-1.82-4.85-1.49-7.57-.42,3,1.25,5.47,1.5,8.28.1,1,.23,2,1.46,2.28,2.45.53,3,2.6,3.25,4.53.92,6.11,4.24,11.13,7.12,16.36a7.05,7.05,0,0,0,2.57,3c8.53,4.57,17.2,8.71,27.2,8.67a5.17,5.17,0,0,1,1.46.28c4.61,3.15,10.14,2.59,15.24,3.74,4.14.51,8.29.08,12.43,0a5.17,5.17,0,0,1,1.57,0,11.65,11.65,0,0,1,2.26.63,26.2,26.2,0,0,0,12.75,0c2.24-.51,4.54-.41,6.79-.73,3.17.5,6.14-.37,9.1-1.3,5.77-1.94,11.55-3.84,16.61-7.38,1.44-.54,3.12.3,4.48-.78,6.43-3.76,13.58-6.29,19.27-11.32,1.71-1.38,3.09-3.23,5.31-3.92a4.85,4.85,0,0,0,3.29-1.57c5.07-4.84,10-9.85,14.78-14.92a74.55,74.55,0,0,0,15.33-27.39c3.2-8.49,2.89-17.34,2.79-26.17-.18-3.12.54-6.3-.73-9.32-1-2.76-2.07-5.54-3-8.35a43.24,43.24,0,0,0-13.64-19.94c-4-2.36-6.57-6.42-10.34-9.09-9.57-7.53-20.64-11.69-32.35-14.4-7.23-2.49-14.73-3.67-22.27-4.67-4.3-.56-7.26,1.5-9.72,5.25,10.24-1.92,20.45-6.1,30.73-.75-.14,1.63-1.39,1.93-2.64,2.25-4.61.34-9.29,0-12.79,1.13a30.7,30.7,0,0,1,10.56,1.75c1.19.38,2.94.89,2.5,2.52-.4,1.47-2.11,1.34-3.44,1.26-2.63-.16-5.13-1.06-7.8-1.55,2.75.91,4.49,2.88,6.08,5,.7.95,1.22,2.09.51,3.24-.85,1.36-2.24,1.27-3.57.95-2.46-.61-4.47-2.13-6.59-3.43-2.53-1.53-5-3.32-8.69-3.08,2.59,6,7.71,10.66,7.55,17.48-1.11,2.53-2.43,1.41-3.57.11-1.68-1.93-3-4.18-5-5.87-2.39-3.14-4.28-6.7-7.36-9.27-1.43-1.19-2.75-3.22-5-1.34-2.09,5.06-4,10.18-7,14.83-.8,1-1.47,2.54-3.06,1.71-1.1-.57-1.15-1.94-1-3.12.39-2.45,1.49-4.72,1.8-7.18,1.14-3,1.73-6.31,4.06-8.87-1.66-.12-3.29,0-4.91-.21a16.69,16.69,0,0,1-2.12-.18c-13-2.36-16-1.79-24.93,11.16-2.71,2.34-3.06,6.66-6.84,8.09-2.84-1.12-1.57-3.09-.9-4.81,1.23-3.16,3.7-5.76,4.27-9.23a32.13,32.13,0,0,1,7.89-8.33c-9.2-1.36-18.8-.3-27.73,4.74-2.16.46-3.72,1.87-5.39,3.21-1.46,1.16-2.91,2.77-5.18,1.93a2.41,2.41,0,0,1-.5-.84c-1.16-2.82,2.93-3.05,2.72-6.06-.19-2.83,3.41-3.53,6-4.1,5-.14,9-3.13,13.66-4.42-6.05.63-11.75-1.28-17.55-2.34-1.21-.22-3.38-.38-2.1-2.79,5.45-2.27,10.82.12,16.22.34,4.46.19,8.77,1.77,13.21,2.3a19.7,19.7,0,0,1,3.68.19c3.94,1.6,7,.66,9.24-3a6.69,6.69,0,0,1,2.92-2.59c1.51-.3,2.77-1.37,4.36-1.42,3.61-2.51,7.7-2.34,11.77-2,2.66.22,3.59,1.5,2,4-1.36,2.23-3.21,4.25-3.52,8.17,1.25-2.27,1.46-3.86,2.14-5.22s1.26-3.09,3.16-2.41,1.36,2.38.91,3.85a5.8,5.8,0,0,0-.38,2.05c.39-3.75,2.36-6.61,4.66-9.3,1.18-1.11,1.71-2.64,2.61-3.94C774.83,262.52,775.36,262.1,776.11,262.61Z"/><path class="cls-6" d="M694,273.67c-4-4-6-9.06-7.92-14.18-.55-1.44-.74-3.73-3.19-1.71-1.32-.07-1.53-1-1.59-2a5.12,5.12,0,0,0-.58-5.17c-6.37-9.06-10.13-19.61-19.57-27-6.67-5.22-12.11-12.24-19.82-16.42-10.49-5.69-21.21-10.88-32.82-14-1.37-.37-2.62.21-3.91.51-2.55.51-5-.09-7.42-.7-.94-.21-1.82-.63-2.76-.86-4.63-.2-9.26-.09-13.89,0-3.95.09-5.6,3.09-7.21,6-1.13,2.06-.38,4,1,5.48,2.73,2.84,6.23,2.24,9.54,1.45,5-1.17,9.59-3.74,14.91-3.32,1.67,3.48,5,1.69,7.54,2.33,14.17,1.68,25.6,8.79,35.89,18.14a7.59,7.59,0,0,1,1.78,2.39c.43.93.76,2-.11,2.77-.67.61-1.58.29-2.36,0a26.75,26.75,0,0,1-7.7-4.56A54.61,54.61,0,0,0,604.28,211c16.45,8.87,27.73,22.64,31.6,40.6,2.08,9.68,5,19.23,6.55,29.07s2.85,19.77,3.93,29.69c.37,3.39,1,7-1,10.23a1.51,1.51,0,0,1-1.43.25c-3.41-6.25-2.35-13.29-3.37-20-2.69-17.63-5.2-35.27-12.27-51.84-5.4-12.63-12.64-23.8-24.71-31.17-6.84-4.18-14-4.4-21.44-2.74-.49,2.11.94,2.76,1.73,3.71a76.46,76.46,0,0,1,13.9,24.66c.55,1.65,2,4,0,4.94s-3-1.45-3.87-3c-2.64-4.81-4.79-10-8.32-14.17a64.52,64.52,0,0,0-16.85-14.1,14.72,14.72,0,0,0-5.9.66,28,28,0,0,1-4.57.28c-.66.08.17-.05-.49,0-7.88,1-8.69,2.25-6.23,9.93,4.33,14,4.85,28.65,7.81,42.91a354.29,354.29,0,0,1,7.48,68.78c0,2.33.56,4.62.72,6.94s.57,5-1.42,7.07c-4.57-1.75-3.63-6-3.72-9.31-.33-11.83-1.48-23.57-2.7-35.31a592.73,592.73,0,0,0-11.43-68.92c-.3-1.3-.55-2.6-.73-3.91-.22-4.29-2-8.19-3-12.29-.72-2.95-2.15-2.26-3.63-.52A87.94,87.94,0,0,0,525,251.52c-.67,2-1,5.55-3.87,4.66-2.38-.72-1.06-3.85-.51-5.81,2.39-8.47,5-16.88,10-24.33.53-.8,1.27-1.55,1-2.78-1.7-1-3.14.22-4.57.76-9.29,3.49-17.76,8.27-24.56,15.67-1.22,1.33-2.46,2.73-4.34,3.23-3.68-1.71-1.11-3.48.13-4.87,3.53-4,7.58-7.4,10.92-11.52,3-2.69,6.7-4.06,9.51-5.32-10.05-1.42-19.79,1.89-29.07,7.14-1.43.8-3,1.49-4.69.38-.56-1.83.66-2.85,1.91-3.58,6.66-3.88,13.48-7.36,21.1-8.07-.81-.2-1.53-.64-.8-1.88,1.84-1.52,4.05-1.15,5.58-1.2-7.6-2.16-16.16-.85-24.38-2.76a1.79,1.79,0,0,1-.69-1.22c3.72-4.54,9-3.54,13.76-3.44,9.53.21,18.82,2,27.38,6.56a4.29,4.29,0,0,0,3.21.5c.12-1.95-1.2-3.26-2.49-4.29-3-2.36-4.31-5.88-6.69-8.64-.72-.84-1.49-2-.63-3.16s2.35-1.15,3.67-.8a15.84,15.84,0,0,1,8.41,5.79c-3.39-7.79-4.9-8.76-12.9-6.66-14.51,3.8-28.52,8.93-41.42,16.77a95.11,95.11,0,0,0-17.22,11.52c-2,1.57-3.62,4-6.73,3.42h0c-1.07-1.77.19-2.76,1.29-3.77a132.26,132.26,0,0,1,34.65-22.67c11.48-5.34,23.39-7.93,35.57-10.09,2.32-.41,2.35-1,1.58-2.68-2.22-4.86-3-9.83-1-15,.9-2.29,1.57-5,5.1-3.79.74,3.78-3.12,6.45-2.44,10.21,1.81,3,3.18,6.72,8,4.84a11.18,11.18,0,0,1,1.29-.36c3.13-.15,4.4-3.73,7.44-4.05a2,2,0,0,1,1.29,2.23,8.68,8.68,0,0,1-6.07,6.58c-4.9,1.27-4.28,3.74-2.46,7a6,6,0,0,0,1.23,2.07,11.59,11.59,0,0,0,2.23.64c.93.52,1.54-.85,2.47-.44,2.17,1.14,2.11,3.11,1.93,5.13-.15,1.76-.8,3.55.44,5.63,1.77-2.41,1-4.85.89-7.19-.08-1.89-1.07-3.93.84-5.5-.54.43.58-.71.52-.07,0,.32.61.28.51.07-.78-1.62-1.9-3.17-.38-5,4.69,1.85,6.29,5.93,6.92,10.36a13.2,13.2,0,0,1,.15,5.27c.6-4.13-.79-8.38,0-12.65a2.54,2.54,0,0,1,1.55-1.26,47.84,47.84,0,0,1,6.19,2.27c.75.33,1.39,2,2.3.55s2-2.55,2.61-4.23c-2.05-.27-3.9.36-5.77.77a9.06,9.06,0,0,1-4,.58c-.66-.26-1.15-.63-.92-1.45,1.11-1.81,1.28-3.16,4.78-3.55a145.53,145.53,0,0,1,21.88-.58c31.82,1.2,58.61,13.58,81,36.06,7.82,7.86,12.36,17.73,17.11,27.47a105.25,105.25,0,0,1,6.39,15.08c.82,2.66,2.31,3.5,5.3,2.34,8.73-3.37,18.08-3.75,27.25-4.91,4.76-.6,9.55-.92,14.3-1.54a9.71,9.71,0,0,1,3.91-.06c5.06,1.29,9.48.72,12.56-4.21,1.69-2.71,4.85-3.92,7.06-6.22,1-1,.87.88.54,1.72a4.39,4.39,0,0,1-.92,4.18c-3.52,3.59-5.53,8.56-10.18,11.11-1.41-.23-2.1,2.26-3.78,1a10.63,10.63,0,0,0-5.71-3c-4.79-.27-9.68-2.91-14.26.76a7.64,7.64,0,0,1-3.69.58,9,9,0,0,1-1.46-.2c-3.34-1.57-6.44.19-9.62.73a6.73,6.73,0,0,1-1.41.13c-3.86-.85-7.08.75-10.2,2.7a6,6,0,0,1-1.51,1.41C697.58,273.42,696.08,275,694,273.67Z"/><path class="cls-4" d="M364.74,166.46c-1.61,3.61-3.32,7.12-5.05,10.63-2.85,5.75-6.78,8.31-12.05,11.12-4.82,2.57-5.95,8.81-7.19,14.15-.17.72.12,2.26-.74,1.74-4.2-2.55-1.85,2.66-3.59,2.86a17.87,17.87,0,0,0-23.22-1.79c-.64.48-1.68,1.36-2,1.16-6.07-3.33-13.18-1.57-19.35-4-2.7-1.06-.29-2.67.64-3.12a102.43,102.43,0,0,1,10.56-4.37c4.38-1.56,8.9-2.72,13.25-4.33,3-1.1,7-.87,7.49-5.81.15-1.52,2.93-2.55,4.59-1.36,2.39,1.7,3.7.48,5.66-.75,8.83-5.55,17.52-11.35,27-15.71C361.8,166.41,363.05,165.49,364.74,166.46Z"/><path class="cls-4" d="M767.59,205.74c-3-1.83-3-1.83-3.91,1.74-3.26-3.21-7.63-4.33-11.71-5.53-4.4-1.3-9-.67-12.25,3.34a1.53,1.53,0,0,1-2.56,0c-2.54-2.75-5.86-2.77-9.23-2.68-3.68.1-6.2-2.69-10.11-3.58,3.65-3.65,8-4,11.75-5.18,5.5-1.76,11.23-2.81,16.86-4.12,2.7-.63,5.28-.72,6-4.62.49-2.58,3.6-1.78,5.48-.77a3.57,3.57,0,0,0,4,.09c9.54-5,19.06-10,29.15-13.83,1.38-.52,3-1.7,4.13-.37s-1.14,2.1-1.36,3.25c-1.11,5.66-8.23,7.77-8.24,14.09,0,.87-1.21.89-2,1-8.41,1.61-14,7.28-15.6,15.81A12.31,12.31,0,0,1,767.59,205.74Z"/><path class="cls-7" d="M750.88,268.58,762,253.3c2.46-.19,2.45,2.9,4.47,3.47,1-2.61-2.38-3.5-2.08-5.79,2.83-1.77,5.86,1,8.68-.37l-.06-.05c2.4,1.84,3.11,4.82,4.81,7.13s-.92,3.34-1.69,4.92l-1.13,1c-1.85,2.39-4.07.83-5.84.67.8,1.4,4.94-.91,3.93,3.27-3.68,3.69-6.38,7.74-4.39,13.53-1.95-1.85-2-2.44-2.21-10.38-2.22,1.72-2.1,4.21-3,6.14-.6,1.24-.06,4.22-2.58,2.9-1.2-.63-2.19-3.25-.92-5.2,1.52-2.34,3.23-4.55,4.69-7.25-4.09,1.52-9.1-3.21-12.56,2.47C751.39,270.9,751.2,269.13,750.88,268.58Z"/><path class="cls-8" d="M731,558.57c2.33-.1,3.43.82,4,3,1.15,4.14,2.67,8.19,4.06,12.27.42,1.2,1.51,2.54-.23,3.43a2.54,2.54,0,0,1-3.47-1.07,5.8,5.8,0,0,0-3.78-2.92c-3-.78-5.77-1.79-7.38,2.25a3,3,0,0,1-4.14,1.74c-1.94-1.15-.15-2.71.5-3.8,2.38-4,4.81-8,6.34-12.38A3.48,3.48,0,0,1,731,558.57Z"/><path class="cls-9" d="M558.5,559.06c-10.62,7.61-10.61,8.8-.89,16.27.62.48,1.59.63,1.54,2-5.39,1.06-7.88-3-10.81-6.16-1.16-1.25-1.6-3.79-4-2.91-1.86.7-1.29,2.82-1.4,4.44-.13,1.9.49,4.58-2.37,4.62-3.27.05-2.44-2.86-2.62-4.88a28.59,28.59,0,0,1,1.66-11.23c.41-1.28.75-2.64,2.56-2.46,1.57.16,1.8,1.3,1.76,2.52-.13,4.07,1.58,2.85,3.79,1.52C550.71,561,553.36,558.15,558.5,559.06Z"/><path class="cls-10" d="M487.3,577.33c-6.59.94-7.38-5.88-11.63-8.46a7.45,7.45,0,0,0-.1,5.87c.41,1.23.45,2.38-1.17,2.66a1.84,1.84,0,0,1-2.33-1.91c-.37-4.28-.68-8.58-1.09-12.86-.28-3,.87-4.26,4-4.11a18.78,18.78,0,0,1,6.83,1.13c2.64,1.17,3.23,3.72,1.13,5.07-4.29,2.74-1.55,4.82,0,7.16C484.11,573.79,486.5,574.76,487.3,577.33Z"/><path class="cls-11" d="M590.49,558.55c9.6.05,13.15,3,13.13,10.88,0,5-4.28,8.2-11,8.16-8.19-.05-10.72-2.6-10.69-10.77C582,559.75,583.25,558.51,590.49,558.55Z"/><path class="cls-12" d="M690.8,576.82c-5.48,1.37-6.62-1.9-8.54-4.21-1-1.24-1.26-4.22-3.57-3.2-1.42.63-.73,3-.36,4.6s1.23,3.15-1.17,3.38c-2.17.21-2-1.61-2.17-3.12-.3-4.11-.68-8.21-1-12.32-.13-1.82.26-3.42,2.58-3.33,3.52.14,7.58-1.16,10,2.61,1.15,1.8.08,3.46-1.77,4.5-1.67.92-1.75,2-.66,3.64C685.81,571.81,686.85,574.68,690.8,576.82Z"/><path class="cls-12" d="M785.22,577.63c-7.19-.34-7.92-6.37-11.81-9.5a11.13,11.13,0,0,0,.06,6.43c.36,1.16.74,2.39-.91,2.79s-2.56-.54-2.51-2.16c.09-3-.61-5.91-1-8.87-.88-7.33.83-8.87,8.09-7.66,1.83.31,3.72.82,4.5,2.7s-.28,3.52-1.86,4.7c-3.4,2.52,0,4.42.81,6.29C781.38,574.05,783.12,575.31,785.22,577.63Z"/><path class="cls-13" d="M628.85,577.26c-7.19.66-7.45-6.11-11.53-9.18a16.36,16.36,0,0,0,0,6.9c.2,1,.63,2-.78,2.38a1.79,1.79,0,0,1-2.46-1.7c-.52-4.76-1.31-9.52-1.37-14.29-.05-4,3.46-2.75,5.67-2.73,6.46,0,7.68,2.06,4.53,7.54-.87,1.5-.22,2.45.21,3.67C624.11,572.74,626.75,574.45,628.85,577.26Z"/><path class="cls-14" d="M712.37,577.05a5.68,5.68,0,0,1-1.44.47c-3.71-.37-8.87,2-10.85-1.23-2.77-4.48-.92-10.35-.81-15.61a2.28,2.28,0,0,1,2.52-2c3.08,0,6.23-.68,9.72.85-1.41,1.57-3,1-4.21,1-1.84.09-3.32.31-3.25,2.69.07,2.12,1.44,2.31,3.06,2.36,1.09,0,2.3-.25,3.51,1.08-2.23,1.79-7-.61-6.81,5C704,578.49,710.16,573.78,712.37,577.05Z"/><path class="cls-15" d="M547.09,180.77c-1.86,2.4-3.54,5.07-7.2,4.69-.48-1-1.48-1.5-2.44-2.4-.38,1.72,1.42,1.62,1.61,2.59-6.1,3.69-7.23-2.29-10-5.13,2.66-2.06,4.88-4.32,4.88-8.09,0-3.14,3.17-3.4,5-4.87l1.22-.77a3.6,3.6,0,0,1,1.8,4.94c-.63,1.71-1.08,3.46.15,5.13.33.28.63.58,1,.88,1,1.43,2.79,1.14,4.13,1.82A1,1,0,0,1,547.09,180.77Z"/><path class="cls-16" d="M529.26,576.79c-5.09.63-10.6,2.3-14.58-2.34-3-3.5-2.59-8.28-.34-11.77,3.35-5.22,9.2-4.07,14.48-3.71-2.78,1-6.28.1-8.39,2.95-1.88,2.54-2.23,5.76-2.15,8.56C518.49,578.37,525.57,574.31,529.26,576.79Z"/><path class="cls-16" d="M506.92,576.85c-4.93,1-8.81,1.16-13.14-.58,1.48-1.21,5.21-.44,4-3-2.14-4.36,2.27-10.58-4.55-13.86,3.69-1.53,7.12-.41,10.73-1C499.21,563.1,500.67,573.33,506.92,576.85Z"/><path class="cls-16" d="M446.22,559h15c-7.41,1.22-4.46,6-3.6,9.89.32,1.46.76,2.89,1.07,4.35s.44,3.08-1.74,3.33c-1.82.21-2.77-.53-2.95-2.45-.23-2.47-.69-4.92-1-7.38C452.06,560.4,452,560.31,446.22,559Z"/><path class="cls-16" d="M651.53,559.07h12.73c-7.13.67-5,5.08-4,9,.43,1.76.58,3.58.9,5.37.23,1.27,1,2.75-1.11,3.08s-3-.66-3.11-2.78a72,72,0,0,0-1.13-7.85C655.16,562.24,654.5,558.47,651.53,559.07Z"/><path class="cls-16" d="M744.22,558.93h15c-8.17,1.42-4.48,6.61-3.64,10.81a3.89,3.89,0,0,1,.27,1c-.12,2,1.46,5-1.37,5.6-3.55.76-2.16-2.94-2.85-4.62a17.69,17.69,0,0,1-1.36-6.28C750.16,561.26,749.1,558.43,744.22,558.93Z"/><path class="cls-17" d="M546.15,167.51c1.11-2.59,2.36-3.62,4.17-.47,2.06,3.58,4.11,7.17,6.36,10.64,1.05,1.63.4,2.78-.43,4-2.15-1.34-3.69-3.69-6.48-4-1.41-1.17-.68-3.42-2.28-4.46-2.6.47-1.74,5.38-5.51,4.29l0,0C540,173,541.37,169.5,546.15,167.51Z"/><path class="cls-18" d="M550,177.59c5.29-3.45,4.44,2.34,6.25,4.14-1.29,4.25.91,7.22,3.69,10l1,1c.23.79,0,1.15-.88,1l-1.16.7c-1.61.62-2.58-.52-3.33-1.5a43.29,43.29,0,0,1-7.34-13.26A2.29,2.29,0,0,1,550,177.59Z"/><path class="cls-19" d="M539,167.56c-4.23,2.39-3,7.49-5.38,10.89-1.28,1.84-2.54,2.37-4.5,2.07-.5-4.32,2.36-7.39,4.06-10.9A8.9,8.9,0,0,1,539,167.56Z"/><path class="cls-20" d="M546.15,167.51c-2.68,2.82-5.65,5.54-4.12,10.08-3.65-.83-2.32-3.87-1.59-5.38,1-2.14.11-3.65-.25-5.42C542.24,166.54,544.31,166,546.15,167.51Z"/><path class="cls-7" d="M773.05,250.61c-.75-1.29-2.79-1.08-3.29-3,4-.09,6.76,1.68,9,5.62-2.61-.42-3.5-3.28-5.81-2.67Z"/><path class="cls-21" d="M330.67,462.31c1.54-11.26,2.78-21.91,4.51-32.48,2.2-13.43,4.45-26.86,8.68-39.85a30.28,30.28,0,0,1,4.48-9.4c2.28-3,5.24-2.85,7.3.28a13.44,13.44,0,0,1,2.3,7.54c-.3,27.08-7.75,51.7-25.32,72.77C332.35,461.5,331.85,461.64,330.67,462.31Z"/><path class="cls-21" d="M394.62,461.87c1.46-10.57,2.73-20.88,4.34-31.14,2.19-14,4.59-27.89,9-41.38a29.3,29.3,0,0,1,3.81-8.1c2.8-3.94,6.13-3.69,8.36.67a17.45,17.45,0,0,1,1.86,8.7c-1,24.71-7.67,47.5-22.8,67.41-.91,1.19-1.93,2.3-2.94,3.4C396.06,461.62,395.66,461.6,394.62,461.87Z"/><path class="cls-21" d="M458.32,466.72c5.54,8,11.39,15.4,19.26,20.92,6.31,4.43,6.36,4.37,2.91,11.33-2.15,4.32-4.43,8.57-8,11.91-4.93,4.58-8.24,3.9-11-2.33a36.51,36.51,0,0,1-2.56-10.61,94.57,94.57,0,0,1-.07-22.37C459.21,472.61,459.57,469.62,458.32,466.72Z"/><path class="cls-21" d="M487,472.83c-.17,3.27.69,8.29-1.67,9.24-3,1.21-5.8-2.9-8.27-5.24a43,43,0,0,1-11.63-17.71c-1.85-5.57-.51-11.44,2.8-13.17,3.52-1.84,9.12.76,12.56,5.77A34.37,34.37,0,0,1,487,472.83Z"/><path class="cls-22" d="M732.87,464.65c0,10-6.44,17.57-15.15,18.39-2,.19-2.86-.15-2.49-2.25,1.15-6.51,2-13.12,5.42-19,1.61-2.71,3.14-5.94,7.08-4.94S732.42,461.55,732.87,464.65Z"/><path class="cls-21" d="M664.41,465.84c0,9.13-6.2,16.33-14.92,17.18-2,.19-2.82-.13-2.51-2.22,1-6.6,2-13.19,5.42-19.07,1.59-2.72,3.18-6,7.17-4.81S664.3,461.66,664.41,465.84Z"/><path class="cls-23" d="M596.56,494.7A22.66,22.66,0,0,1,593,479.44c.12-1.14.34-2.52,1.8-2.56s1.91,1.17,2.26,2.3C598.65,484.1,597.7,488.93,596.56,494.7Z"/><path class="cls-24" d="M548.73,234.61a586,586,0,0,1,12.34,71.21c1.6,13.9,2.92,27.81,3.32,41.8a10.11,10.11,0,0,0,1.48,5.68c3,2.44.55,5.64,1.18,8.24.3-5,1.23-5.91,5.81-4.68,3.63,1,6.24.65,9.37-2.17,3.75-3.38,9.15-4.21,14.16-5.23,1.27-.27,3.15,1.58,3.77-.73.51-1.88,1-4.56-.57-5.68-3.76-2.65-3.13-6.3-3.17-9.87-.1-8.75-.06-8.76-8.59-9A38.26,38.26,0,0,1,578,322.7c-4.36-1.29-5-3.86-2-7.65,5.82.43,11.76-1.19,17.47,1,2.52,2.63,5,2,7.58,0,2.92,0,2.37,2.09,2.41,3.84.21,8.54-.52,17.1.6,25.61.13,1.45,1.41,2.88.5,4.08.36-3-1.05-6.16-1.09-9.41.16-7.43-.31-14.85.25-22.25.89-.68,1.35-.45,1.73.62,1.16,3.25.62,6.56.48,9.51,1-4.5-1.55-9.83,2.41-14.34,1.82-2.06,3.36-3.82,6.23-2.45s1.76,3.77,1.28,6.06c-.85,4.07-4.44,6.66-4.94,11.22-.69,6.23,1.12,12.28.22,18.41-.21,1.42.69,2.14,2,2.36,2.29.39,4.46,1.26,6.83,1.37,4.58.22,6.6,2.44,6,7-.34,2.53-.52,4.72.62,7.19a4.38,4.38,0,0,1-2.94,6.39c-5.37,1.44-8.2,6.4-13,8.61-2.89,1.32-2.61,4.56-1.44,7.09a25.23,25.23,0,0,1,2,15.1c-.46,2.7.54,3.73,3.2,3.39a14.87,14.87,0,0,1,2.49.1c4.19.2,5.52-.83,4.59-4.71-1.35-5.61.19-9.24,5.42-11.79,3-1.49,4.6-8.83,2.91-13.2-1.23-3.21-1.47-6.09.53-9a5.24,5.24,0,0,0,.84-2.32c1-7.17,2.16-8,9.1-6.16a4.32,4.32,0,0,1,1.75.91,1.35,1.35,0,0,1,.14,1.38c-.42,1,0,2.23-1.16,2.92-1.69,2.47-1.45,5.23-1.14,8,.13,1.13.15,2.23-.88,3-.38,1-2.16.07-1.88.68,1.66,3.55-.67,6.85-.31,10.27-3.28,11.57-6.41,23.19-11.92,34-.83.82-1.44,1.84-2.31,2.61s-1.65.76-2.15-.63c-.07-.18-.23.94-.45,1.43-1.34,3-3.08,5.86-4.63,8.79-.71,1.34-1.82,2.44-3.61,2s-2.34-1.62-2.53-3.28c-.36-3.12-1-6.22-1.08-9.54-2,3.88-3.4,8-6.52,11.18-.91.92-1.56,2.5-3.14,1.76-1.84-.87-.92-2.41-.69-3.89.3-1.9,1.52-3.59,1.3-5.26a34.36,34.36,0,0,1-1.91,6.79c-1.25,3.58-2.63,2.78-4.1.15-.18-4.27,2.88-7.71,3.05-11.89,0-4,1.88-7.53,1.91-10.8-1.32,2,.37,5.83-2.71,7.93a1.9,1.9,0,0,1-1.1-1c-.75-3.39.56-6.52,1.2-9.73a216.62,216.62,0,0,0,3.48-24,2.84,2.84,0,0,1,1.45-1.68c1-.22,2.67,2.39,3.08-.83.34-2.61,4-3.38,3.93-6.37a4.34,4.34,0,0,1,2.24-2.53c2.06-.37,2.87-1.42,1.9-3.46.2-3.4,2.19-6.39,2.2-9.82.07-1.89-1.28-1.36-2.25-1.21s.38,1.34-.53,1.69c-8.85,2.83-17.41,6.74-26.91,7a37.17,37.17,0,0,1-3.7-.83c-2-.4-2.24,1-2.79,2.24-3,1.82-6.33,2-9.66,2.06-4.5.12-9,.18-13.49,0-4.68-.19-8.13.18-9.43,6.09-1.11,5.05-6.29,3.88-10.18,3.79-3.73-.08-6.88-1.81-6.94-5.75-.07-5.27-3.22-5.8-7.17-6.1-3.28-.26-6.74-.16-9.27-2.92-.42-11.17-2.1-22.35-.17-33.52a75.63,75.63,0,0,0,.87-12.82c1-2.2,1.93-4.24.49-6.84-1.18-2.14-1.2-4.78-1-7.29,1.09-19,1.79-38,8.26-56.22a13.48,13.48,0,0,0,.82-2.47,133.64,133.64,0,0,0-5.7,21.29,183.36,183.36,0,0,0-2.41,24.18c-.1,2.71,0,5.64-4.19,4.9-3.06-1.36-4-3.74-3.27-6.89-1.28-9.47,1.48-18.29,4.29-27.1-2.63,7.85-4.86,15.78-4.7,24.19a6.09,6.09,0,0,1-1.3,3.17c-4.39,6.74-10,12.64-13.22,20.22-2.45,5.69-2.65,5.75,3.77,5.94,5.13.15,10.32-.75,15.38.83,4.33,2.08,3.38,6.36,2.53,9.18-3.21,10.53-1.21,21-.8,31.49.08,2.12.37,4.33-.79,6.31-2.08,2.5-4.6,1.23-6.92.64-5.61-1.44-10.86-3.92-16.87-6.42a30.21,30.21,0,0,0,4.06,10.8A70,70,0,0,0,507,386.73c1.68,1.35,3.44,2.65,4.1,4.88,1.15,7.21,2.2,14.43,3.32,21.64,1,6.77,3.6,13,6.18,19.31.74,1.81,1.47,3.82-.6,4.79s-2.67-1.31-3.53-2.62-1.41-2.62-2.34-4.16c.33,2.61,2.16,5.24-1.22,6.83-5.19-1.54-9.79-3.24-13.19-8.42-4.68-7.15-9.71-14-11.88-22.37-3.21-2.28-1.46-5.83-2.4-8.39-.64,1.46,1.69,4.71-.92,5-2.31.3-2.52-3.1-2.86-5.11-1.54-9.15-2.38-18.39-3.39-27.62-1.84-16.93-1.3-33.91-1.37-50.81-.07-18.14.57-36.53,5.64-54.28a13.84,13.84,0,0,1,1.31-4.55c2.4-5.82,7.45-9.84,10.43-15.28a6.47,6.47,0,0,1,3.65-3.12c8.31-11.12,20.2-16.82,32.7-21.6a3.2,3.2,0,0,1,3.64.92c1.14,1.27-.48,2-1,2.84-6.38,9.32-10,19.73-11.83,30.86C526.14,243.68,531,232,540,222.57c2.52-.51,3,1.56,3.73,3.09A59.94,59.94,0,0,0,548.73,234.61Z"/><path class="cls-24" d="M692.9,362.56c.39-2,.79-4,1.18-5.94a2.45,2.45,0,0,1,1.88-1.16c.95-.2-.42-3.64,2.13-2.49,1.79.81,1.27,3.21,1.39,5,0,2.16-.9,4.24-.44,6,.48-16.25,1.83-32.79,6.49-48.9.84-.71,2-.59,2.26-2.47.65-4.36,1.52-8.87,4.91-12.24,2.07,1.43,1,3.35.55,5-1.31,4.39-2.29,8.84-3,11.9,1.84-6.22,2.79-14.16,5.89-20.65-.54,1-.87,3-2.6,4.21-3,.37-3.43,3-4.45,5.08-1.38,2.8-1.74,6-3.49,8.69-2.91,8.1-3,16.79-5.25,25a1.79,1.79,0,0,1-2.28-.05q1-13,2-26c1.78-.34,1.41,1.21,1.83,2.07.26-1-.11-2.12.19-3.12,1.83-6.16,4-12.22,5.74-18.39-2.4-3-3-5.67,1.19-7.6,9.5-6.81,20.13-6.3,31.52-4.77a72,72,0,0,0-10.37,10c-.53,2.34-2.16,4.09-3.49,5.92-7.39,10.17-10.34,21.87-12,34a19.24,19.24,0,0,0-2.11,9.55c-.07,9.78,0,19.56,0,29.34,0,1.6.54,1.22,1.39,1.11.17,0,.53.38.42.16-1.32-2.63-.72-5.59-1.52-8.29-.79-18.13,1-35.91,7-53.16a22.57,22.57,0,0,1,1.7-4.13c1-1.61,1.69-4.77,3.71-.65a5.43,5.43,0,0,1,1-.91c1.82-2.79,3-6.05,5.67-8.21A53.84,53.84,0,0,0,737,291.2c1.38-1.74,2.83-5,5.28-.68.67,1.16,1.7-.19,2.5-.58,1.15-.54,2.3-.95,2.77.68,1.1,3.77,2.65,1.51,4.08.34.5-.41.71-1.1,1.13-1.61.82-1,1.69-2.49,3.14-1.59s-.08,2.17-.43,3.41c1.58-2,.89-4.68,2.6-6.44l2-.19c2.55,2.8,2.18,6,1,9.14-.89,2.42,1.45-.35,1.23.83-.81,3.44-1.63,6.88-2.47,10.42,1.82,0,1.65-1.53,2.36-2.24,2,2,2,2,1.66,5.77.78-1,.62-2.24.84-3.36.24-1.3.4-2.62.74-3.89s.34-3.57,2.1-3.43c2,.15,1.81,2.38,2,4,.28,2.77-.76,5.45-.53,8.2.56-4.35,1.11-8.7-.1-13.07a17.65,17.65,0,0,1,.18-9.29c1.93-3.42,4-1,5.55.17a31.12,31.12,0,0,1,8.5,10.78,200.78,200.78,0,0,1,2.52,27,213.88,213.88,0,0,0-2.1-24.42c8.18,6.06,9.32,24.05,9.89,40.57-.26,2,.19,4,.09,6-.55,12.23,1.68,24.38,1,36.6-.12,2.14.19,4.31-.44,6.4-.33.78-.84,1.61-1.65,1.76-8.42,1.61-16.68,5-25.44,3.43-5.49-1-11-.23-16.44-.83-9.69-1.06-18.46-4.3-25.87-10.83,7.59,8.18,17,11.56,28.07,11.87,12.64.35,25.17.21,37.53-2.81,4,.32,4.15,2.95,3.88,6.06-.72,8.35-4.21,15.88-6.83,23.66-1.81,3.59-6.11,5-7.72,8.87-.41,1-1.92,1.21-3.15.72-1.83-.74-2.37-2.08-1.49-5.08-2.26,5.64-6.41,4.67-9.82,4.61-3.75-.07-2-3.95-3.17-5.62.09,1.4,1.8,3.53-.89,4.47-2.36.82-4.26-.17-5.26-2.5-2.07-4.77-3.5-9.68-2.81-14.1a8.57,8.57,0,0,1,0,1.06c-.06.86-.34,1.61-1.8,2.5-1.69-3.87-1.76-7.94-2.69-11.39-.07,2.29.78,5,1.61,7.45,1.6,4.72,1.59,9.59,2.15,14.41.15,1.3,1,2.77-.1,3.78-1.59,1.47-2.55-.86-4.31-1.06.66,3.93-2,4.14-4.79,4.09-3.27-1.71-7-.2-10.45-1.59-1.89-.76-3.52-1.38-4.67-3-1-.84-2.19-1.54-2.47-3,0,1.14,1.25,1.85,1.15,3.05-3.5,2-6.73-.05-9.86-1A124.6,124.6,0,0,1,702,424.2a12.28,12.28,0,0,1-6.6-6.23c-2.63-5.67-5.53-11.08-7.51-17.15-1.49-4.56-4.13-9-5.39-13.81-.45-1.74-1.21-3.53,1.17-5.14l2.77,14.88c1.77-3.07.32-5.17.1-7.23-.46-4.54-2.2-9-.38-13.64,3.41,1,2.68,4.17,3,6.51.76,4.88,1.13,9.82,2.23,13.42-1.82-8.21-3-17.66-1.39-27.27-.06-1.37-.08-2.73,1.07-3.76,2.15-.08,1.83,1.62,1.8,2.79-.12,5.67,1.31,11.17,1.54,15.25A120.19,120.19,0,0,1,692.9,362.56Z"/><path class="cls-25" d="M790.17,305.49c-1.54-7.3-6.1-13.1-10.32-19.52,9.14-1.63,14.31,6.54,22.43,7.65-2.23-4.63-6.09-6.73-9.65-9.37,2.37-1.48,4.48-.37,6.6,0s4.47.81,6.73,1c-5.4-2.69-11.34-2.62-18.48-3.18,6.7-3.42,12.54-3.69,18.47-3.41,2.51,1.4,5.25-1.71,7.72.4a2.52,2.52,0,0,1,.65,1.13c5.3,3.15,10.62,6.13,17,6.83,4.81.54,8.57,3.44,12.07,6.57a120.69,120.69,0,0,1,12.2,13.17,6.94,6.94,0,0,1,.81,1.26c3.33,7.16,8.07,13.59,10.31,21.32a59.4,59.4,0,0,1,2.76,17c.21,6,0,11.92-2.23,17.58-.74,1.88-1,4.83-4.4,2.57-.36-.24-1.81-.86-2.08,1.06-1.07,7.4-4.75,14.15-5.47,21.7-.13,1.43-1.38,2.94-2.29,4.31-4.49,5.56-9.89,10.23-15,15.15-2.15-.83-.57-1.77,0-2.51a78.94,78.94,0,0,0,16.8-41.45C857,341.16,852.4,319.38,835,303c2.66,2.17,5.37,5.73,8,9.3,2.9,3.89,4.83,8.34,6.74,12.77a57.83,57.83,0,0,1,4.18,13.27,103,103,0,0,1,1.13,13.84,82.4,82.4,0,0,1-15.38,51.5c-1.43,2-2.76,4.11-4.88,5.51l-4.76,4.39c-3-.07-2.59-1.84-1.78-3.67,1-2.14,2.54-3.92,3.63-6,.53-1,1.31-2.32.14-3.15-1.37-1-2.16.51-2.63,1.44-2.4,4.72-6.51,8.47-7.64,13.93-.62,3-3.33,4.18-6,4.5-2,.25-3.36-1.2-3.38-3.45,7-13.07,9.41-27.31,10-41.81a358,358,0,0,0-.39-37.92c-.37-5.46-1.85-10.74-2.5-14.45,4.46,16,3.21,34,2.84,51.93-.3,14.64-2.62,29.11-10.18,42.15a2.8,2.8,0,0,1-2,1.4c-2.45.21-4.32,4.53-6.89,1.6-1.11-1.27-3-2.46-3.23-4.46a9.36,9.36,0,0,1,1.61-6.1c-2.95,4.34-5.14,8.94-4.37,14.42.25,1.72-.7,2.45-2,2.94-1.13.42-3.18.34-3.15-.38.14-3.14-3.16-3.55-4-5.76a113.59,113.59,0,0,0,6-26.94c1.52-2.79,4.67-2.45,7-3.64a27.15,27.15,0,0,0,4.67-2.49c2.12-1.53,3.73-3.81,6.28-4.33-2.89.4-4.42,3.2-6.83,4.7-3.64,1.45-6.84,4.86-11.31,2.51-.84-2.26-.44-4.6-.38-6.89.29-10.42-.7-20.83-.53-31.23-.08-4.47,2.55-5.8,6.46-5.3a9,9,0,0,0,8.86-3.33c-5-1-9.36-2.51-14-1.3-2.43-4-1.28-8.57-2.13-12.84-.77-3.81-.39-7.88-1.59-11.67A24.77,24.77,0,0,1,790.17,305.49Z"/><path class="cls-25" d="M645.05,320.58a204.93,204.93,0,0,0-9.63-60.3c-1.24-3.9.25-7.74-1.4-11.77-6.75-16.43-16.41-30-33.24-37.32-.44-.2-.9-.35-1.09-.83,17.74-2.64,30.27,8,43.69,16.33-9.88-11.56-22.15-18.8-37.13-21.24.45-2.86,2.78-2.2,4.55-2.28,6.63-.31,13,1.32,19.35,2.9,7.54,1,13.42,5.42,19.43,9.51,13.1,8.92,22.86,20.87,30.74,34.46,1,1.7,2,3.47,1.53,5.61.13.83.11,1.72,1.06,2.13,4.85,13.51,9.61,27,11.47,41.39a128.38,128.38,0,0,1-8.46,65.35c-2.1-.15-1.8-1.81-1.52-2.95,2-8.21,3.31-16.55,4.68-24.88.24-1.46,1.2-2.72,1.78-4.09,1-5.86.85-11.77,1-17.68.16-9.12-1.55-18.07-2-27.13-.13-2.43-.09-4.94-1.57-7.59a12.26,12.26,0,0,1,1.3,6.85c-2.91,1.54-2.87-1.27-3.22-2.55-1.39-5.12-3.35-10.09-4.25-15.34A13.88,13.88,0,0,0,681,265.9c.38,4.86,3.64,9.55,3.41,15-.06,1.43-.08,3.36-2,3.5-1.51.11-2-1.61-2.37-2.84-2.67-8.58-5.31-17.16-7.86-25.77-.62-2.11-1.71-3.92-2.37-5.94-.6-1.83-.47-3.29,2.05-1.82,1.47,2.37,2.46,5,3.54,6.86-.67-1.67-2-3.75-2.89-6-2.94-3-5.85-6.19-7.29-10.19-.81-2.26-2.56.28-3.19-1.15-4.29-9.26-10.61-16.36-19.43-18.78a60.74,60.74,0,0,1,12.75,14c.77,1.14.68,1.44,2.39.9,2.5-.79,3.09,2.39,4.39,4,5.7,4,6.54,10.84,9.51,16.43a2.41,2.41,0,0,1-1.5,3.28c-2.61.6-2-2.48-3.37-3.38,4.91,7.56,7.4,16,10,24.61,1.38,4.55,2.38,10,7.2,12.88.72,1.88.42,3.85.51,5.79,0,9.22,0,18.44,0,27.65-.22,17.54-3.39,34.63-8.06,51.47a9,9,0,0,1-3,4.39c-1.68,1.56-2.8,3.32-.83,5.48a2.32,2.32,0,0,1-.07,1.33c-.63,2.09-1.15,4.27-4.17,3.79-.5-.08-1.82-.36-1.49.5,1.53,3.9-3.57,5-3.29,8.24a9.72,9.72,0,0,1-4.88,5c-2.15-.25-3.12,1.6-4.58,2.58-1,.63-2,1.52-3.14.59s-.61-2.08-.19-3.22c1.26-3.42,3-6.64,4.29-10.06a174,174,0,0,0,9.1-33.48c3.24-12.15,3.92-24.56,3.86-37-.72-16.93-1.29-33.87-4.86-50.51-.42-.61-.88.35-.34,0,.22-.15.37-.07.44.24a142.43,142.43,0,0,1,3.34,26.44c.21,5.59,1,11.18,1.3,16.78.38,14.92.06,29.78-3.81,44.33a184.39,184.39,0,0,1-14,45c-1,2.25-1.84,4.39-4.71,4.3-1.74-.05-1.62,1.35-2.14,2.26-4.23,7.39-10.89,11.87-18.35,15.4a.7.7,0,0,1-.89-.26.77.77,0,0,1,0-.88,211.18,211.18,0,0,0,12.38-31.4,233.38,233.38,0,0,0,6.73-31.42,132.76,132.76,0,0,1,.49-18.06C644.34,338,644.28,329.27,645.05,320.58Z"/><path class="cls-24" d="M485,261a3.85,3.85,0,0,1-.95,3.08c-4.4,15.9-5.92,32.12-6.77,48.59-.88,17.14-.41,34.22.4,51.29a172.86,172.86,0,0,0,5.48,37.32c1.29,4.75,3.56,9.23,3.84,14.27.42,4.5,3.43,8.06,5,13.5-10.25-5.58-20.5-9.22-27.12-18.46-2.82-1.23-4-3.94-5.44-6.32a139.67,139.67,0,0,1-19-58.62,223.25,223.25,0,0,1-.58-37.8c1.65-23.27,8.94-44.81,23.52-63.46a6.61,6.61,0,0,1,.8-1.29c3.92-4.09,8.07-8,11.92-12.14a2.68,2.68,0,0,1,1.87-.74c2.76,1.79,4.41-2.3,7-1.32,11.15-6.13,22.66-10.93,35.81-9.62.82.08,1.65.08,2.47.17a6,6,0,0,1,1.31.6c-5,2.69-10.34,4.08-14.59,7.45C498.27,236.2,490.9,248.06,485,261Z"/><path class="cls-25" d="M543.15,444.92c-1.31-.14-2.61-.3-3.93-.42-5.7-.52-10-2.72-12.46-8.43-2.56-5.86-5.82-11.41-7.92-17.49-2.33-1.91-2.75-4.7-3.42-7.38-2.7-10.65-3.6-21.53-4.28-32.45,3-4.52,6.78-1.89,10.26-1.06,3.2.76,4.3,3.11,4.36,6.37.19,10,.29,9.87,10.45,11.12a72.85,72.85,0,0,0,20.38,0c4.24-.66,6.44-2.62,6.83-7.08.46-5.28,2.65-7,7.71-7,4.54,0,6.17,1.27,6,5.84-.12,4,1.67,4.05,4.59,3.28a36,36,0,0,0,9.9-4.66c2.09-1.3,3.94-3.13,6.62-3.26,2,1.07,1.23,2.85,1,4.36-1.48,8.59-2.39,17.27-4.46,25.76-.35,1.43-.7,2.9.23,4.27l0-.06a1.25,1.25,0,0,1,0,2c-3.22,7.18-5.73,14.69-10.16,21.32a6.48,6.48,0,0,1-4,2.86c-7.23,2.3-14.71,1.25-22,2.1-.87.1-3.72.68-3.45-2.2,1.65-8.39,4.57-16.48,5.93-24.95.15-.91.13-1.81.24-2.09,0-1.29-1-.36-.43-.63.26-.11.41,0,.35.35-1.68,9.3-2.84,18.74-7.39,27.26-.35.57-.71,1.14-1.07,1.71C549.76,445.91,546.42,444.82,543.15,444.92Z"/><path class="cls-26" d="M477.54,230.59a3.94,3.94,0,0,0-.52.64c-4.1,4.05-8.51,7.8-12,12.39l.06-.07c-14,17-21.42,36.71-24.15,58.4-3.21,25.53-1.35,50.58,6.61,75.11a137.52,137.52,0,0,0,13.34,28.33c.79,1.31,2.42,2.53,1.29,4.46-6-4.39-11.12-9.51-14.45-16.25-2.3-2-4.53-4.1-5.29-7.24-1-3.18-3.36-5.87-3.3-9.41a3.29,3.29,0,0,1,.53-1.26c.29-.47,1.79,0,1-1.45-1.34-2.31-1.9-4.95-2.9-7.41-2.13-6.42-2.57-13.19-4.23-19.7-.8-2.08-.39-4.24-.44-6.71,0,1.34,0,2.61-1,3-1.73.63-2.29-.58-2.39-2.08-.25,1.05.62,2.45-.75,3.11-1,.48-1.46-.5-1.82-1.2a22.56,22.56,0,0,1-1.92-6.64c-1.11-6.14-2.38-12.27-1.91-18.58.73-2.08-.12-4.3.64-6.36.14-8.08,1.6-16,3.29-23.84-.14-7.62,2.69-14.44,5.73-21.2,1-2.25,2.43-4.34,2.79-6.86,2.66-6.68,6.84-12.46,11-18.25a52.14,52.14,0,0,0,4.14-6.19c1.17-2.72,3.62-4.26,5.68-6.16,7.18-6.61,14.7-12.75,23.65-16.87a9.13,9.13,0,0,1,1.21-.71c2.2-.51,4.23-2.19,6.69-1,8.71.26,17.5-.54,26,2.18a6.13,6.13,0,0,1,3.15,2l-10,1c-3.2,2.6-7.29,3-11,4.43-4.28,1.66-7.84,5.16-12.8,5.1-.06,0-.64-.39-.61.66C482.88,229.12,480.41,230.27,477.54,230.59Z"/><path class="cls-27" d="M662.13,237.48c1.79-.85,3.2-1.59,4.51,1.11,1.72,3.53,4.16,6.71,6.3,10-.44.56-.88.55-1.31,0l-1.34-.12c5.51,11.14,8.11,23.32,12.37,34.94.6-7.58-3-14.51-3.68-23.08,5.81,9.05,6.5,18.68,10.08,27.23,2.53,2.67,1.87,6.21,2.36,9.36,1.58,10.3,1.25,20.71,1.1,31.1,0,1.79-.4,3.64.39,5.39-3.46,2.79-2.47,6.89-3.13,10.51-1.26,6.86-2.57,13.71-3.86,20.57-2.24,6.74-5.7,12.94-8.74,19.31-.74,1.54-1.39,3.47-3.48,4-1.23-2.58,0-4.9.93-7.15,6.47-16.22,7.68-33.4,9.34-50.49a89.94,89.94,0,0,0,.53-13.77c-1,2.74,1.63,6.47-1.34,9.36q0-14.64,0-29.27c2.15.65,2.53,2.64,2.7,4.32.93,9,2.07,18,1.61,24.74,0-10.25-.14-22.84-4.62-34.95-1.38,1.63-2.86,2-3.69-.32-4.78-13.3-7.81-27.24-14.75-39.79,2.41,1.52,3.33,4.17,5.38,6.1.65-7.63-5.36-12.57-7.94-18.88Z"/><path class="cls-28" d="M789,421.59c1.57,1,2.94-1.48,4.63-.1.38,1.46-1.25,2.45-1.34,4,.44.95,1.44.58,2.13.54.86,0,2.11-.16,2-1.56-.86-7.78.92-12.82,7.19-19.44.32,4.3-2.57,7.59-2.53,11.44,1.63.15,1.28-1.93,2.62-1.93.69,1.24-.51,2.19-.5,3.32a2.16,2.16,0,0,0,1.05,2.1c1,.55,1.58-.12,2-.86,1.09-2,2.68-2.23,4.63-1.56a1.72,1.72,0,0,1,.83,1.73,4.39,4.39,0,0,1-.42,1.3c-1.35,2.09-2.56,4.34-5.29,5-4.6,4.94-11.1,5.9-17,8.12a2.49,2.49,0,0,1-2.74.18c-2.52-1.71-4.27-.94-5.72,1.4l-7.52.33c-4.61,1-9.24.55-13.87.23l-1.3-1.23a8.38,8.38,0,0,1-3.45-5.53c.31,2.09,1.7,3.68,2.41,5.57-4.51,1.9-9.16.65-13.76.61,1.44-1,5.27-.56,2.48-4.25-.63-.83.83-1.7,1.53-2.29,1.14-.94,1.71.26,2.37.92s.7,1.94,1.84,2.17q-1.72-13.92-3.44-27.84l.73-.11q1.44,6.3,2.86,12.61l.61-.05v-8c2.5,1.64,2,3.78,2,5.66-.06,4.59,1.47,8.8,2.7,13.11.6,2.07,1.37,3.32,3.74,2.73,3-.76.47-2.51.66-3.76a5.21,5.21,0,0,1,.6-2.48c.22.56.48,1.11.66,1.69,1.53,5,4,6.46,8.78,5.3,2.17-.53,1.94-2.71,2.78-4.15.54-.93.48-2.68,2.14-1.94,1.25.57.78,1.89.52,3.09s-2.85,2.63.26,3.81c2.58,1,3.28-1.3,3.3-2.36.06-4.06,4.31-3.28,5.79-5.53C787.32,423.49,787.12,420.88,789,421.59Z"/><path class="cls-1" d="M487,415.57c-5.84-13.56-8.11-28-9.84-42.45a331.4,331.4,0,0,1,.85-84c1.15-8.51,2.62-17,6-25-1.37,8.35-3.13,16.66-4,25.06-2.66,24.76-1.28,49.6-.68,74.4a173.58,173.58,0,0,0,5.12,39.62c1.42-3.87-.73-7.11.09-11.42,1.26,5.62,2.29,10.23,3.33,14.85C485.52,409.39,489.68,412.82,487,415.57Z"/><path class="cls-1" d="M462.12,409.85C456,399,450,388.08,446.21,376.11c-11.14-35.36-11.72-70.61,1.76-105.5,3.87-10,8.9-19.61,17.06-27.06-2.54,4-5.18,8-7.62,12.12-12.43,20.92-16.78,43.77-16.69,67.87.09,22.73,3.26,44.74,12.42,65.68,3.27,7.47,7.71,14.31,11.71,21.39C463.68,411.28,462.69,411.33,462.12,409.85Z"/><path class="cls-29" d="M593,431.58c1.63.73,3.15,1.75,3.67-1.31a94.5,94.5,0,0,1,2.54-9.22c2.07,4.65-1.22,8.13-.86,12.38a32.75,32.75,0,0,0,8.18-13.83c.26-.81.14-2.27,1.56-2.14s1.93,1.26,1.83,2.53c-.25,3.28.54,6.45.74,9.66.09,1.44-.18,2.35,1.35,2.87,2.06.7,2-1.24,2.49-2.16,2.19-4,4.22-8.12,6.38-12.32,1.45,1.33-.43,2.43.45,3.54,1.55.05,1.18-3.4,3.49-2.08-3.54,8.17-8.14,15.17-17.39,17.93-6.28,1.87-12.63,3.23-19.33,4.64C589.29,438,590.62,434.54,593,431.58Z"/><path class="cls-30" d="M423.94,318.5A90.88,90.88,0,0,0,428.68,344c.2-2.51.34-4.32.52-6.63,1.51,1.72,0,4.2,2.28,5.48a12.09,12.09,0,0,0,.14-5.87c-.11-.81-.5-1.8.61-2,1.35-.28,1.59.83,1.7,1.87.34,3.29.66,6.58,1,9.87-.56,6.15,2,11.82,2.82,17.76.2,1.37,1,2.72-1.42,2.4a58.54,58.54,0,0,1-4.1-14.76c.5,5,2.28,9.68,3.76,14.43,2.92,2.66,2.32,6.7,3.89,9.89.93,3.43,3.21,6.45,3.11,10.19-.3.45-.62.46-1,.05-9.64-14.61-16.26-30.29-18.12-47.92-.47-4.42-.54-8.86-1.07-13.26C422.94,323.13,421,320.42,423.94,318.5Z"/><path class="cls-31" d="M665,362.57c-1.32,13.68-5.84,26.43-11.32,38.89-.8,1.82-1.65,3.62-2.42,5.44-.1.24.12.61.16.76,3.44,1.11,2.58-7.77,7.58-3.11.58,1.83-.89,2.28-2,3-5.75,4.85-11.41,9.82-17.28,14.54-5.05,4.06-11,6.66-17.06,9.36-.73-1.8.35-2.81,1.34-3.85,5.88-2.52,10.42-6.73,15.09-11,2.42-2.22,2.06-7.85,7.61-6.74.51.1,1.74-2.22,2.28-3.56,5.15-12.72,10.64-25.34,12.11-39.22.16-1.56,1.22-3,1.86-4.52C663.62,362.43,664.32,361.92,665,362.57Z"/><path class="cls-32" d="M512,378.58q2.46,16.56,4.93,33.14c-.8,2.44,1.48,4.46.93,6.87.49,6.6,3.85,12.15,6.52,18,.65,1.42,2.46,2.94,1.22,4.45-1.38,1.69-2.21-1.13-3.73-1.1-3.17.09-6-1.3-8.92-2.5,2.56-3.76-1.28-6.39-1.92-9.8,5.5.78,6,5.83,9,9-6.42-14.42-8.83-29.6-10-45.06-.11-3-1.26-5.86-.64-8.87C509.71,381,509.38,378.84,512,378.58Z"/><path class="cls-33" d="M670,399.61c2.58-3.37,5.83-6.17,7.88-10,1.48-2.76,2.4-1.53,3.42.69,1.69,3.65,1.4,7.88,3.56,11.35-.45,3.63,2.39,6.2,3.07,9.47.39,1.83,1.84,3.61,0,5.44-6.2-.63-9.08-4.85-10.94-10.15-.89-2.56-1.92-5.1-1.68-6.64-.48,2,1.33,4.89,1.52,8-.1,1.06-.34,2.07-1.68,1.18a7.87,7.87,0,0,1-3.53-4.34A4.12,4.12,0,0,1,670,399.61Z"/><path class="cls-34" d="M853,393.56c1-11.1,5.9-21.27,7.45-32.41,2.09.58,1.58,2.13,1.52,3.22-.11,2,3.32-.46,2.55,2.13.34-.66.73-1.3,1-2,2.53-5.76,2.45-11.91,2.62-18,2.16.19,2.31,2,2.77,3.51.41,5.63-1.8,10.94-2,16.49C865.56,376.68,860.59,385.89,853,393.56Z"/><path class="cls-1" d="M834.81,409.23c14-17.13,20-36.83,19.25-58.85-.66-19-7.29-35.32-21.12-48.55-.84-.81-1.73-1.56-3.11-2.78,2.38-.12,3.18,1.22,4.13,2.12,20.41,19.33,25.29,43.29,20.75,70-2.11,12.39-7.57,23.31-14.7,33.51-.85,1.2-2.78,2-2.06,4C837.09,410,836.22,411.27,834.81,409.23Z"/><path class="cls-35" d="M694,273.67c2,.17,2.93-2.4,5-2,.68.43,1.78,0,2.14,1.09,7.77,2.1,15.82,2.53,24.52,4-5.23,2.13-9.71,3.91-14.16,5.78-1.58.67-3.06,1.35-4.57-.06-.19-2,1.4-1.8,2.49-2.12-2.91.1-5.41,1.56-8,2.88-1.91,1-3.92,2-5.46-.62C695,279.71,693.25,277,694,273.67Z"/><path class="cls-25" d="M868.9,366.5c-1.17-3.49.21-6.9.5-10.31a41.23,41.23,0,0,0,.48-6.76c-1.27-5.94-1.19-12.09-3-18-2.62-8.69-7.6-16.13-11.95-23.92l0,.07a103.41,103.41,0,0,0-10.32-12.38c-1-1-2.49-1.81-1.55-3.64a.5.5,0,0,1,.38-.12,2.1,2.1,0,0,1,.47.14l9.88,9.24c6.26,5.54,9.94,12.9,14,20q1.53,3.9,3.08,7.8c1.33,3.31-.24,6.88.92,10.21C872.05,348.16,872.22,357.52,868.9,366.5Z"/><path class="cls-36" d="M844,291.6c.86,4,4.83,5.69,6.73,9,1.37,2.37,3.88,4.06,4.29,7-3.77-3.94-7.51-7.91-11.31-11.83-3.3-3.39-7.49-7.37-11.58-7.26-7.29.19-12-5.17-18.47-6.2-1.45-.23-1.47-.61-1.09-1.56.08-.2.93-.1,1.43-.14a82.11,82.11,0,0,1,11.31,3.8A87.66,87.66,0,0,0,814,280.56c-2.35-2.09-5.72.23-8.07-1.86l2.88-.91c.33-1.06,1.53-.45,2.07-1.09C823,279.21,834.5,283.21,844,291.6Z"/><path class="cls-37" d="M758.06,284.73c1,4.36-3,6.63-4.07,10.14-.71-2.43,1.4-4,1.61-6.26-2.07,0-1.62,2-2.5,2.95s-.59,2.46-2.69,2.06c-1-.19-1.83,2.66-3.59,1.49s-.12-3-.26-4.55c-2.71-.66-1.91,4.69-5.08,2.92-1.53-.85-1.51-2.39-.82-4.11-3.24,2.25-4.41,6.72-8.82,7.14a27.47,27.47,0,0,1,11.58-12.44C748,281.55,753.22,283.15,758.06,284.73Z"/><path class="cls-38" d="M812.71,418.54c4.67,1.68,5.86.27,7.82-4.33,2.3-5.38,5.93-10.21,9.22-15.13a2.48,2.48,0,0,1,3.56-.42c1.21,1.17,2,2.71.9,4.44-1.48,2.37-3,4.75-4.55,7-.93,1.36-1.78,2.54.39,3.47-5.58,5.91-13.62,7.74-20.13,12.13-1.74.52-2.67,0-1.61-1.75a42.79,42.79,0,0,1,2.71-4.44l0,.06C811.45,419.1,811.7,418.2,812.71,418.54Z"/><path class="cls-39" d="M452,235.64c-4.19,6.53-8.27,13.12-12.66,19.51-1,1.4-1.43,3-2.33,4.32-3.65,7.89-7.6,15.67-9.48,24.26a2.66,2.66,0,0,1-1.55,1.82c-1.42-3.87.55-7.45,1.54-10.85,4.44-15.24,11-29.45,22.54-40.83C452.14,232.92,451.23,235.21,452,235.64Z"/><path class="cls-40" d="M723.16,266.66l3.84-.28c4.89-2.2,10-1.29,15-.86,1.78,1.26,6.56-1.26,5.12,4.07-1,1.28-2.08,2.54-3,3.86-3.71,5.07-4.47,5.23-10,1.92-3.66-1.26-6.49-3.93-9.75-5.86C723.38,269,722.38,268.07,723.16,266.66Z"/><path class="cls-41" d="M683.16,325.74c1.71-4.12.27-8.55,1.38-12.72,1,25.58-1.33,50.68-10.84,74.76-.26.64-.52,1.27-.77,1.91-1.66-.06-1.53-1-1.06-2.13a3,3,0,0,0,.25-.88c-1.27-3.65,1.84-6.06,2.6-9.13C679.24,360.56,682.45,343.35,683.16,325.74Z"/><path class="cls-42" d="M810.9,276.7l-2.07,1.09c-11.53-3.54-22.65,2.26-34.53,2.2,4.82-7.45,9.48-9.27,17-8.12C798,272.91,804.31,275.26,810.9,276.7Z"/><path class="cls-40" d="M701.19,272.74l-2.14-1.09,1-1c3.57-1.75,7.24-3.1,11.3-2.89a.66.66,0,0,0,.64-.07,22.63,22.63,0,0,1,8.25-1c4.31,2.91,10,4,12.54,9.25-2.82,1.08-5.52,0-8.19-.59A118.59,118.59,0,0,0,701.19,272.74Z"/><path class="cls-43" d="M769,287.59c.48,7,2.67,13.86,2.06,21-.22,2.6-.73,4.47-3.7,5.11-1.41-5,1.68-9.82.21-15.47-.92,4.66-1.68,8.64-2.52,12.6-.24,1.1-.6,2.51-2.17,2.05-1.18-.34-.68-1.67-.91-2.58-.64-2.57,2.19-5.06.16-7.64Z"/><path class="cls-44" d="M726.17,304.72c-.35,1.77-.34,3.65-1.73,5.45-.58-2.06.76-4.34-1.23-6.05-8.86,19-8.78,39.27-9.13,59.46-1.75,0-2,0-2-1.07.32-10.38-1.58-20.88,1.66-31.1,2.15-14.57,5.71-28.56,16.33-39.65,1.18,2.28-1,3.5-1.6,5.22C727.59,299.5,724.51,301.41,726.17,304.72Z"/><path class="cls-45" d="M790.17,305.49c2,5.2.31,10.71,1.68,16.11,1.73,6.84,2.06,14,3,21.08a2,2,0,0,1-3-.2c-.61-13.67-.63-27.45-7.48-40a74.64,74.64,0,0,1,1.16,25.07,217.32,217.32,0,0,1-2.51-29C786.52,299.74,786.68,304.32,790.17,305.49Z"/><path class="cls-46" d="M709,286.56c-.56,1.52-2.18,2.51-2.21,4.32,3.79.69,3.79.69,2.39,2.76-3.41,4.22-4.85,9.33-6.54,14.34-.6,1.79-.31,4.56-3.5,4.38-.28-5.37,0-10.79-1.1-16.1-.32-1.43.41-2.54,1-3.7l0,.06C702.66,291.18,704.43,286.59,709,286.56Z"/><path class="cls-47" d="M690.07,368.54c1.86,7.09.61,14.45,1.85,21.64.58,3.38,2.05,6.92.67,11.26-4.1-7.38-4.37-15-5.43-22.4-.16-1.12.2-2.36-1-3.16Z"/><path class="cls-1" d="M452,235.64l-1.94-1.77c.79-3.21,4.44-3.73,5.92-6.28,7.51-5.59,14.42-12.05,23.1-16,.55.5,1.51.13,1.92.92a47.75,47.75,0,0,1-4.57,2.87C466.67,220.2,459.22,227.77,452,235.64Z"/><path class="cls-48" d="M699.11,312.36c2.68-3.16,2.37-7.45,4.12-10.94,1.47-2.94,2.07-6.62,5.92-7.78-1.64,8-4.43,15.56-7.1,23.29-1.63-.82-.46-2.83-2-3.33C699.72,313.19,699.42,312.77,699.11,312.36Z"/><path class="cls-1" d="M645.05,320.58c1.38,4,.8,8.18.64,12.23-.43,10.68-.35,21.41-2.6,31.94-.25-1.39.29-3-1-4.12-.09-.35-.17-.7-.26-1.05-1.31-1.57-1.1-3.43-.88-5.24A212.12,212.12,0,0,0,642.18,327c0-2.28-.18-4.74,2-6.37Z"/><path class="cls-49" d="M696,282.62c1.81,1.26,3.45.65,4.94-.58a10.91,10.91,0,0,1,8.9-2.36c-.07,1.9-2.36,1.48-2.89,2.8l-5.5,3.15c.84,1.88,2-.71,2.85.56-1.51,2.35-4.94,3.16-5.36,6.43l0-.06C695.43,290,697,286,696,282.62Z"/><path class="cls-50" d="M698.05,339.57l1.92,0c1.56,1.72,1,3.64.5,5.53-.81,2.89-.28,5.83-.5,8.74-.11,1.5.47,3.43-1.93,3.79v-3.89c-1,1.58-.63,4.6-4,2.9Q696.08,348.1,698.05,339.57Z"/><path class="cls-27" d="M671.87,387.56l1.06,2.13c-1.32,1.94-2.63,3.89-3.95,5.84-2.3.82-2.66,4.37-5.75,4.09-3.23-.92-.2-1.81,0-2.77.27-1.57,5.23-2,1.25-4.78-.06-.05,1-4.16,3.3-2.52C671,391.84,670.63,388.42,671.87,387.56Z"/><path class="cls-42" d="M688,416.55c-.42-3.94-1.89-7.6-3.11-11.32-.41-1.23-1.27-2.39,0-3.59a127,127,0,0,0,7.8,15.88c.45.78,1.66,1.61.76,2.52-1.25,1.25-1.79-.28-2.66-.93C689.77,418.33,688.57,417.82,688,416.55Z"/><path class="cls-51" d="M762.25,294.51c-.8,1.16-1.61,2.32-2.41,3.49.11-4.58,1.09-9,.17-13.46,6.18.31,6.2.31,4.16,5.49C763.57,291.54,762.89,293,762.25,294.51Z"/><path class="cls-52" d="M692.9,362.56c2.25,5.63.49,11.72,2.05,17.45a22.27,22.27,0,0,1,.39,7.75c-2.46-5.85-2.41-12.16-3.29-18.3-.22-1.57.54-3.35-.91-4.68A2.46,2.46,0,0,1,692.9,362.56Z"/><path class="cls-1" d="M867.9,320.8c-3.19-1.9-3.76-5.64-5.82-8.34-2.88-3.77-5.49-7.74-8.21-11.62,3.24-.23,3.72,3,5.28,4.61A33.87,33.87,0,0,1,867.9,320.8Z"/><path class="cls-1" d="M426,285.55c2.7-9.1,5.9-18,11-26.08-.56,4.36-3.3,7.87-4.68,11.9-1.87,5.44-3.5,11-5.23,16.44C426.75,287.06,426.37,286.31,426,285.55Z"/><path class="cls-1" d="M554,442.57a252.36,252.36,0,0,0,7.67-28.8c-.93,9.89-2.45,19.63-6.37,28.86Z"/><path class="cls-1" d="M663.23,399.62c2.22-.94,3-3.93,5.75-4.09-3.16,4.83-6.4,9.58-12,12l2-3Z"/><path class="cls-24" d="M636.77,385.52c-.66-4.7-.1-9.5-1.84-14.26,2.83.05,1.6,3.62,4,3.31C639.15,378.4,637.61,381.89,636.77,385.52Z"/><path class="cls-1" d="M732.75,275.94c-3.07-4-8-5.31-11.82-8.3a1.18,1.18,0,0,1,1.07-1.06l1.16.08c3.07,3.61,8.19,4.65,10.9,8.71C733.86,276.11,733.39,276.21,732.75,275.94Z"/><path class="cls-1" d="M780.5,435.24c-.08-4,2.39-4.12,5-2.89a10.06,10.06,0,0,0,3.45,1.31C786.22,434.61,783.53,435.88,780.5,435.24Z"/><path class="cls-1" d="M595,418.55c0-.66,0-1.32,0-2,2.18-3.33,1.9-7.45,3.83-11.52-.17,5.43-.82,10.14-2.72,14.64Z"/><path class="cls-1" d="M773.07,267.58c-.91-4.05-5.78-1.37-7.43-4.65,3.2-.29,6.18,2.41,9.34.71A5.69,5.69,0,0,1,773.07,267.58Z"/><path class="cls-24" d="M639.84,371.54c-2.15-4.86-2-5.87,1.14-8C641.36,366.32,640.52,368.92,639.84,371.54Z"/><path class="cls-1" d="M423.94,318.5c-1.61,2.14-.53,4.7-1.11,7-2-4.79,0-9.28,1-13.85C423.86,313.93,423.9,316.22,423.94,318.5Z"/><path class="cls-53" d="M779.79,270.85l-6.12,3.75C773.44,270.08,776.05,270.36,779.79,270.85Z"/><path class="cls-1" d="M759.11,435.8l13.87-.23C768.39,437.29,763.76,436.93,759.11,435.8Z"/><path class="cls-1" d="M756.77,434.61c-2.6-2.16-2.89-5.25-3.27-8.31l4.31,8.27Z"/><path class="cls-1" d="M811,419.56c0,1.74-1,3-2,4.34s-.22,1.63.9,1.84c-1.41,1.52-2.68.37-4-.2Z"/><path class="cls-1" d="M442,386.68a4.42,4.42,0,0,1,1-.05l4.69,7C444.32,392.48,442.72,390,442,386.68Z"/><path class="cls-1" d="M676.9,407.74a14.84,14.84,0,0,1-1.32-9.95q.74,4.31,1.48,8.61C677,406.85,677,407.3,676.9,407.74Z"/><path class="cls-1" d="M670,399.61l1.65,5C667.18,404.23,667.52,402.28,670,399.61Z"/><path class="cls-1" d="M726.57,430.67a7,7,0,0,1-2.22-6.66l3.54,6.59Z"/><path class="cls-1" d="M543.15,444.92l9.77-.64C549.81,446.65,546.47,445.66,543.15,444.92Z"/><path class="cls-1" d="M517.85,418.59c-.88-2.22-2.45-4.33-.93-6.87l1.92,6.86Z"/><path class="cls-1" d="M871.9,338.81c-1.31-3.31-.94-6.78-.92-10.21C873.06,331.84,871.62,335.4,871.9,338.81Z"/><path class="cls-24" d="M644.2,320.6c-.24,13,.32,26.1-2.32,39-1.17,0-2.34.07-3.5,0-5.71-.53-5.76-.54-4.7,4.93.3,1.56-.76,2-1.67,2.72-2.24,1.64-3.06,4.93-1.66,6.13,3.88,3.3,1.1,7,1.19,10.27.09,3.12-.52,6.81-5.41,7.67-3.47.61-4.75,3.77-3.54,7.49,2.32,7.08.54,7.7-6.31,8.42-8.44.9-7.3-2.77-6.39-8.13a14.68,14.68,0,0,0-1-8.8c-4-8.51-2.84-11.59,5.63-15,1.32-.52,2.24-.5,2.6-2.16.51-2.41,1.9-3.74,4.72-2.8,1.69.56,2.85-.7,3.63-2a3.12,3.12,0,0,0-.55-4.12c-1.93-1.66-3.45-2.78-.58-5.29,1.81-1.59-.12-4.12-.7-6.09-.54-1.81-2.18-.71-3.42-.44-3.5.78-6.33-2.8-10.12-1.41-1.22.44-1.27-1.81-1-2.78,2.22-7-1.39-14.07.44-21.23.57-2.26.52-4.43,2.54-5.75,2.77-1.81,1.58-5.21,3.29-7.49.54-.72-1.09-1.45-2-1.75-1.8-.61-2.54.68-3.56,1.89-4,4.69-2.19,10.3-2.67,15.52-.13,1.33,1.37,3.49-.93,3.54-2,0-1.16-2.36-1.21-3.68-.15-4-.1-8-.13-12-.08-.49.09-1,0-1.48-3.71-19.31-2.23-39.36-8.38-58.34-2.57-7.92-5.24-15.75-9.57-22.91,7,11.93,10.5,25,13,38.49,1.43,7.51,1.6,15.16,2.88,22.68a13.66,13.66,0,0,1,0,5.48c-.58,2.33-2.61,3.22-3.9,1.13-3-4.91-7.72-8.82-8.94-14.8.06-.67-1.07.27-.42.15.27-.05.4,0,.38,0-.82,4.37-4,7.86-4.85,12.13-.84,4-5.12,6.3-4.55,11,.32,2.64-2.29,3.75-4.49,4.66-2.18,4.09-.48,5.59,3.67,6.23a71.67,71.67,0,0,0,13.86.91c3.21-.13,4.54,1.33,4.42,4.49a47.77,47.77,0,0,0,.08,8.46c.26,1.88-2.31,5.91,3.07,5,1.13-.19.77,1.58.81,2.48.07,2,0,4,0,6,0,3.15,0,6-4,2.32-.35-.32-1-.69-1.33-.57-4.77,1.67-11,1.6-13.91,5.44s-5.24,3.19-8.76,2.75c-1.75-.23-3.48-3-5.25-.69-2,2.55,0,4.53,2.25,6.67-3.33,1-5.07.81-5-2.65,0-3-.08-6-.13-9-.87-25-2.4-50-6.83-74.73-1.93-10.76-5.26-21.38-6-32.19-.42-6.49-2.65-12.4-3.15-18.7a1.88,1.88,0,0,1-.4-1.4c.32-1.69-1.1-4.26,1-4.91,2.75-.84,1.74,2.54,2.9,3.74s1.56,3.24,2.17,4.41c-.31-1.22-1.28-2.71-1.85-4.36-.45-1.31-1.11-2.83.45-3.47s2.31.95,3,2.06a12,12,0,0,1,1.87,5.62c.18,2.94,1-.68,1.58.21.36.6,1.23,1,.39-.33-.58-.9-1-2,.18-2.55,1.41-.71,1.91.83,2.7,1.36a7.52,7.52,0,0,1-1.54-3.05c-.19-1-.18-2.07.89-2.61,1.42-.72,2.1.3,2.71,1.35.75,1.3,1.3,2.7,2.17,3.93q-.6-1-1.14-2c-2.47-4.79-2.45-4.78.82-8.42.43-.47.77-1.07,1.17-1.6a4.35,4.35,0,0,1,3.58,1.45c7.85,7.09,16.58,13.41,20.51,23.9a27.77,27.77,0,0,0,4,6.79,72,72,0,0,0-19.41-33.29c12.82-3.48,23.81-1.9,33.64,7.1,12.56,11.49,19.11,26.12,23.57,42C640.21,282.25,642.13,301.44,644.2,320.6Z"/><path class="cls-54" d="M481,212.55c-.78,0-1.65.16-1.92-.92a137.39,137.39,0,0,1,47.59-18c3.14-.55,4.47.24,6.14,2.92,2,3.29,3.81,6.42,3.93,11.05-4.21-4.47-7.25-9.62-13.94-10,3,6.79,9.86,10.76,12.24,18.07a15.49,15.49,0,0,1-7.87-1.53c-12.51-6-25.56-8-39.2-4.43-2.3,1.07-4.76,1.75-7,2.88Z"/><path class="cls-55" d="M597.29,191.77c2.57.35,5.1,1.19,7.75.68,5.72.46,10.86,2.8,16,5.1,1.13.5,2.47,1.23,2,3-.42.54-.93,1.13-1.57,1.12-7.53-.17-14.94,2.29-22.51.88-5.34,1.17-10.75,2.17-15.69,4.6-2.73,1.33-6.14-3.17-8,1.4-1.7-1-.89-2.79-1.91-3.62-2.91-2.37-3.32-5-1.22-8.14,2.32-3.47,4.26-7,9.57-6.29,4.24.54,8.6.17,12.91.21,1.26,2.12-.91,2.49-1.85,3.07a44.77,44.77,0,0,0-9.19,7.12C587.06,197.63,591.45,193.63,597.29,191.77Z"/><path class="cls-5" d="M622.77,199.68,605,192.45c4.71-2.25,8.52,1.33,12.71,2.19,5.15,1.05,9.46,5.05,14.29,6.43,7.47,2.14,13.05,6.9,19.22,10.82,3.86,2.46,6.88,6.14,9.77,9.84,2.08,2.65,5.08,4.56,7.53,7,4,3.93,7.92,7.78,8.3,14.17.12,2.13,3.45,3.9,4.67,6.19,1,1.93,4.34,4.26.32,6.61-6.28-11.46-13.42-22.3-23.36-31-8.21-7.17-16.78-13.86-27.42-17.19a7.29,7.29,0,0,1-1.06-2,9.28,9.28,0,0,0-2.83-2.06C625.38,202.59,623.6,201.69,622.77,199.68Z"/><path class="cls-7" d="M569,215.65c0,2.35.87,5.49-3.59,3.79.41,4.58,4.95,7.55,5.4,13.62-3.83-3.44-4-7.74-7.09-10.35-.94,3.63,2.48,6,1.87,9.31-2.27-1-1.46-4.06-4-4.65-.36,2.7,2.47,4.48,2.14,7.27-2.49-.33-2-2.91-3.29-4.14-.35.75-.68,1.44-1,2.13-2.41-3.06-1.87-7.44-5.12-10.43-.26,4.45,3.35,7.63,2.61,11.93-1.6-4.23-4.13-7.93-6.44-11.72-1.33,1.33-.07,3.46-.6,5.27-2.71-9.16-1.36-11,8.13-11,1.65.55,3.36,2.58,4.86-.21C564.81,215.17,567,215.55,569,215.65Z"/><path class="cls-56" d="M550.64,191.47c.28,2.06,2.08,3.84,1.12,6.12a.48.48,0,0,1-.41,0,7.74,7.74,0,0,1-.54-.82,6.39,6.39,0,0,1-3.28-3.48c.83,3.21-.16,4.69-2.31,5.5-.32.46,0,1.95-1.31.82a15.29,15.29,0,0,1-1.63-2.24,9.09,9.09,0,0,1-1.15,3.24c-2.82-2.46-2.37-6.66-5-9.27-1.13-1.11-.5-2,1.12-2,4.93-.11,7.87-3.39,10.77-6.75C551.32,184.83,550.93,188.17,550.64,191.47Z"/><path class="cls-57" d="M550.64,191.47c-2.56-2.46-.93-6.16-2.64-8.88-.3-.6-.61-1.21-.91-1.82,0-.4-.07-.8-.1-1.2-.35-.76.09-1.07.72-1.28.71.11,1,.64,1.21,1.21,3.31,5,5.18,10.92,10,14.92,1.08,4.34,0,8.71.09,13.06,0,1.86.42,4-2.93,5C558.64,204,556.13,197.29,550.64,191.47Z"/><path class="cls-58" d="M477.54,230.59c7.82-9.05,18.48-12.44,29.63-14.86.59,1,1.77.68,3.39,1.46-8,2.3-15.38,4.56-22,8.61-1.37.84-3.08,1.31-3.63,3.12a8.42,8.42,0,0,0-3.37,2.73C479.44,234.51,478.53,232.28,477.54,230.59Z"/><path class="cls-59" d="M631.85,205.42l-.78,2.07c-6.71-1-13.25-3.12-20.13-2.87-1.58.06-3.35-.67-4.69.83-2.8,0-6,1-7.27-2.92a63.61,63.61,0,0,1,18.79-2c1.69.05,3.63,1,5-.89l5.26,2.87c-2.52,2-5.34,1-8,.69s-5.51.08-8.24-.28c-.67,0,.21,1.12,0,.5,0-.09.06-.16.3-.17C618.75,203,625.44,202.89,631.85,205.42Z"/><path class="cls-60" d="M485,261c2-9.48,7.38-17.19,13.51-24.34,3.18-3.69,6.39-7.64,11.42-9.16-2.77,4.36-7.42,7-10.36,11.17-.76,1.09-3.08,1.71-1.6,3.8C494.41,249.21,488.83,254.5,485,261Z"/><path class="cls-61" d="M545.22,198.83c2.69-2.32.78-5,.38-8,3.32,1,3.9,3.83,5.21,6-1.51,2.72.87,5.32.27,8-.12.58.5,1.32.38,1.91-.44,2.05-1.19,4.77-3.24,4.81s-2-2.79-2.33-4.61C545.37,204.26,548.82,201.26,545.22,198.83Z"/><path class="cls-62" d="M563.69,191.65c3-1.42,6.28-1.39,9.92-2-1.29,4.13-5.84,6.06-5,10.64-2.87-.72-2.54-3.31-3.82-4.69C563,194.71,563,193.27,563.69,191.65Z"/><path class="cls-28" d="M548.73,234.61c-3.72-1.38-4.59-5-6.18-8-.75-1.42-.75-3.3-2.57-4,.66-1.89,1.7-3.15,4-2.93,2.45.24,1.38,2.38,1.76,3.48C547,226.84,547.77,230.76,548.73,234.61Z"/><path class="cls-1" d="M597.29,191.77c-5.84,3.84-11.3,8.19-16.84,12.49,3.19-6.16,9.28-9.23,14.15-13.57Z"/><path class="cls-5" d="M742,265.52c-5,.19-9.94,1.31-15,.86a3.66,3.66,0,0,1,4.35-2.51C734.88,264.52,738.63,263.84,742,265.52Z"/><path class="cls-63" d="M539.06,185.65c-.66,0-1.32-.07-2-.09-1.22,0-2.34-.25-2.73-1.65,1.7-.36,1.35-1.87,1.89-2.94.45-.88,1.47.71,2.26,1.19,1.3.78,2.89,1.36,1.4,3.3Z"/><path class="cls-5" d="M711.32,267.75c-3.6,1.59-7.46,2.19-11.3,2.89-.06-.48-.13-1-.19-1.43C703.72,269.17,707.07,264.94,711.32,267.75Z"/><path class="cls-5" d="M722,266.58c-.36.35-.72.7-1.07,1.06l-9,0C715.19,266.26,718.37,264.38,722,266.58Z"/><path class="cls-24" d="M562.92,216.52c1.31,1,.8,2.69,0,2.85a4,4,0,0,1-4.84-2.64Z"/><path class="cls-1" d="M563.69,191.65c.37,1.33.75,2.66,1.12,4-2.24,1-3.61-.21-4.76-1.92l.88-1Z"/><path class="cls-61" d="M541.13,200.65c-.17-1.91-.78-3.92,1.13-5.45a4.74,4.74,0,0,1,1.65,4.45Z"/><path class="cls-1" d="M481,212.61a9.71,9.71,0,0,1,7-2.88c0,.28,0,.56,0,.84Z"/><path class="cls-1" d="M599,569.22c-.38,3.51-2.1,6.13-5.51,7s-5-1.6-6.4-4.25c-2-3.66-.84-7.18.29-10.61.71-2.16,3-2,4.76-1.61,2.16.43,4.9.34,5.68,3.18C598.38,565,598.62,567.12,599,569.22Z"/><path class="cls-64" d="M547.85,178.45l-.86,1.12c-2.87,2.33-4,.44-5-2a4.46,4.46,0,0,0,2.66-3.26c.31-1.32.61-3.54,3.12-2.7C549.42,173.86,549.57,176.14,547.85,178.45Z"/><path class="cls-6" d="M547.85,178.45c.66-2.3.19-4.57-.09-6.85,3,1.14,2.16,3.75,2.24,6l-1.07,1.91Z"/><path class="cls-65" d="M512,378.58c-1.64,2.5-.73,5.34-1.05,8-.2,1.68.81,3.6-.94,5-7-6.4-14-12.74-19.06-20.87-3.16-5.08-5.89-10.3-6.62-17,8.4,3.31,16.07,7.3,24.59,8.78,1.81-2.32,2.39-.23,3.24.9,4.61.61,9.21,1.41,13.85,1.76,3,.22,4.16,1,3.43,4.28-.52,2.27-1.53,5.44,1.68,6.5a17.19,17.19,0,0,0,11.73,0c1.39-.55.9-2.73,1-4.18.13-3.73,1.8-5.06,5.66-5.1,9-.1,18,.66,26.88-1.22a11.83,11.83,0,0,0,1.82-.75c1.39-1.39,3.1-1.31,4.85-1,4.39.21,8.53-1.28,12.57-2.5,5.16-1.57,10.3-3.17,15.53-4.5,1.29-1,2.59-1.24,3.91-.05.39,4-1.42,7.46-2.81,11,.51,2.18-1.06,3-2.53,3.87L608,373.58c-1.48,3.19-4.15,5.24-7,7.14l-1,.9c-.49.7-1.41.45-2,.9a38,38,0,0,1-19.59,10.19c-2.86.57-3.1-.27-3.11-2.4,0-.33,0-.67,0-1,.19-7.29.2-7.14-6.79-6.5-3.08.29-3.73,1.6-3.71,4.46,0,8-.46,8-8.17,9.58-9,1.86-17.91,0-26.83-.39-3.72-.18-7.09-2.11-6-7.09a13.13,13.13,0,0,0,.15-2C524.43,379.26,520.37,376.27,512,378.58Z"/><path class="cls-66" d="M576.07,315.43c1.87-3.09,5.76-5.55,3.21-10.11a4.34,4.34,0,0,1,1.8-1.31c1.85-.49,3-1.09,1.4-3.09-.2-.24-.52-.73-.46-.78,3.17-3,3-8.21,5.68-10.77,3.49-3.38-2.56-1-.68-2.34,2.54-.25,7.24,2.32,7.51,5.47.33,3.65,4.52,3.79,4.89,6.93,0,.26,1,.35,1.08.67.27.7-2.06,2.29.61,2.12,1.25-.08.94-1.58.87-2.51-.4-5.47-.65-11-1.33-16.4-2.29-18.27-6.41-36-16.24-51.92a12.9,12.9,0,0,1-.51-2.72c6.62,9.23,10.28,18.32,13.11,27.79,4.43,14.74,6.12,29.92,6.9,45.22.22,4.17.59,8.24,2.86,11.84,1.57,2.48-1.12,2.53-1.86,3.69-1.31,8.09-.7,16.25-.88,24.39.61,1.58.93,3.16-.18,4.68-1.71-8.62-.37-17.36-.93-26-.11-1.85.48-4.64-3-2.75-1.9,1.16-3.78.85-5.66-.07-4-1.49-8.26-.88-12.32-.54A10.26,10.26,0,0,1,576.07,315.43Z"/><path class="cls-67" d="M507.94,315.73c-5.47,0-10.94,0-16.4-.12-1.93,0-4.83.51-5.31-1.56-.42-1.78.95-4.14,1.91-6.05,2-4,3.6-8.5,6.63-11.55,2.78-2.82,4.75-6,7.12-9,1.64-.5,3.11-.4,4.21,1.11-1.39,2,1.4,3.13,1,4.91,1.34,3.75,2.53,7.58,5.88,10.16-.08,3.35.21,6.33,2.59,9.26s-1.63,1.83-2.56,2.76C511.36,316.7,509.65,316.1,507.94,315.73Z"/><path class="cls-28" d="M540.06,263.29v-7.68c-1.86,1.25-.21,3.43-2.82,4.79.43-11.65-.93-22.85,3.09-34.41,5.54,12,7.17,24.06,6.56,37.71-4.71-4.8-3.41-10.16-4.24-14.83-.89-5-1.37-10.07-2.22-16.57C539,243.63,542.21,253.44,540.06,263.29Z"/><path class="cls-68" d="M507.94,315.73l5.09-.12c.18,15.93-1.79,31.83-.88,47.77-1-.57-1.93-1.43-3.24-.9,2.3-5.9.17-11.8-.22-17.64-.42-6.26-1.24-12.22,1.26-18.4C511.3,323.09,513.16,318.41,507.94,315.73Z"/><path class="cls-69" d="M513,303.59c-5.58-1.82-6.54-3.48-5.89-10.15,4.76,1.45,4.71-1.78,4.75-4.89a129,129,0,0,1,7.3-42c.63-1.78.87-3.8,3.5-6.22C514.6,261.58,512.75,282.44,513,303.59Z"/><path class="cls-70" d="M506.1,288.52l-4.21-1.11c3.79-3.77,1.79-8.83,2.85-13.22a91.16,91.16,0,0,1,5.77-17.68c.24,4.25-1.56,8.05-2.74,11.9-1.33,4.33-1.44,8.8-2.52,13.13-.24.95-.51,2.27.51,2.72C508.72,285.57,506.35,287.09,506.1,288.52Z"/><path class="cls-1" d="M598,382.52l2-.9c.11,10.6-2.57,20.8-4.47,31.12-.23,1.28-.35,2.59-.52,3.89-2.1-3.57-.17-7.07.33-10.53,1-7,2.33-14,3.5-21C599,384.11,599.18,383.07,598,382.52Z"/><path class="cls-71" d="M499.74,248.65c-2.79,10.3-6.81,20.28-8.39,30.91C490.85,268.38,495.13,258.47,499.74,248.65Z"/><path class="cls-72" d="M487.38,279.37a62.77,62.77,0,0,1,8.25-27.83A259.09,259.09,0,0,0,487.38,279.37Z"/><path class="cls-24" d="M601,380.72a38,38,0,0,1,7-7.14,1.93,1.93,0,0,1-.45,3.29c-3.32,1.48-3.82,4-2.81,7.54C602.76,383.28,600.59,383.28,601,380.72Z"/><path class="cls-24" d="M603.85,346.28l.18-4.68a21.86,21.86,0,0,1,1.63,9.92l-1.31.17C604.19,349.89,604,348.08,603.85,346.28Z"/><path class="cls-24" d="M615,356.58l-3.91.05-1.88-.36c1.41-.83,2.75-2.11,4.25-2.36S615.73,355,615,356.58Z"/><path class="cls-24" d="M594.21,317.44l5.66.07c1.75.43,2,1.51.18,1.72s-4-.58-6-1c-.07,0-.13-.28-.1-.42S594.12,317.58,594.21,317.44Z"/><path class="cls-24" d="M609.68,371.46l2.53-3.87c1.08.25,1.91.79,1.53,2C613.1,371.7,611.36,371.58,609.68,371.46Z"/><path class="cls-24" d="M583,363.63a8.71,8.71,0,0,1-4.85,1c-.49-.21-1.73-.36-.94-1C579,362.35,581.07,361.83,583,363.63Z"/><path class="cls-73" d="M805.94,387.54c-2.58,4-7.16,4.3-11,6-1.43,1.6-3.49-.2-5,.92-15.59,3.84-31.41,5-47.16,2.09-9.25-1.71-17.4-6.36-22.59-15.52,3.59-.25,5.71,2,7.83,3.67,5.68,4.55,12,6.59,19.2,8.11,8,1.71,16.07.83,24.07,2,6.84,1,14.3-2.15,21.49-3.47.66-.49,1.55-.22,2.23-.66l11-3.07Z"/><path class="cls-74" d="M729.25,337c1.39,1.79-.52,3.17.18,4.62,1.65-.26,1.18-2.69,2.92-2.85,1.11.89.41,2.11.35,3.55,1.72-1.43,1.28-3.71,3-4.59,2.41.9,3.63,3.33,6.19,4.38s1.58,4.16.51,6.17c-.88,1.64-2.12,3.22-4.78,1.51a14.89,14.89,0,0,0-7.08-2.19C726.17,347.25,726,344.74,729.25,337Z"/><path class="cls-75" d="M791.89,342.48l3,.2c2-2.73,3.94-4.6,7.21-1.3a4,4,0,0,0,4.18.25c1.45-.9,2.86-1.57,3.41.66.39,1.59,1.08,3.31-1.52,4.45-3.1,1.36-5.76,3.47-9.44,1.71-2.16-1-3.72.11-4.67,2.15-2.82-.3-.67-3-1.93-4C792.38,345.19,790,343.94,791.89,342.48Z"/><path class="cls-76" d="M746.45,377.28a222.33,222.33,0,0,1,12.32-76.8A427.54,427.54,0,0,0,746.45,377.28Z"/><path class="cls-77" d="M698,357.61c1.53-5.93,1.18-12.05,1.93-18.06,1.14-8.75,2.43-17.46,5.09-25.91.92-.22,1.26.15,1.05,1.06-5.12,18.71-4.58,38.11-7.05,57.19C697.3,367.22,698.15,362.38,698,357.61Z"/><path class="cls-78" d="M713.79,331.41a219.05,219.05,0,0,0-.7,28.06c0,1.36-1,3.16,1,4.11,2,3.77.22,7.8,1.16,11.86-2-.49-.55-2.25-1.75-2.76l-1.07,2c-2.1-5-1.53-10.16-1.48-15.17.08-8.74-.68-17.51,1-26.19C712.17,332.16,712,330.94,713.79,331.41Z"/><path class="cls-79" d="M789.94,394.46c1.49-1.28,3.33-.69,5-.92-1.15,9.52-2.38,19-6,28-.44.79-.86,1.59-1.33,2.37-1,1.72-1.52,1.08-1.77-.44,1.69-5.15,3.55-10.25,5-15.47,1-3.47,1.29-7.1,1.91-10.67C793.2,395.08,791.8,394.54,789.94,394.46Z"/><path class="cls-80" d="M792.09,346.56c1.29,1,.33,3.15,1.93,4,0,11.47,0,22.94,0,34.41,0,1.91-.7,4,1,5.68a2.08,2.08,0,0,1-2.23.66c1.29-13.64-1.09-27.2-.84-40.81C792,349.21,792,347.89,792.09,346.56Z"/><path class="cls-81" d="M706.11,314.7l-1.05-1.06a30.88,30.88,0,0,1,6.24-14c1.13-1.5,1.38.18,1.68,1l0,0c-2.65,4-2.38,8.87-4.17,13.12C708.29,315,707.94,316.83,706.11,314.7Z"/><path class="cls-82" d="M713,300.61l5-8.39c-4.82,9.69-5,20.79-9.29,30.6.18-7.69,4.18-14.58,4.28-22.25Z"/><path class="cls-83" d="M722.34,415.32c-4.38-9.38-5.75-19.39-6.2-29.6Q719.25,400.51,722.34,415.32Z"/><path class="cls-41" d="M812.71,418.54,811,419.62l-.15-2.08c6.07-7.82,7.79-17.27,8.8-26.58a274,274,0,0,0,.29-61.2c-.39-3.41-1.26-6.78-2-10.68C828.35,335.47,825.36,389.23,812.71,418.54Z"/><path class="cls-84" d="M855,307.53c9.2,12.47,16.17,25.72,14.92,41.9-.58-1-1.16-1.95-1.73-2.93A62.35,62.35,0,0,0,859,316,78.48,78.48,0,0,1,855,307.53Z"/><path class="cls-85" d="M799.93,314.4c.69,4.4,1.75,8.84-1.6,13.08-.29-4.92-2.28-9.33-3.5-14.28,2,.55,1.68,2.49,3,3.45,0-4.71-3.1-8.42-3.62-13.07,2.35,1.13,2,4.07,4,5.15C800,310.24,801.34,311.88,799.93,314.4Z"/><path class="cls-86" d="M817,303.19c1.22,3,4.46,4.26,3.83,9.06-.48,3.7,2.9,7.87,4.46,11.87a12.13,12.13,0,0,1,.92,6.35l-10.53-26.74Z"/><path class="cls-50" d="M799.93,314.4c.31-2.17-1.49-3.68-1.78-5.67l-1.79-6.14c4.8,0,7.22,5.88,6.5,16C800.63,318,801.49,315.33,799.93,314.4Z"/><path class="cls-87" d="M831,308.66c-6.11-2.36-8.76-8.31-12.91-12.74,5,2.95,9.86,6,13,11.14A1.16,1.16,0,0,1,831,308.66Z"/><path class="cls-88" d="M821.54,304.36c4.19,5.08,9.8,9.55,8.81,18.83C827,316.19,825,309.94,821.54,304.36Z"/><path class="cls-89" d="M810.41,325.38c-1.73-7.57-5-14.58-8.45-22.19C806.8,307.81,811,318.72,810.41,325.38Z"/><path class="cls-73" d="M806,387.62c1.16-5,6.53-5,9.59-7.74-1.62,4.5-5.66,6.06-9.65,7.66Z"/><path class="cls-90" d="M831,308.66l.09-1.6a18.83,18.83,0,0,1,6.16,9.8Z"/><path class="cls-30" d="M661.89,237.69l-4.11-3.48c-1,1.55,1.65,2.16.3,4-6.39-7.8-12.05-16.13-20.76-22.06,12.19,1,23.79,11.14,24.81,21.28Z"/><path class="cls-91" d="M666.9,317.69c-2-3.53-1.08-7.5-1.39-11.21-.91-10.87-.55-21.83-2.3-32.66,4.78,16.62,6.21,33.6,5.64,50.8-1.58.12-1.17-1.09-1.35-2C667.15,321,668.29,319.2,666.9,317.69Z"/><path class="cls-92" d="M666.9,317.69c.06-.15.07-.34.17-.44a4.6,4.6,0,0,1,.63-.42c.91,2.52-.48,5.38,1.15,7.79A155.29,155.29,0,0,1,665,362.57c-.69.23-1.4,1.07-2.06,0C667.06,347.83,666.92,332.75,666.9,317.69Z"/><path class="cls-93" d="M692.91,333.44c-1.6-1.68-.95-3.78-.9-5.67a254.85,254.85,0,0,0-2-38,9.14,9.14,0,0,0-.93-2.21c.31-3.82-1.53-7.36-1.45-11.15C693.59,295,694.12,314.16,692.91,333.44Z"/><path class="cls-94" d="M682.89,290.58c2.7,2.75,3.53,6.57,3.84,9.94.89,9.52,2,19.09.66,28.71.12-6.65-1.16-13.21-1.28-19.83a29.76,29.76,0,0,0-2.91-12.93C683.1,294.5,683,292.54,682.89,290.58Z"/><path class="cls-27" d="M674.72,377.55c-.1,3.26-1.34,6.2-2.6,9.13-5.42-1.94-.78-4.55-.19-6.65C672.12,379.34,673.86,378.52,674.72,377.55Z"/><path class="cls-95" d="M671.63,248.62h1.31c1.63,3.6,4.44,6.75,3.69,11.31Q674.13,254.29,671.63,248.62Z"/><path class="cls-96" d="M469,396.55c.56,7.15,4.64,13,7.16,19.38-4.31-1.27-5.89-3.86-5.66-8.31.07-1.32-1-2.72-1.65-4-2.55-5.31-5.13-10.61-7.36-16.11,3.13,2.6,3.5,7.37,7.55,9.13Z"/><path class="cls-97" d="M475,244.64a130.65,130.65,0,0,0-15.21,23.06,65.18,65.18,0,0,1,14.23-24.09C474.94,243.41,475.47,243.56,475,244.64Z"/><path class="cls-96" d="M469,396.6c.59-2.31,1.37-1.2,1.92,0,2.85,6.06,5.64,12.15,8.15,18.38-4-4.11-5.95-9.4-8.06-14.56-.56-1.36-.71-2.9-2-3.83Z"/><path class="cls-1" d="M465,243.62c2.74-5.38,7.24-9,12-12.39C473.62,236,469.35,239.84,465,243.62Z"/><path class="cls-98" d="M475,244.64l-1-1a22.59,22.59,0,0,1,8.45-7.24Z"/><path class="cls-99" d="M439.87,376.44c-3.76-2.31-3-6.42-3.89-9.84l0,0c2.69-1.44.66-3.39.47-5.08-.55-4.91-3.6-9.56-1.57-14.76q2.15,10.41,4.28,20.83c-.8,2.7,1.54,5.22.47,7.94A4.47,4.47,0,0,1,439.87,376.44Z"/><path class="cls-30" d="M439.67,375.49c-1.4-2.57-2.27-5.18-.47-7.94l4.33,10.59C441.13,378.38,441.19,375.77,439.67,375.49Z"/><path class="cls-83" d="M473,226.57a20.87,20.87,0,0,1,10.45-5.24L474,227.44A1.44,1.44,0,0,1,473,226.57Z"/><path class="cls-100" d="M473,226.57l1,.87-5.91,4.18C468.77,228.91,471,227.91,473,226.57Z"/><path class="cls-99" d="M436,366.6c-3.32-5.1-3.83-11-5.06-16.66l1.17-.33L436,366.56Z"/><path class="cls-25" d="M814,280.56c4.75.16,8.89,2.12,12.7,5.05l-12.73-5Z"/><path class="cls-101" d="M620.27,239.32c4,5.84,5.4,12.47,5.79,19.4Z"/><path class="cls-102" d="M598,231.73c3.07,4.23,5.3,8.77,5.14,14.14Z"/><path class="cls-103" d="M631.85,205.42c-7.23.22-14.16-2.68-21.45-2.87H628C629.2,203.64,631.17,203.67,631.85,205.42Z"/><path class="cls-104" d="M494.56,370.46c3.19,2.49,5.18,6.33,9.37,7.71,1,.33,2.31,1.64.86,3.17s-2.22.08-3.22-.72C498.27,378,496.24,374.4,494.56,370.46Z"/></g></g></svg>