<svg xmlns="http://www.w3.org/2000/svg" viewBox="0 0 809.12 806.59"><defs><style>.cls-1{fill:#fdfdfd;}.cls-2{fill:#292929;}.cls-3{fill:#ee9222;}.cls-4{fill:#dadada;}.cls-5{fill:#dfdede;}.cls-6{fill:#050505;}.cls-7{fill:#151107;}.cls-8{fill:#e94570;}.cls-9{fill:#eae9ea;}.cls-10{fill:#555;}.cls-11{fill:#939392;}.cls-12{fill:#35291c;}.cls-13{fill:#7f567f;}.cls-14{fill:#f5e763;}</style></defs><title>Asset 12b</title><g id="Layer_2" data-name="Layer 2"><g id="Layer_4" data-name="Layer 4"><path class="cls-1" d="M277.54,596.22c-13.77,9.17-29.67,12.38-45.37,16.06A105.38,105.38,0,0,1,211,615.5a3.4,3.4,0,0,0-3.64,2.59c-6.88,19.62-14.51,39-18.08,59.63a99.13,99.13,0,0,0-1.07,26.37c.23,2.37.71,3.73,3.22,4.74,4.22,1.7,5.83,5.67,6.73,9.91.27,1.26.31,2.57-1.13,2.84s-1.77-1.26-2-2.35c-.46-2.14-1-4.23-2.6-5.84-1.16-1.18-2.59-2.87-4.21-1.8-1.44.95-1.15,2.92-.16,4.5a21.21,21.21,0,0,1,2.77,8.48c.2,1.32.82,3-.89,3.4-1.93.5-1.76-1.47-2.14-2.62-.16-.47-.06-1-.22-1.48-.54-1.63-.33-4.76-2-4.42a5.49,5.49,0,0,0-4.14,5.43c-.07,2.36,1.9,6.61-1.37,6.66-2.69,0-.94-4.52-1.57-6.95-.2-5.88-6.27-8.62-7.1-14.82-1-7.77-3.85-15.35-3.82-23.41.05-14.74-.25-29.5.14-44.24a133.84,133.84,0,0,1,3.22-24.56c1.94-9,4.71-17.93,5.75-27.18,3.13-5.59,3-12.07,4.93-18,1.11-.74.95-1.9,1-3l7-25c-.27-1.21,1.65-2.52.17-3.5-1-.64-1.63.64-2.18,1.44a9.67,9.67,0,0,0-6.41,2c-1.44,1.05-3,1.91-3.51-.9,1.09-.75.93-1.93,1-3,2.24-2.59,2.39-5.87,2.92-9l1-3c3.16-6.86,4-14.33,5.73-21.57.23-1,.6-2.22-.33-2.77-1.32-.79-2.22.5-2.77,1.41-2.2,3.63-5.56,6.17-8.41,9.18-2.21,2.35-2.14.35-2.21-1.26l.07-3c1.66-1.8.66-4,.92-6,0-1.32.06-2.65.1-4,1.51-1.45.71-3.33.92-5l0-2a5.94,5.94,0,0,0,.87-1.72c1.72-12.45,3.54-24.89,5-37.38.66-5.65,2.86-11.18,1.75-18l-8.38,10.38c-.13-2.53-.27-3.95-.25-5.37.54-32.95-.87-65.9.78-98.86.57-11.43,1.45-22.88,1.37-34.36,0-4.75.64-9.58,1-14.37,1.12-13.35,2.5-26.69,3.8-40,1-10.71,1.92-21.44,3.2-32.12,2.12-17.57,4.62-35.09,6.74-52.65,2.69-22.17,5.19-44.36,9.13-66.35,4.7-26.17,11.55-51.73,23-75.9,3.87-8.2,10.3-12,19.69-10.77,1.63.21,2.54-.06,3.26-1.4,4.78-1.5,9.58-3.14,14.32.09,1.2.82,3.18,1.75,2.26,3.34-1.1,1.92-2.59.11-3.75-.6a8.78,8.78,0,0,0-5.71-1.42c-1.52.21-4,0-4,2s-.61,4.81,2.59,5.74a11.31,11.31,0,0,1,5.66,3.93c.77,1,1.43,2.11.18,3-1,.75-1.82-.21-2.47-1-1.47-1.67-3.17-3.1-5.43-3.26s-3.5,1.84-4.93,3,.91,2,1.37,3.07,1.34,2.3,1.78,3.54a2,2,0,0,1-.65,1.71c-.81.67-1.51.12-2-.64-.09-.14-.15-.31-.25-.44-5.09-6.46-7.9-6.37-12.78.58-4.31,6.15-5.69,13.42-7.51,20.51C218.6,87.2,213.51,117,213.68,147.53a197.53,197.53,0,0,0,1.29,20c9.27-34.41,24.11-66,46.28-95.29,2.16,12.86,4.32,24.72,6.07,36.63.56,3.82,1.95,5,5.78,4.72,9.83-.75,19.66,0,29.43,1.2,2.45.3,3.47-.14,4.26-2.61,3.91-12.2,11.19-22.58,18.59-34,5.54,24.81,6.43,49.3,8.94,73.75.91-5,1.61-10,2.75-14.94,6.88-29.59,17-58.11,28.63-86.13a97,97,0,0,1,15.94-26.43c6.59-7.65,10.78-8.28,19.62-3.34,1.08.6,2.55.51,3.83.78,2.84.6,5.4,1.7,7.19,4.12.67.9.84,1.91-.12,2.66s-1.49-.11-2.13-.63a11.34,11.34,0,0,0-2.74-2.12c-1.53-.59-3.77-2.14-4.66.15-.61,1.57-1.79,4.12,1.08,5.65,2.55,1.35,4.18,3.77,5.75,6.14.61.91,1,1.82,0,2.62s-1.81,0-2.46-.78c-1.3-1.51-2.51-3.1-3.88-4.54-.81-.86-1.86-1.59-2.88-.13-.71,1-1.91,1.87-.45,3.32a13,13,0,0,1,3.62,6.45c.25,1.09.67,2.52-1,2.87-1.19.24-1.58-.81-1.91-1.82-.94-2.9-2.18-6.51-5.32-6.56-3.75-.07-5.94,3.47-7.23,6.78-5.59,14.31-9,29.26-12.37,44.18-8.75,38.36-14.1,77.29-19.18,116.26a798.44,798.44,0,0,0-5.77,131.68c1,27.46,3.46,54.86,5.13,82.3a541.23,541.23,0,0,1-1.5,85.88c-2.84,28.83-6.52,57.54-13.59,85.75-6.36,25.38-16.54,49.15-28.58,72.23-5.41,10.37-9.33,21.33-13.13,32.35-.88,2.57-1.33,4.33,2.31,5.57,4.65,1.58,6.27,6.13,7.36,10.61.23.94.43,2.13-.95,2.39s-1.71-.79-2-1.77c-.79-2.74-1.65-5.49-3.94-7.36-1.21-1-2.74-2.59-4.33-1.11-1.43,1.33-.79,2.93.54,4.36a10.32,10.32,0,0,1,2.78,7.79c-.06,1.25.22,3-1.68,3-1.55,0-1.39-1.56-1.38-2.72a7,7,0,0,0-1.41-4.9c-3,2-5.84,3.88-4.66,8.3.25.92.28,2.57-1.56,2.46s-1.4-1.52-1.43-2.63c-.06-2.16.11-4.36-1.07-6.32l-1.23-.76,0,0c-2.12-10.68.81-21,2.19-31.46,1.76-13.27,3.34-26.57,5.06-39.85,1.09-8.38,1.29-16.86,2.24-25.22,1.29-11.29.18-22.5.87-34.69Zm9.67-411a58.34,58.34,0,0,0,3.11-6.23c2.23-6.18,1.24-7.33-5.27-7.1-3.46.12-4.84,1.62-4.31,5,.36,2.3.69,4.61,1,6.91q-6.13,10-12.27,20c-1.05,1.7-2.08,3.41-2.08,5.51,0,10.32-.09,20.64.12,31,.08,4,2.14,7.17,6.25,8s6.09-2.12,7.62-5.18C290.63,224.54,295.58,205.55,287.21,185.25Zm-10.5-33.19c.29-8.41-3.12-10.62-9.13-7.89a12.13,12.13,0,0,0-5,4,33.72,33.72,0,0,0-6.18,22c.21,3.8,2.5,5.08,5.66,2.93C270.19,167.57,276,160.4,276.71,152.06Zm36.11,14.3c-.26-6.44-1-12.18-3.19-17.66-1.19-3-2.7-6.27-6.48-5.82-4.11.48-6.28,3.6-6.57,7.66a26.93,26.93,0,0,0,5.67,19.12c2.1,2.67,4.67,6.6,8.22,5.42C314.54,173.73,312.24,169,312.82,166.36Zm-54.6,28.95a6.09,6.09,0,0,0-1.4-1.17c-6.71-2.87-13.43-5.69-20.16-8.51-.85-.36-1.7-.28-2,.7-.42,1.19.27,1.83,1.31,2.26q9.89,4.11,19.74,8.26C257.11,197.46,257.8,196.89,258.22,195.31Zm61.36-2.88c-5,1.12-10.13,2.25-15.28,3.46-.93.22-2.12.58-1.79,1.9.28,1.15,1.21,1.31,2.35,1.05,5.17-1.19,10.35-2.31,15.52-3.45,1-.22,2.05-.66,1.83-1.86S320.83,192.3,319.58,192.43Zm-77,12.84v-.37c-2.48,0-5,0-7.43,0-.83,0-1.69.25-1.78,1.31s.72,1.47,1.55,1.51c5,.21,9.9.36,14.85.5a1.5,1.5,0,0,0,1.73-1.37c.07-1.29-.9-1.6-2-1.6Zm70.54,2.13v-.14c-2.31-.18-4.62-.34-6.93-.54-1.1-.09-2.16.27-2.34,1.29-.22,1.25.91,1.59,2,1.65,4.63.27,9.26.51,13.89.77,1.12.06,2.1-.27,2-1.51s-1.06-1.53-2.16-1.52Zm-73,16.46c4.64-2.08,9.15-4.08,13.63-6.15a1.15,1.15,0,0,0,.43-1.7,2,2,0,0,0-1.68-.65c-4.56,1.89-9.08,3.86-13.59,5.87a1.13,1.13,0,0,0-.4,1.71A5.24,5.24,0,0,0,240.11,223.86Zm63.57-4.4c-.92-.13-1.72,0-2,1s.31,1.55,1.13,1.89c3.52,1.41,7,2.81,10.56,4.19a1.52,1.52,0,0,0,2.13-.6,1.38,1.38,0,0,0-.85-2C311,222.39,307.33,220.93,303.68,219.46Z"/><path class="cls-2" d="M595.6,713.49a59.72,59.72,0,0,1,0,7.45c-.84,6.85-7.6,10.18-13.24,6.33-2.25-1.54-3-2-4.72.68-4.14,6.39-11.22,5.86-15.12-.87-.86-1.49-.89-3.48-3.74-1.78-3.94,2.36-8.39,4.88-12.82.91s-3-8.67-1.6-13.38a7.78,7.78,0,0,0,.2-1.46c3.93-1.93,5-5.32,5-9.4,0-14,0-28,0-42,0-3.83.12-7.67-.2-11.48-1.18-13.84-2.51-27.66-3.81-41.49-.47-5-1-10.09-1.52-15.13a22.72,22.72,0,0,0-3.33,7.56c-.26.89.06,2.24-1.26,2.39-1.16.13-1.45-1.13-2.1-1.84-3.83-4.21-6.41-9.26-9.46-14-.61-.93-.93-2.49-2.37-2.07s-.93,2-.91,3c.07,5.4,0,10.75-2.75,15.93-3.56-3.06-4.88-7.64-9.31-10.6.39,6.6.5,12.38,1.12,18.1,2.17,20,3.67,40.16,6.87,60.09,2.1,13.07,4.11,26.14,8,38.83.46,1.93,1,3.85,1.34,5.79.88,4.77-.64,8.63-5,10.92-5,2.66-8.84,0-12.5-3.52-3.06,5.17-6.53,10.06-13.43,8.68-5.81-1.16-7.64-5.75-7.52-11.3-12.87,5-18.84,3.06-19-6,1.51-6.09,6.31-9.66,10.79-13.22,2.79-2.22,3.83-4.16,2.74-7.57-2.75-8.52-5.22-17.14-7.93-25.68-5.36-16.92-12.72-33.11-18.15-50-4.34-13.52-5.08-28.09-12.16-40.79-2-3.55-2.12-7.72-3.31-11.63a27.82,27.82,0,0,0-2.64,6.09c-2.15,7.09-3.26,14.49-6.33,21.32-1.61-4.45-1.4-9.17-1.75-13.75-2.26-29.34-.05-58.52,3.71-87.63,2.35-18.14,4.43-36.32,7-54.42,2-14,6.08-27.61,10.15-41.15,1-3.25,1.88-5.58-3-5-2.95.37-2.94-1.24-1.94-3.36,2.1-4.44,6.17-7.28,9.68-11.53-5.4.24-10.07,1.47-14.76.77-.68-1.65.53-2.55,1.23-3.59,3.18-4.69,6.43-9.32,9.53-14.06.68-1.05,2.25-2.12,1.61-3.4-.79-1.56-2.69-.65-4.1-.87-2.38-.38-5.72,1.05-6.88-1.51-1-2.19,2-3.83,3.22-5.75a4.62,4.62,0,0,1,.62-.78c11.65-12.22,16.25-25.53,10.3-42.63a91,91,0,0,1-4.56-33.49c.08-1.76-.43-4,1.7-4.81,1.89-.75,3,1,4.16,2.14q12.92,12.87,25.75,25.8c.24.23.45.49.69.72,10.91,10.64,10.87,10.23,26.08,8.64,12.42-1.3,25.14-2,37.34.91,15,3.54,29.39,1.27,43.92-1.7,9.77-2,19.49-4.27,29.47-5.08,1.47-.12,3.14-.81,4.15.69s-.55,2.79-1.33,3.92a96,96,0,0,1-30.3,27.8c-3.79,2.28-3.54,3.74-.74,6.51,3.89,3.85,7.42,8.07,11.15,12.09,2.14,2.29,2.59,3.83-1.28,4.5-2.26.39-5.62.65-6.23,2.49-.78,2.36,2.76,3.2,4.29,4.82,3.14,3.32,6.62,6.32,10.61,10.06a82.89,82.89,0,0,0-9.16,1c-2.89.65-4.11,2.23-2.48,5.47,2.48,4.94,5.63,9.43,8.5,14.11,1,1.68,2.26,3.3,2.43,5.67l-4.82.71c6,14.14,11.62,28.16,18.53,41.58a891.15,891.15,0,0,1,39.37,86.83c5.55,14.35,10,29.13,15.1,44.28-3.25-1.12-5.17-4.58-8.92-2.42a102.77,102.77,0,0,1,9.3,28.18c1.78,10.85,3.42,21.71,2,32.74-.44,3.36.58,3.94,4.08,3.91,24.3-.2,48.73-.64,71.88,8.5,9.2,3.63,17.51,8.89,23.5,17.13.47.66,1.16,1.22.81,2.49-7.12-1.57-14.3-3.86-22.37-1.1,22.88,5.56,38.17,18.69,46.43,41.35-6.1-2.52-11.11-4.67-17-4.89,14.6,18,13.57,38.3,10.26,59-2.17-4.28-3.5-8.88-7.42-13.45,0,23.46-9.1,41.48-27.32,54.56-12.25,8.8-26.17,12-41.14,10.77a62,62,0,0,1-.9-17.35c.78-11.62,2.6-22.89,8.62-33.35,4.12-7.15,7.29-14.86,12-21.71,1.68-2.43,1-3.54-2-3.49-4,.07-7.34,1.92-10.78,3.57-1,.48-2.16,1.63-3.19.85-1.25-.94-.46-2.4-.1-3.68,3.06-10.66,7.41-20.61,15.63-28.43,2.23-2.12,4.31-4.42,3.65-7.76-.92-4.71-1.88-9.45-4-13.82-5.21-10.69-14-17.18-24.52-22.22-10.19-4.89-21-7.28-31.88-9.33-6.22-1.18-7.38-.56-8.72,5.53-1.26,5.68-4.35,10.3-7.2,15.13-2,3.41-5.3,6-6.49,9.92-4.75,5.5-9,11.46-14.63,16.16-2.58,2.16-3.51,5.06-3.32,8.45.17,2.95.46,5.93-.95,8.79-2,4-5.76,6-9.82,4.39-2.29-.89-3.47-1.2-5.13,1.22-2.3,3.35-8.26,3.45-12.09.47-1.45-1.12-2.19-1.78-4.11-.62-5.95,3.6-7.88,3.12-13.2-2.41.28-.55.85-1.14.79-1.66-.76-7.59.12-9.31,6.64-12.61,2.08-1,4.18-2.06,6.25-3.14,6.2-3.23,7.83-6.68,4.8-12.89a28.79,28.79,0,0,1-1.4-23.15c1.63-4.69,3.17-9.41,4.81-14.29-2-.08-2.58,1.15-3.5,1.78-1.68,1.15-3.94,2.77-5.42,1.85-2.08-1.31,0-3.65.52-5.37,3-9.67,6.77-19,13.72-26.58-1.61-1.46-2.65-.59-3.73-.4-1.79.33-4.17,1.07-5.22-.26s.38-3.44,1.24-5c3.19-5.83,5.94-12,9.88-17.29,3.3-4.42,5.2-10.74,11-12.47,5-1.51,4.06-3.68,2.29-6.78A97.22,97.22,0,0,0,631,558.47c-2-2.05-4-6.23-6.54-5.14s-.7,5.42-.92,8.32c-.46,6,1.22,12.3-2.3,18-3.9-2.85-5.5-7.49-9.21-10.91-2.08,6.16-1.55,12.34-3.26,18.67-3.8-4.87-4.42-1.54-5.14,1.42a6.3,6.3,0,0,0-.1,2c1.38,21.46-4.91,42-7.61,63-2,15.56-6.06,30.88-10.69,46-.47,1.51-1,2.78.74,3.87C590,706.1,592.8,709.81,595.6,713.49Zm-68.11-336a18.63,18.63,0,0,1-5.1,4.67c-1,.67-3.13,1-2.33,2.6.9,1.79,2.94.78,3.8-.2,4.19-4.74,7.9-4.28,11.47.63.18.24.57.34.83.54.84.62,1.89,1.19,2.66.29,1.16-1.37-.31-2.05-1.14-2.68a31.44,31.44,0,0,1-5.95-6,28.8,28.8,0,0,0,6.62-9.17c.91-2.17,1.61-4.32-1.1-6.06-3.74-2.41-12.28-2.36-15.63.24-2.28,1.77-2.23,3.89-1.08,6.16a25.12,25.12,0,0,0,2.63,4.18C524.5,374.36,526,375.88,527.49,377.46Zm37.11-41.07c-5.76,1.19-11.55-2.46-17.31.08a.68.68,0,0,1-.78-.38c-1.56-2.57-3.21-2.44-4.93-.17-4.68.9-3.18,3.77-2.07,6.51-1,6.79,11.51,13.55,17.56,12.74,1-.13,2.06-.51,2-1.78-.08-1.1-1.23-.79-1.91-1.13-2.79-1.37-7,.45-8.55-3.68,6.89,1.95,13.42,1.27,19.37-2.88,2.56-1.79,6-3.95,5.12-7.17s-4.84-1.64-7.48-2.1A8.11,8.11,0,0,0,564.6,336.39Zm-70.74-.88c-1.25.81-2.58.25-3.88.25-4.54,0-5.63,1.9-3.29,5.9a15.38,15.38,0,0,0,2.89,3.4c5.73,5.23,12.52,5.5,19.66,4.09,1.07,1,.12,1.3-.6,1.66-3.89,1.9-8,1.85-12.17,1.36-1.27-.15-3-1.12-3.31.74s1.77,2.19,3.12,2.31c5.32.44,10.67.53,15.41-2.53,3.15-2,6.74-3.82,6.81-8.4.78-2.21,3.93-4.05,2.53-6.38-1.29-2.13-4.46-1.37-6.87-1.49-.81,0-1.63,0-2.44,0C505.72,337,499.87,334.74,493.86,335.51Zm127.82-33.82c-14.91,5.71-28.66,14.52-45.8,13.63,6.16,8.44,14.4,11.82,21.36,8.58C607.53,319.1,615.1,311,621.68,301.69Zm-134.29,8.22c-11.44-8.64-18.44-20.55-26.19-32-.08,12.16,1.5,23.76,8.45,34a5.75,5.75,0,0,0,5.11,2.52A20.08,20.08,0,0,0,487.39,309.91Zm16,59.47c-3.42.05-15.85,3.91-18.41,5.7-.81.57-1.87,1.09-1.24,2.29s1.63.7,2.56.26a61.29,61.29,0,0,1,17.49-5.38c1.11-.16,2.54-.36,2.14-2C505.65,369,504.37,369.4,503.42,369.38Zm56.28.61a10.58,10.58,0,0,0-1.49,0c-1.36.2-3.53-.52-3.48,1.68,0,1.87,2,1.24,3.2,1.24a29.55,29.55,0,0,1,14.36,3.69c1.12.61,2.54,1.78,3.45.16.73-1.31-.86-1.94-1.82-2.5A30.6,30.6,0,0,0,559.7,370Zm-68.16-3.78v.19c3.13,0,6.27,0,9.4,0,1,0,2.17-.07,2.24-1.34.06-.91-.86-1.4-1.7-1.44a96,96,0,0,0-19.76.51c-.89.13-1.67.57-1.5,1.56s1,1.18,1.93,1.12C485.29,366.62,488.41,366.41,491.54,366.21Zm72.27-3.12c-2.47.16-4.95.24-7.4.52-1.07.12-2.68.18-2.65,1.64,0,1.69,1.63,1.26,2.7,1.18,5.77-.43,11.54-.72,17.24.72,1,.25,2.18.13,2.35-1.1s-.93-1.49-1.92-1.77A43.7,43.7,0,0,0,563.81,363.09Zm6.8,22.93a3.78,3.78,0,0,0-.61-1.26,31.57,31.57,0,0,0-16.62-8.27c-.86-.14-1.74.08-1.83,1.13s.62,1.49,1.49,1.66a32.52,32.52,0,0,1,15,7.41C569,387.55,570.07,387.81,570.61,386Zm-62.21-8.75c-.21-1.36-1.32-1.31-2.24-1a36.14,36.14,0,0,0-13.92,8.41c-.62.58-1.07,1.38-.35,2.17.95,1,1.83.29,2.57-.35A41.78,41.78,0,0,1,506.69,379C507.42,378.67,508.25,378.34,508.4,377.27Z"/><path class="cls-3" d="M441.12,171.53c15,4.38,29.77,3.06,44.56-.17a25.79,25.79,0,0,0,2.85-.83c7.08-2.49,7.16-2.82,4.53-9.58-11.45-29.47-9.44-58.72,2.23-87.52C511,34.54,540.63,12.78,581.15,4.26,601.61,0,622-2,642.46,2.87c41.18,9.85,65.32,36.36,73.93,77.39,5.21,24.85,5.12,49.6-6.41,72.72-22.14,44.41-57.36,69.84-108,71.26-19.68.55-38.94-1.85-56.8-10.87-11.35-5.74-21.68-13-30.16-22.6-1.47-1.66-2.65-1.22-4.32-1.09-17.83,1.36-35.62,2-52.55-5.43C451.53,181.37,445.5,177.68,441.12,171.53Zm126.49-51.6a54,54,0,0,0,2-5c2.57-9.07-3.81-21-13.74-25.75-8.78-4.22-18.12-1.23-24.42,7.53-1.35,1.87-.57,3.06.22,4.49,13.95,25.36,26.57,51.45,41.61,76.22,3.7,6.1,4.25,6.32,10.27,2.78a27.15,27.15,0,0,0,2.87-2c16.86-13.17,15.33-39.94-3.05-53.58C578.88,121.22,573.93,119.16,567.61,119.93Zm64.19,13.23c-1.27-19-8.27-35.77-19.78-50.76-5.85-7.61-12.79-14.1-21.76-17.88-7.79-3.28-13.49.11-15,8.39a19.94,19.94,0,0,0-.14,6.45c3.56,23.88,15.36,43.67,30.81,61.56A26.21,26.21,0,0,0,619.51,149c6.39,1.65,9.65-.48,11.36-6.89C631.66,139.17,631.5,136.2,631.8,133.16Zm37.68-25.89C668.18,86.2,659,67.42,642.83,51.91c-4.32-4.16-8.94-8-14.85-9.81-5-1.51-8.47.06-10.42,4.85A25.75,25.75,0,0,0,616,61.15,112,112,0,0,0,638.87,113c4,5.08,8.46,9.9,14.29,13,7,3.78,12.36,1.55,14.69-6C669,116.34,669.33,112.54,669.48,107.27ZM503,119.85c0-2.84-.06-5,0-7.13.05-1.48-.12-2.61-2-2.67-1.68,0-2.37.72-2.35,2.37.06,4.45-.2,8.9.56,13.33.25,1.46.5,2.57,2.38,2.25s1.88-1.51,1.76-2.93C503.25,123.1,503.13,121.12,503,119.85Zm115.08-104v-.16c2.15.15,4.3.28,6.45.47,1.54.13,2.56-.23,2.72-2,.14-1.57-.77-2.16-2-2.2q-6.94-.27-13.9-.33c-1.4,0-2,.87-1.94,2.3s.84,2,2.24,2C613.81,15.83,616,15.87,618.12,15.87Zm57.67,17.5c-.47.71-.89,1.41-1.39,2.07-1.07,1.43.18,2,1,2.81,2.93,2.89,5.92,5.73,8.77,8.69,1.15,1.19,2,2.14,3.58.6s.6-2.32-.34-3.28q-4.71-4.73-9.48-9.4A19.26,19.26,0,0,0,675.79,33.37ZM591.52,214.26c2.39,0,3.72,0,5.05,0s2.22-.34,2.22-1.93-.57-2.32-2.33-2.36c-4.32-.09-8.64-.36-13-.67-1.67-.11-2.51.51-2.62,2.15s1,1.84,2.26,2C586.29,213.72,589.42,214.05,591.52,214.26ZM558.9,28.07c-.65-1.44-.89-3.4-3.39-1.95-3.87,2.26-7.83,4.36-11.74,6.56-1.31.73-2,1.61-.94,3.19s2,1.12,3.31.37c3.58-2.1,7.24-4.08,10.83-6.16C557.75,29.62,559,29.47,558.9,28.07Zm-48.09,48.7c.05-.64-1-.94-1.9-1.28a1.64,1.64,0,0,0-2.3,1.22c-1.54,4.57-3,9.15-4.57,13.72-.41,1.23.12,1.83,1.23,2.24s2.09.69,2.52-.56C507.46,87.24,509,82.33,510.81,76.77ZM705.16,132.9c0-.43-.71-1-1.72-1.3A1.82,1.82,0,0,0,700.8,133c-1.36,4.42-2.76,8.83-4.17,13.23-.47,1.46.3,2.09,1.51,2.6a1.53,1.53,0,0,0,2.33-.95A88.39,88.39,0,0,0,705.16,132.9Zm-86.45,78.92,13.35-3.92c1.32-.39,2-1.14,1.47-2.58-.41-1.24-.88-2-2.49-1.5-4.44,1.33-8.95,2.48-13.42,3.7-1.35.37-1.84,1.09-1.43,2.57S617.2,212.11,618.71,211.82ZM704.22,77c-1.15-4.84-2.28-9.68-4.47-14.19-.52-1.06-1.2-1.54-2.35-.88s-2.22,1-1.47,2.58c2,4.22,3.05,8.76,4.19,13.26.39,1.49,1.37,1.69,2.66,1.38A1.63,1.63,0,0,0,704.22,77ZM564.5,205.74c-.23-.36-.4-1-.76-1.13-4.64-2.2-9.28-4.38-14-6.45-1.26-.56-1.63.81-2.15,1.57-.77,1.1-.14,1.89.85,2.36,4.34,2,8.67,4.12,13.07,6C563.63,209,564,207.24,564.5,205.74ZM661.2,23.92a1.43,1.43,0,0,0-.88-1.6,75.93,75.93,0,0,0-13.68-6c-1-.34-1.93-.31-2.27,1.07-.29,1.16-.85,2.31.81,2.84A73.37,73.37,0,0,1,658,25.8C660.22,27,660.37,24.92,661.2,23.92Zm27.22,139.42c-.37.15-.94.2-1.21.51-3.35,3.89-6.72,7.78-9.94,11.78-.82,1,.44,1.74,1.08,2.42.92,1,1.71.63,2.47-.28,3.07-3.69,6.23-7.32,9.23-11.07C691.54,164.84,689.86,164.14,688.42,163.34ZM592,16c0-1.45-1.21-1.85-3-1.37l-12.42,3.31c-1.36.37-2.58.79-2,2.65.5,1.63,1.43,1.92,3,1.46,4.11-1.19,8.27-2.23,12.41-3.33C591.15,18.41,592.45,18.31,592,16ZM665.65,190.4c-.58-.79-1-1.48-1.52-2.08-.9-1-1.73-.35-2.58.17-3.66,2.25-7.31,4.54-11,6.7-1.33.77-2.11,1.37-1.15,3s2,1.35,3.28.58c3.82-2.32,7.65-4.61,11.45-7A12.28,12.28,0,0,0,665.65,190.4ZM513,159.64q-2.75-6.93-5.48-13.87c-.5-1.26-1.3-1.14-2.39-.75-1.39.49-1.9,1.32-1.36,2.63,1.83,4.45,3.71,8.88,5.59,13.3a1.43,1.43,0,0,0,2.37.74C512.53,161.18,513.64,160.91,513,159.64Zm5.87-98.49c.38-.17.92-.25,1.2-.56,3.28-3.75,6.52-7.53,9.76-11.31.9-1.06.19-1.79-.53-2.53s-1.53-1.48-2.46-.4c-3.26,3.76-6.55,7.52-9.67,11.39C515.61,59.65,517.63,60.22,518.85,61.15Zm3.88,114a14.75,14.75,0,0,0-2,1.75c-.86,1.07,0,1.86.68,2.55,2.94,3.14,5.89,6.25,8.9,9.31.87.88,1.75,2.14,3.26.65s.82-2.45-.39-3.67c-2.92-2.91-5.71-6-8.57-8.94C524.07,176.29,523.44,175.82,522.73,175.2Zm185-69.37h-.16v-7c0-1.49-.35-2.57-2.22-2.47-1.58.09-1.88,1-1.86,2.31.06,4.46.12,8.93.15,13.4,0,1.35.47,2.14,2,2.2s2.09-.66,2.1-2C707.7,110.13,707.69,108,707.69,105.83Z"/><path class="cls-4" d="M176.62,590.38c-1,9.25-3.81,18.13-5.75,27.18a133.84,133.84,0,0,0-3.22,24.56c-.39,14.74-.09,29.5-.14,44.24,0,8.06,2.78,15.64,3.82,23.41.83,6.2,6.9,8.94,7.1,14.82-11.4-2.25-22-15.2-23.77-29.08-1.12-8.73-2.53-17.43-2.38-27.08-4.14,2.75-7,6.1-10.6,9.58a224.33,224.33,0,0,1,1.63-39.69l-8.81,7.09c-1.45-1.88-.83-3.77-.84-5.48q-.28-45.49-.43-91c0-5.65-.19-11.31-.06-17,.05-2.15-1-2.86-2.68-3.54-3.71-1.48-7.33-3.17-11-4.73C105,517.56,93.92,507.86,87,493.44c-5-10.31-12.43-18.84-21.34-26.69,7.75-3.31,15.53-2.36,24.11-2.47A116.09,116.09,0,0,0,53,437.72a84.41,84.41,0,0,0-8.33-3.38c-2.84-1-2.33-2.21-.62-3.78a23.64,23.64,0,0,1,17.87-6.3c-.4-2.14-2.08-2.81-3.26-3.84-12.15-10.65-24.28-21.32-36.59-31.8-2.89-2.46-3.13-4-.07-6.44,7.29-5.85,14.89-11.08,24.26-14.18-9.32-6.87-14.62-16.76-22.83-25.1l16.81-1.52C27.76,318,12.15,296.25,0,271.31c10.13,3.73,18.69,8.88,28.28,11.34l.61.18-.23-.56c.19-11.84-3.75-23-5.57-34.55-.17-1.12-.22-2.27-.33-3.4,1.51.14,2.25,1.14,2.94,2.37,4.52,8,10.52,14.84,16.36,21.86,7.74,9.28,15.2,18.77,21,29.52a234.68,234.68,0,0,1,12,25.17c.42,1.06.79,2.5,2,2.65,1.72.21,2-1.55,2.46-2.67,2.24-5.29,4.36-10.63,6.63-16.22,6.72,13.35,10.3,27.43,13.52,41.67.5,2.19-.49,5.7,2.47,6.43,2.74.69,4.66-2,6.72-3.64a4.63,4.63,0,0,0,1-1.07c2.7-4.27,4.33-2.32,6.08.88a131.64,131.64,0,0,1,11.57,29.56,45.06,45.06,0,0,0,3.78,9.21c.84,1.62,2.13,2.89,3.81,2.83,2.12-.07,1.7-2.42,1.75-3.58.44-9.38,2.83-18.73.78-28.18,2.81-.92,1.49-3.37,1.65-5.05,2.42-25.8,5-51.58,9.6-77.1,3.27,4.61.38,10.17,2.29,15,.1.25-.4.86-.75,1.15-2.89,2.43-2.47,5.58-2.32,8.87.44,9.77,3.48,19.13,4.26,28.81.76,9.33.38,18.54,2.57,28,2.39,10.4,2.88,21.69,3,32.4.29,20,3.39,39.75,2.5,59.72-.08,2-.42,4.08.75,5.86,2.33,3.56,2.36,7.51,2.26,11.54a51.61,51.61,0,0,0,.31,7.46c1.07,8.7,2.55,17.33,2.76,26.15.14,5.76-1.84,11.39-.3,17.29.63,2.39,2.2,4.36,2.25,7,.32,14.34-1.75,28.86,2.95,42.9,1.59,4.74-.25,9.49,0,14.25C171.67,588.77,172.85,590.81,176.62,590.38Z"/><path class="cls-5" d="M176.62,590.38c-3.77.43-5-1.61-5.11-5-.22-4.76,1.62-9.51,0-14.25-4.7-14-2.63-28.56-2.95-42.9-.05-2.63-1.62-4.6-2.25-7-1.54-5.9.44-11.53.3-17.29-.21-8.82-1.69-17.45-2.76-26.15a51.61,51.61,0,0,1-.31-7.46c.1-4,.07-8-2.26-11.54-1.17-1.78-.83-3.89-.75-5.86.89-20-2.21-39.77-2.5-59.72-.16-10.71-.65-22-3-32.4-2.19-9.47-1.81-18.68-2.57-28-.78-9.68-3.82-19-4.26-28.81-.15-3.29-.57-6.44,2.32-8.87.35-.29.85-.9.75-1.15-1.91-4.84,1-10.4-2.29-15l.09,0a5.52,5.52,0,0,0,5.24-7.29c-.86-3.13-.31-5.13,1.8-7.54,2.77-3.17,3.17-7.1,1.59-11.69-1.89,2.53-.65,4.82-1.56,7.39-.8-2-.83-4.38-3.35-4.44a9.63,9.63,0,0,1,1.44-5.82c.4.69.68,2.75,1.36,1.69,1.87-2.93,4.64-6.09,1.77-10.38-2,2.82-.88,6.39-3.14,8.7-.11-7.25,1.79-14.19,3.32-21.19,1.06-.14,1.87-.49,1.88-1.78,0-3.08.08-6.16.12-9.24,2.72-18.43,6.84-36.58,11-54.71,9.71-42.22,22.24-83.52,40.18-123,2.9-6.38,6-12.61,10.57-18,3.93-4.71,8.63-8.34,14.73-9.7,4.17-.92,8.25-.86,11.51,2.57-.72,1.34-1.63,1.61-3.26,1.4-9.39-1.21-15.82,2.57-19.69,10.77-11.41,24.17-18.26,49.73-23,75.9-3.94,22-6.44,44.18-9.13,66.35-2.12,17.56-4.62,35.08-6.74,52.65-1.28,10.68-2.16,21.41-3.2,32.12-1.3,13.33-2.68,26.67-3.8,40-.4,4.79-1.07,9.62-1,14.37.08,11.48-.8,22.93-1.37,34.36-1.65,33-.24,65.91-.78,98.86,0,1.42.12,2.84.25,5.37l8.38-10.38c1.11,6.86-1.09,12.39-1.75,18-1.44,12.49-3.26,24.93-5,37.38a5.94,5.94,0,0,1-.87,1.72c-.73.14-1.72.12-1.5,1.2.07.35,1,.53,1.47.79-.21,1.7.59,3.58-.93,5-1.06.09-1.89.47-2,1.69a1.87,1.87,0,0,0,1.9,2.28c-.26,2,.74,4.22-.92,6-1,.13-2,.35-1.86,1.69.11,1,1,1.15,1.79,1.29.07,1.61,0,3.61,2.21,1.26,2.85-3,6.21-5.55,8.41-9.18.55-.91,1.45-2.2,2.77-1.41.93.55.56,1.79.33,2.77-1.72,7.24-2.57,14.71-5.73,21.57-1.17.09-2.32.37-2.56,1.68-.2,1.1.81,1.16,1.58,1.31-.53,3.15-.68,6.43-2.92,9-1.19.71-2.85,1.26-1,3,.52,2.81,2.07,2,3.51.9a9.67,9.67,0,0,1,6.41-2,1.91,1.91,0,0,0,2,2.06l-7,25c-1.17.09-2.32.37-2.55,1.69-.2,1.09.81,1.15,1.58,1.3C179.66,578.31,179.75,584.79,176.62,590.38Z"/><path class="cls-6" d="M666.59,680.1c1.19-3.94,4.49-6.51,6.49-9.92,2.85-4.83,5.94-9.45,7.2-15.13,1.34-6.09,2.5-6.71,8.72-5.53,10.92,2.05,21.69,4.44,31.88,9.33,10.5,5,19.31,11.53,24.52,22.22,2.13,4.37,3.09,9.11,4,13.82.66,3.34-1.42,5.64-3.65,7.76-8.22,7.82-12.57,17.77-15.63,28.43-.36,1.28-1.15,2.74.1,3.68,1,.78,2.17-.37,3.19-.85,3.44-1.65,6.78-3.5,10.78-3.57,3-.05,3.73,1.06,2,3.49-4.73,6.85-7.9,14.56-12,21.71-6,10.46-7.84,21.73-8.62,33.35a62,62,0,0,0,.9,17.35c-11.65.36-9.12,2.31-11.8-9.31a111.78,111.78,0,0,1-2.16-40.55c.5,0,.81-.11.39-.65-.13.21-.27.42-.4.64-4,3.19-6.32,8-10.42,11.76-2.5-4.85-3.08-9.86-3.53-14.87-1.11-12.27,1.84-23.74,7.15-34.7.68-.36,1.45-1.11.88-1.61s-1.19.39-1.58,1c-5.6,2.05-10.42,5.94-16.92,7.16,1.53-5.76,4.47-10.79,5.55-16.44,3.33-17.44-5-28-22.59-28.38C669.58,680.24,668.09,680.16,666.59,680.1Z"/><path class="cls-1" d="M137.72,361.11c2.05,9.45-.34,18.8-.78,28.18-.05,1.16.37,3.51-1.75,3.58-1.68.06-3-1.21-3.81-2.83a45.06,45.06,0,0,1-3.78-9.21A131.64,131.64,0,0,0,116,351.27c-1.75-3.2-3.38-5.15-6.08-.88a4.63,4.63,0,0,1-1,1.07c-2.06,1.61-4,4.33-6.72,3.64-3-.73-2-4.24-2.47-6.43-3.22-14.24-6.8-28.32-13.52-41.67-2.27,5.59-4.39,10.93-6.63,16.22-.47,1.12-.74,2.88-2.46,2.67-1.26-.15-1.63-1.59-2-2.65a234.68,234.68,0,0,0-12-25.17c-5.79-10.75-13.25-20.24-21-29.52-5.84-7-11.84-13.87-16.36-21.86-.69-1.23-1.43-2.23-2.94-2.37-2.63-9.73-7-19.11-5.74-30.27,11.9,13.18,24.45,25.24,33.21,41.36.92-5.23,1.72-9.73,2.68-15.19C63,253.82,69.91,268.2,76,284c6.13-12.42,9.88-24.87,13.25-38.91,5.38,18.51,8,36.39,12.59,55L113,281.45c.77,16.21,1.48,30.89,2.22,46.55,3.71-4,5.11-8.13,7.34-11.74C126.3,319.54,136.82,350.62,137.72,361.11Z"/><path class="cls-6" d="M595.6,713.49c-2.8-3.68-5.57-7.39-9.59-9.87-1.76-1.09-1.21-2.36-.74-3.87,4.63-15.08,8.7-30.4,10.69-46,2.7-21,9-41.56,7.61-63a6.3,6.3,0,0,1,.1-2c.72-3,1.34-6.29,5.14-1.42,1.71-6.33,1.18-12.51,3.26-18.67,3.71,3.42,5.31,8.06,9.21,10.91,3.52-5.65,1.84-11.94,2.3-18,.22-2.9-1.47-7.3.92-8.32s4.54,3.09,6.54,5.14A97.22,97.22,0,0,1,646,578.27c1.77,3.1,2.73,5.27-2.29,6.78-5.77,1.73-7.67,8.05-11,12.47-3.94,5.28-6.69,11.46-9.88,17.29-.86,1.58-2.35,3.62-1.24,5s3.43.59,5.22.26c1.08-.19,2.12-1.06,3.73.4-6.95,7.6-10.74,16.91-13.72,26.58-.53,1.72-2.6,4.06-.52,5.37,1.48.92,3.74-.7,5.42-1.85.92-.63,1.48-1.86,3.5-1.78-1.64,4.88-3.18,9.6-4.81,14.29a28.79,28.79,0,0,0,1.4,23.15c3,6.21,1.4,9.66-4.8,12.89-2.07,1.08-4.17,2.09-6.25,3.14-6.52,3.3-7.4,5-6.64,12.61.06.52-.51,1.11-.79,1.66Z"/><path class="cls-6" d="M528.54,709.36c-3.92-12.69-5.93-25.76-8-38.83-3.2-19.93-4.7-40-6.87-60.09-.62-5.72-.73-11.5-1.12-18.1,4.43,3,5.75,7.54,9.31,10.6,2.77-5.18,2.82-10.53,2.75-15.93,0-1.07-.54-2.62.91-3s1.76,1.14,2.37,2.07c3,4.73,5.63,9.78,9.46,14,.65.71.94,2,2.1,1.84,1.32-.15,1-1.5,1.26-2.39a22.72,22.72,0,0,1,3.33-7.56c.51,5,1,10.09,1.52,15.13,1.3,13.83,2.63,27.65,3.81,41.49.32,3.81.19,7.65.2,11.48,0,14,0,28,0,42,0,4.08-1.09,7.47-5,9.4C539.22,710.63,534,708.94,528.54,709.36Z"/><path class="cls-6" d="M435.47,592.41c3.07-6.83,4.18-14.23,6.33-21.32a27.82,27.82,0,0,1,2.64-6.09c1.19,3.91,1.34,8.08,3.31,11.63,7.08,12.7,7.82,27.27,12.16,40.79,5.43,16.92,12.79,33.11,18.15,50,2.71,8.54,5.18,17.16,7.93,25.68,1.09,3.41.05,5.35-2.74,7.57-4.48,3.56-9.28,7.13-10.79,13.22-5.78-4.77-5.94-11.3.16-15.22,2.83-1.81,2.62-2.67.87-5-21.76-28.51-32.72-61.29-37.84-96.34A43.47,43.47,0,0,1,435.47,592.41Z"/><path class="cls-5" d="M277.54,596.22l19.12-13.81c-.69,12.19.42,23.4-.87,34.69-1,8.36-1.15,16.84-2.24,25.22-1.72,13.28-3.3,26.58-5.06,39.85-1.38,10.45-4.31,20.78-2.19,31.46-7.44-3.06-9.71-9.6-10.71-16.66a99.32,99.32,0,0,1,1.53-35.13c.05-.37.09-.74.14-1.11l-1,.35c-7.16,1.29-7.24,1.27-5.49-6.09,1.91-8,4-16,6.16-24.53l-8.78,2.34c2.15-6.94,4.23-13.16,6-19.48C275.71,607.72,278,602.22,277.54,596.22Z"/><path class="cls-4" d="M152.78,255.37c2.52.06,2.55,2.41,3.35,4.44.91-2.57-.33-4.86,1.56-7.39,1.58,4.59,1.18,8.52-1.59,11.69-2.11,2.41-2.66,4.41-1.8,7.54a5.52,5.52,0,0,1-5.24,7.29c.13-.85.27-1.69.4-2.54,1-.57,1.16-1.22.21-2a94.15,94.15,0,0,1,2.77-16.26c.48,1.18-.69,3,2.19,4-1.17-2.21-.58-4.18-2-5.74Z"/><path class="cls-4" d="M154.21,249.56c2.26-2.31,1.17-5.88,3.14-8.7,2.87,4.29.1,7.45-1.77,10.38-.68,1.06-1-1-1.36-1.69Z"/><path class="cls-4" d="M159.53,217.35c0,3.08-.1,6.16-.12,9.24,0,1.29-.82,1.64-1.88,1.78A36.6,36.6,0,0,1,159.53,217.35Z"/><path class="cls-5" d="M152.66,256.41c1.39,1.56.8,3.53,2,5.74-2.88-1-1.71-2.82-2.19-4C152.51,257.57,152.58,257,152.66,256.41Z"/><path class="cls-5" d="M149.67,274.41c1,.77.77,1.42-.21,2Z"/><path class="cls-5" d="M286.32,713.59l1.23.76Z"/><path class="cls-6" d="M287.21,185.25c8.37,20.3,3.42,39.29-5.8,57.81-1.53,3.06-3.64,6-7.62,5.18s-6.17-4-6.25-8c-.21-10.32-.11-20.64-.12-31,0-2.1,1-3.81,2.08-5.51q6.15-10,12.27-20C283.21,185.71,284.93,186.53,287.21,185.25Z"/><path class="cls-7" d="M276.71,152.06c-.74,8.34-6.52,15.51-14.61,21-3.16,2.15-5.45.87-5.66-2.93a33.72,33.72,0,0,1,6.18-22,12.13,12.13,0,0,1,5-4C273.59,141.44,277,143.65,276.71,152.06Z"/><path class="cls-7" d="M312.82,166.36c-.58,2.64,1.72,7.37-2.35,8.72-3.55,1.18-6.12-2.75-8.22-5.42a26.93,26.93,0,0,1-5.67-19.12c.29-4.06,2.46-7.18,6.57-7.66,3.78-.45,5.29,2.79,6.48,5.82C311.78,154.18,312.56,159.92,312.82,166.36Z"/><path class="cls-8" d="M287.21,185.25c-2.28,1.28-4,.46-5.44-1.43-.34-2.3-.67-4.61-1-6.91-.53-3.37.85-4.87,4.31-5,6.51-.23,7.5.92,5.27,7.1A58.34,58.34,0,0,1,287.21,185.25Z"/><path class="cls-2" d="M258.22,195.31c-.42,1.58-1.11,2.15-2.56,1.54q-9.85-4.15-19.74-8.26c-1-.43-1.73-1.07-1.31-2.26.35-1,1.2-1.06,2-.7,6.73,2.82,13.45,5.64,20.16,8.51A6.09,6.09,0,0,1,258.22,195.31Z"/><path class="cls-2" d="M319.58,192.43c1.25-.13,2.41-.13,2.63,1.1s-.81,1.64-1.83,1.86c-5.17,1.14-10.35,2.26-15.52,3.45-1.14.26-2.07.1-2.35-1.05-.33-1.32.86-1.68,1.79-1.9C309.45,194.68,314.62,193.55,319.58,192.43Z"/><path class="cls-2" d="M242.61,205.27h6.94c1.08,0,2,.31,2,1.6a1.5,1.5,0,0,1-1.73,1.37c-5-.14-9.9-.29-14.85-.5-.83,0-1.65-.42-1.55-1.51s.95-1.29,1.78-1.31c2.47,0,4.95,0,7.43,0Z"/><path class="cls-2" d="M313.15,207.4h6.46c1.1,0,2.11.32,2.16,1.52s-.93,1.57-2,1.51c-4.63-.26-9.26-.5-13.89-.77-1.05-.06-2.18-.4-2-1.65.18-1,1.24-1.38,2.34-1.29,2.31.2,4.62.36,6.93.54Z"/><path class="cls-2" d="M240.11,223.86a5.24,5.24,0,0,1-1.61-.92,1.13,1.13,0,0,1,.4-1.71c4.51-2,9-4,13.59-5.87a2,2,0,0,1,1.68.65,1.15,1.15,0,0,1-.43,1.7C249.26,219.78,244.75,221.78,240.11,223.86Z"/><path class="cls-2" d="M303.68,219.46c3.65,1.47,7.33,2.93,11,4.47a1.38,1.38,0,0,1,.85,2,1.52,1.52,0,0,1-2.13.6c-3.53-1.38-7-2.78-10.56-4.19-.82-.34-1.42-.92-1.13-1.89S302.76,219.33,303.68,219.46Z"/><path class="cls-4" d="M189.51,544.36a1.91,1.91,0,0,1-2-2.06c.55-.8,1.22-2.08,2.18-1.44C191.16,541.84,189.24,543.15,189.51,544.36Z"/><path class="cls-4" d="M175.53,504.37a1.87,1.87,0,0,1-1.9-2.28c.1-1.22.93-1.6,2-1.69Z"/><path class="cls-4" d="M181.55,572.37c-.77-.15-1.78-.21-1.58-1.3.23-1.32,1.38-1.6,2.55-1.69C182.5,570.47,182.66,571.63,181.55,572.37Z"/><path class="cls-4" d="M181.55,531.37c-.77-.15-1.78-.21-1.58-1.31.24-1.31,1.39-1.59,2.56-1.68C182.2,529.38,181.87,530.38,181.55,531.37Z"/><path class="cls-4" d="M174.54,513.37c-.81-.14-1.68-.25-1.79-1.29-.14-1.34.83-1.56,1.86-1.69C174.58,511.38,174.56,512.38,174.54,513.37Z"/><path class="cls-4" d="M177.58,543.4c-1.8-1.75-.14-2.3,1-3C178.51,541.47,178.67,542.65,177.58,543.4Z"/><path class="cls-4" d="M176.55,495.37c-.51-.26-1.4-.44-1.47-.79-.22-1.08.77-1.06,1.5-1.2Z"/><path class="cls-6" d="M621.68,301.69c-6.58,9.33-14.15,17.41-24.44,22.21-7,3.24-15.2-.14-21.36-8.58C593,316.21,606.77,307.4,621.68,301.69Z"/><path class="cls-6" d="M487.39,309.91a20.08,20.08,0,0,1-12.63,4.51,5.75,5.75,0,0,1-5.11-2.52c-6.95-10.23-8.53-21.83-8.45-34C469,289.36,476,301.27,487.39,309.91Z"/><path class="cls-9" d="M509.24,349.15c-7.14,1.41-13.93,1.14-19.66-4.09a15.38,15.38,0,0,1-2.89-3.4c-2.34-4-1.25-5.9,3.29-5.9,1.3,0,2.63.56,3.88-.25a7.46,7.46,0,0,1,1.33,2c1.24,4.45,3.77,7.35,8.7,7s7-3.63,7.83-8.08c.81,0,1.63-.05,2.44,0,2.41.12,5.58-.64,6.87,1.49,1.4,2.33-1.75,4.17-2.53,6.38Z"/><path class="cls-9" d="M546.51,336.09a.68.68,0,0,0,.78.38c.5,4.72,3.06,7.59,7.81,8s7.32-1.83,9.5-8.11a8.11,8.11,0,0,1,1,0c2.64.46,6.64-1.05,7.48,2.1s-2.56,5.38-5.12,7.17c-6,4.15-12.48,4.83-19.37,2.88-3.35-1.57-6.68-3.17-9.07-6.15-1.11-2.74-2.61-5.61,2.07-6.51Z"/><path class="cls-8" d="M527.49,377.46c-1.45-1.58-3-3.1-4.32-4.77a25.12,25.12,0,0,1-2.63-4.18c-1.15-2.27-1.2-4.39,1.08-6.16,3.35-2.6,11.89-2.65,15.63-.24,2.71,1.74,2,3.89,1.1,6.06a28.8,28.8,0,0,1-6.62,9.17A3.47,3.47,0,0,1,527.49,377.46Z"/><path class="cls-7" d="M511.72,336.43c-.8,4.45-2.94,7.73-7.83,8.08s-7.46-2.54-8.7-7a7.46,7.46,0,0,0-1.33-2C499.87,334.74,505.72,337,511.72,336.43Z"/><path class="cls-7" d="M564.6,336.39c-2.18,6.28-4.67,8.56-9.5,8.11s-7.31-3.31-7.81-8C553.05,333.93,558.84,337.58,564.6,336.39Z"/><path class="cls-10" d="M509.24,349.15l9.26-4.86c-.07,4.58-3.66,6.36-6.81,8.4-4.74,3.06-10.09,3-15.41,2.53-1.35-.12-3.48-.31-3.12-2.31s2-.89,3.31-.74c4.15.49,8.28.54,12.17-1.36C509.36,350.45,510.31,350.15,509.24,349.15Z"/><path class="cls-11" d="M503.42,369.38c.95,0,2.23-.38,2.54.88.4,1.63-1,1.83-2.14,2a61.29,61.29,0,0,0-17.49,5.38c-.93.44-1.94.92-2.56-.26s.43-1.72,1.24-2.29C487.57,373.29,500,369.43,503.42,369.38Z"/><path class="cls-11" d="M559.7,370a30.6,30.6,0,0,1,14.22,4.28c1,.56,2.55,1.19,1.82,2.5-.91,1.62-2.33.45-3.45-.16a29.55,29.55,0,0,0-14.36-3.69c-1.22,0-3.17.63-3.2-1.24-.05-2.2,2.12-1.48,3.48-1.68A10.58,10.58,0,0,1,559.7,370Z"/><path class="cls-10" d="M539.51,342.43c2.39,3,5.72,4.58,9.07,6.15,1.59,4.13,5.76,2.31,8.55,3.68.68.34,1.83,0,1.91,1.13.09,1.27-1,1.65-2,1.78C551,356,538.55,349.22,539.51,342.43Z"/><path class="cls-11" d="M491.54,366.21c-3.13.2-6.25.41-9.38.6-.89.06-1.76-.17-1.93-1.12s.61-1.43,1.5-1.56a96,96,0,0,1,19.76-.51c.84,0,1.76.53,1.7,1.44-.07,1.27-1.22,1.34-2.24,1.34-3.13,0-6.27,0-9.4,0Z"/><path class="cls-11" d="M527.49,377.46a3.47,3.47,0,0,0,4.24-.12,31.44,31.44,0,0,0,5.95,6c.83.63,2.3,1.31,1.14,2.68-.77.9-1.82.33-2.66-.29-.26-.2-.65-.3-.83-.54-3.57-4.91-7.28-5.37-11.47-.63-.86,1-2.9,2-3.8.2-.8-1.58,1.31-1.93,2.33-2.6A18.63,18.63,0,0,0,527.49,377.46Z"/><path class="cls-11" d="M563.81,363.09a43.7,43.7,0,0,1,10.32,1.19c1,.28,2.1.57,1.92,1.77s-1.34,1.35-2.35,1.1c-5.7-1.44-11.47-1.15-17.24-.72-1.07.08-2.66.51-2.7-1.18,0-1.46,1.58-1.52,2.65-1.64C558.86,363.33,561.34,363.25,563.81,363.09Z"/><path class="cls-11" d="M570.61,386c-.54,1.79-1.6,1.53-2.62.67a32.52,32.52,0,0,0-15-7.41c-.87-.17-1.58-.69-1.49-1.66s1-1.27,1.83-1.13A31.57,31.57,0,0,1,570,384.76,3.78,3.78,0,0,1,570.61,386Z"/><path class="cls-11" d="M508.4,377.27c-.15,1.07-1,1.4-1.71,1.69a41.78,41.78,0,0,0-12.23,7.52c-.74.64-1.62,1.37-2.57.35-.72-.79-.27-1.59.35-2.17a36.14,36.14,0,0,1,13.92-8.41C507.08,376,508.19,375.91,508.4,377.27Z"/><path class="cls-7" d="M546.51,336.09l-4.93-.17C543.3,333.65,545,333.52,546.51,336.09Z"/><path class="cls-7" d="M567.61,119.93c6.32-.77,11.27,1.29,15.8,4.66,18.38,13.64,19.91,40.41,3.05,53.58a27.15,27.15,0,0,1-2.87,2c-6,3.54-6.57,3.32-10.27-2.78-15-24.77-27.66-50.86-41.61-76.22-.79-1.43-1.57-2.62-.22-4.49,6.3-8.76,15.64-11.75,24.42-7.53,9.93,4.78,16.31,16.68,13.74,25.75A54,54,0,0,1,567.61,119.93Zm17.08,35.64c-.5-7.23-2.83-14.33-8.51-20-2.92-2.91-6.38-4.74-10.7-4.19s-5.2,2.23-3.13,6c4.07,7.39,8.17,14.77,12.54,22,1.53,2.54,3.16,6.71,6.65,5.57S584.38,159.45,584.69,155.57ZM547,100.45c-4.26,0-6.14,2.65-4.23,6.36,2.43,4.7,5.46,9.09,8.17,13.64,1.6,2.68,3.1,2.1,5.08.29,4.19-3.82,2.15-7.83.69-11.89C555,104.1,552,100.93,547,100.45Z"/><path class="cls-7" d="M631.8,133.16c-.3,3-.14,6-.93,9-1.71,6.41-5,8.54-11.36,6.89A26.21,26.21,0,0,1,606,140.92c-15.45-17.89-27.25-37.68-30.81-61.56a19.94,19.94,0,0,1,.14-6.45c1.46-8.28,7.16-11.67,15-8.39,9,3.78,15.91,10.27,21.76,17.88C623.53,97.39,630.53,114.18,631.8,133.16Zm-10.65-.43a39.19,39.19,0,0,0-.69-5,108.12,108.12,0,0,0-24.59-45.45A17.43,17.43,0,0,0,591.56,79c-1.49-.84-3.07-2.28-5-1-1.66,1.13-1.27,2.93-1.27,4.55a27.3,27.3,0,0,0,2.81,11A207.58,207.58,0,0,0,604.79,124c2.73,4.16,5.48,8.34,9.26,11.66,1.45,1.28,2.93,3.17,5.13,2.24S620.74,134.52,621.15,132.73Z"/><path class="cls-7" d="M669.48,107.27c-.15,5.27-.51,9.07-1.63,12.75-2.33,7.58-7.67,9.81-14.69,6-5.83-3.14-10.24-8-14.29-13A112,112,0,0,1,616,61.15,25.75,25.75,0,0,1,617.56,47c2-4.79,5.43-6.36,10.42-4.85,5.91,1.8,10.53,5.65,14.85,9.81C659,67.42,668.18,86.2,669.48,107.27Zm-43.17-44c.25,1.32.49,3.14.93,4.9,3.84,15.19,11.15,28.76,19.82,41.64,1.91,2.85,4.56,6.57,8.24,5,3.93-1.68,3.19-6.22,2.31-9.8-3-12.17-7.42-23.78-14.58-34.17a43.93,43.93,0,0,0-10.67-11.13c-1.42-1-2.81-2.72-4.82-1.52C625.78,59.26,626.58,61.21,626.31,63.3Z"/><path class="cls-12" d="M503,119.85c.09,1.27.21,3.25.38,5.22.12,1.42.05,2.62-1.76,2.93s-2.13-.79-2.38-2.25c-.76-4.43-.5-8.88-.56-13.33,0-1.65.67-2.41,2.35-2.37,1.86.06,2,1.19,2,2.67C503,114.86,503,117,503,119.85Z"/><path class="cls-12" d="M618.12,15.87c-2.15,0-4.31,0-6.46,0-1.4,0-2.17-.45-2.24-2s.54-2.32,1.94-2.3q6.95.06,13.9.33c1.26,0,2.17.63,2,2.2-.16,1.79-1.18,2.15-2.72,2-2.15-.19-4.3-.32-6.45-.47Z"/><path class="cls-12" d="M675.79,33.37a19.26,19.26,0,0,1,2.1,1.49q4.77,4.66,9.48,9.4c.94,1,1.82,1.87.34,3.28s-2.43.59-3.58-.6c-2.85-3-5.84-5.8-8.77-8.69-.78-.77-2-1.38-1-2.81C674.9,34.78,675.32,34.08,675.79,33.37Z"/><path class="cls-12" d="M591.52,214.26c-2.1-.21-5.23-.54-8.37-.84-1.24-.12-2.37-.32-2.26-2s1-2.26,2.62-2.15c4.31.31,8.63.58,13,.67,1.76,0,2.34.71,2.33,2.36s-.88,1.95-2.22,1.93S593.91,214.26,591.52,214.26Z"/><path class="cls-12" d="M558.9,28.07c.08,1.4-1.15,1.55-1.93,2-3.59,2.08-7.25,4.06-10.83,6.16-1.27.75-2.26,1.18-3.31-.37s-.37-2.46.94-3.19c3.91-2.2,7.87-4.3,11.74-6.56C558,24.67,558.25,26.63,558.9,28.07Z"/><path class="cls-12" d="M510.81,76.77c-1.81,5.56-3.35,10.47-5,15.34-.43,1.25-1.51.93-2.52.56s-1.64-1-1.23-2.24c1.54-4.57,3-9.15,4.57-13.72a1.64,1.64,0,0,1,2.3-1.22C509.82,75.83,510.86,76.13,510.81,76.77Z"/><path class="cls-12" d="M705.16,132.9a88.39,88.39,0,0,1-4.69,14.94,1.53,1.53,0,0,1-2.33.95c-1.21-.51-2-1.14-1.51-2.6,1.41-4.4,2.81-8.81,4.17-13.23a1.82,1.82,0,0,1,2.64-1.36C704.45,131.92,705.19,132.47,705.16,132.9Z"/><path class="cls-12" d="M618.71,211.82c-1.51.29-2.13-.31-2.52-1.73s.08-2.2,1.43-2.57c4.47-1.22,9-2.37,13.42-3.7,1.61-.48,2.08.26,2.49,1.5.48,1.44-.15,2.19-1.47,2.58Z"/><path class="cls-12" d="M704.22,77a1.63,1.63,0,0,1-1.44,2.15c-1.29.31-2.27.11-2.66-1.38-1.14-4.5-2.16-9-4.19-13.26-.75-1.55.45-2,1.47-2.58s1.83-.18,2.35.88C701.94,67.36,703.07,72.2,704.22,77Z"/><path class="cls-12" d="M564.5,205.74c-.52,1.5-.87,3.3-3,2.39-4.4-1.92-8.73-4-13.07-6-1-.47-1.62-1.26-.85-2.36.52-.76.89-2.13,2.15-1.57,4.69,2.07,9.33,4.25,14,6.45C564.1,204.78,564.27,205.38,564.5,205.74Z"/><path class="cls-12" d="M661.2,23.92c-.83,1-1,3.1-3.22,1.88a73.37,73.37,0,0,0-12.8-5.55c-1.66-.53-1.1-1.68-.81-2.84.34-1.38,1.22-1.41,2.27-1.07a75.93,75.93,0,0,1,13.68,6A1.43,1.43,0,0,1,661.2,23.92Z"/><path class="cls-12" d="M688.42,163.34c1.44.8,3.12,1.5,1.63,3.36-3,3.75-6.16,7.38-9.23,11.07-.76.91-1.55,1.25-2.47.28-.64-.68-1.9-1.4-1.08-2.42,3.22-4,6.59-7.89,9.94-11.78C687.48,163.54,688.05,163.49,688.42,163.34Z"/><path class="cls-12" d="M592,16c.41,2.32-.89,2.42-2,2.72-4.14,1.1-8.3,2.14-12.41,3.33-1.59.46-2.52.17-3-1.46-.56-1.86.66-2.28,2-2.65l12.42-3.31C590.83,14.14,592,14.54,592,16Z"/><path class="cls-12" d="M665.65,190.4a12.28,12.28,0,0,1-1.55,1.45c-3.8,2.34-7.63,4.63-11.45,7-1.27.77-2.32,1.07-3.28-.58s-.18-2.26,1.15-3c3.72-2.16,7.37-4.45,11-6.7.85-.52,1.68-1.21,2.58-.17C664.65,188.92,665.07,189.61,665.65,190.4Z"/><path class="cls-12" d="M513,159.64c.66,1.27-.45,1.54-1.27,2.05a1.43,1.43,0,0,1-2.37-.74c-1.88-4.42-3.76-8.85-5.59-13.3-.54-1.31,0-2.14,1.36-2.63,1.09-.39,1.89-.51,2.39.75Q510.23,152.72,513,159.64Z"/><path class="cls-12" d="M518.85,61.15c-1.22-.93-3.24-1.5-1.7-3.41,3.12-3.87,6.41-7.63,9.67-11.39.93-1.08,1.73-.35,2.46.4s1.43,1.47.53,2.53c-3.24,3.78-6.48,7.56-9.76,11.31C519.77,60.9,519.23,61,518.85,61.15Z"/><path class="cls-12" d="M522.73,175.2c.71.62,1.34,1.09,1.88,1.65,2.86,3,5.65,6,8.57,8.94,1.21,1.22,1.91,2.18.39,3.67s-2.39.23-3.26-.65c-3-3.06-6-6.17-8.9-9.31-.65-.69-1.54-1.48-.68-2.55A14.75,14.75,0,0,1,522.73,175.2Z"/><path class="cls-12" d="M707.69,105.83c0,2.15,0,4.3,0,6.45,0,1.38-.58,2.11-2.1,2s-2-.85-2-2.2c0-4.47-.09-8.94-.15-13.4,0-1.3.28-2.22,1.86-2.31,1.87-.1,2.22,1,2.22,2.47v7Z"/><path class="cls-13" d="M28.66,282.27l.23.56-.61-.18Z"/><path class="cls-13" d="M705,717.93c.39-.59.86-1.62,1.58-1s-.2,1.25-.88,1.61Z"/><path class="cls-13" d="M712.54,756.37c.13-.22.27-.43.4-.64.42.54.11.65-.39.65Z"/><path class="cls-13" d="M276.26,661.08l1-.35c-.05.37-.09.74-.14,1.11Z"/><path class="cls-14" d="M584.69,155.57c-.31,3.88.32,8.25-3.15,9.37s-5.12-3-6.65-5.57c-4.37-7.23-8.47-14.61-12.54-22-2.07-3.75-1.11-5.44,3.13-6s7.78,1.28,10.7,4.19C581.86,141.24,584.19,148.34,584.69,155.57Z"/><path class="cls-14" d="M547,100.45c5,.48,8,3.65,9.71,8.4,1.46,4.06,3.5,8.07-.69,11.89-2,1.81-3.48,2.39-5.08-.29-2.71-4.55-5.74-8.94-8.17-13.64C540.85,103.1,542.73,100.45,547,100.45Z"/><path class="cls-14" d="M621.15,132.73c-.41,1.79.27,4.25-2,5.19s-3.68-1-5.13-2.24c-3.78-3.32-6.53-7.5-9.26-11.66A207.58,207.58,0,0,1,588.1,93.54a27.3,27.3,0,0,1-2.81-11c0-1.62-.39-3.42,1.27-4.55,1.93-1.33,3.51.11,5,1a17.43,17.43,0,0,1,4.31,3.31,108.12,108.12,0,0,1,24.59,45.45A39.19,39.19,0,0,1,621.15,132.73Z"/><path class="cls-14" d="M626.31,63.3c.27-2.09-.53-4,1.23-5.09,2-1.2,3.4.52,4.82,1.52A43.93,43.93,0,0,1,643,70.86c7.16,10.39,11.58,22,14.58,34.17.88,3.58,1.62,8.12-2.31,9.8-3.68,1.58-6.33-2.14-8.24-5-8.67-12.88-16-26.45-19.82-41.64C626.8,66.44,626.56,64.62,626.31,63.3Z"/></g></g></svg>