<svg xmlns="http://www.w3.org/2000/svg" viewBox="0 0 115.18 127.7"><defs><style>.cls-1{fill:#833150;}.cls-2{fill:#957064;}.cls-3{fill:#977363;}.cls-4{fill:#c6d7b1;}</style></defs><title>Asset 7b</title><g id="Layer_2" data-name="Layer 2"><g id="Layer_2-2" data-name="Layer 2"><path class="cls-1" d="M73.11,67.87c-2.62.74-3,2.81-3,5.07a4.14,4.14,0,0,0-2.92,1.61c-4.51,5.27-10.34,7.07-17.07,6.54-1.88-.84-3.58-2.21-5.83-1.91-1.83-1.3-3.29-3.35-6-3a4.07,4.07,0,0,0-3.45-3.46C34,70,32.12,68,30.12,66A11.36,11.36,0,0,0,27,60q-.45-4.41-.92-8.82c0-3-.05-5.91-.07-8.86C28.26,40,28.41,36.72,30,34.1,36.1,26.18,44,22.54,54.11,24L61,27l8,7.09c1,3.07,1.87,6.25,4,8.85.37,1.68.73,3.35,1.1,5l1,7c-.33,2-.65,4-1,6C74.07,63.26,71.79,65.31,73.11,67.87ZM65.45,52.4a1.67,1.67,0,0,0-2.34-1.24,30.83,30.83,0,0,0-5.62,1.94c-2.75,1.42-3.92.81-4.92-2.19-1.63-4.85-3.84-9.52-5.87-14.24-.36-.84-.71-2.24-1.91-1.94-1.46.37-1.29,1.72-.9,2.89,1.64,4.87,3.14,9.8,5,14.57,1.09,2.74,1.41,4.34-2.12,5.42-2.56.79-7.19,1.61-6.06,4.9.76,2.24,5.17.31,7.59-.88,2.92-1.42,4.21-.69,4.91,2.24a7.69,7.69,0,0,0,1.27,2.68c1,1.32,1.28,4.19,3.62,3.1,2-.94.46-3.26-.18-4.4-2.88-5.18-1.27-8,4.07-9.69C63.47,55.11,65.19,54.37,65.45,52.4Z"/><path class="cls-2" d="M38.37,76.19c2.66-.36,4.12,1.69,6,3-3.45,16.26-3.75,32.43,1.16,48.52C35.1,111.63,34.11,94.28,38.37,76.19Z"/><path class="cls-2" d="M73.11,67.87c-1.32-2.56,1-4.61,1-7,12,5.76,20,15.7,27,26.55,3.62,5.65,6.93,11.53,8.31,18.47C100.05,90.5,89.55,76.32,73.11,67.87Z"/><path class="cls-2" d="M75.1,54.94l-1-7c19-1.13,36.37,12.34,41.07,26.62C104.21,61.46,91,55.39,75.1,54.94Z"/><path class="cls-2" d="M26.07,51.13q.46,4.41.92,8.82c-9.44-2.5-17.59-6.9-23-15.44A25.78,25.78,0,0,1,.33,34.25c-.2-1.34-1-3.39.88-3.95,2-.61,2.15,1.66,2.67,2.89C8.08,43.15,15.3,49.32,26.07,51.13Z"/><path class="cls-3" d="M50.15,81.09c6.73.53,12.56-1.27,17.07-6.54a4.14,4.14,0,0,1,2.92-1.61A17,17,0,0,1,72,81l-2.69,6.15C65.92,91.11,61.63,91,57.12,90l-3.83-3C52,85.19,50.42,83.48,50.15,81.09Z"/><path class="cls-2" d="M30.12,66c2,2,3.92,4,4.8,6.7-9,8.1-12,19.11-14.78,30.27-.31,1.28-.51,2.59-.84,3.87a15.43,15.43,0,0,1-.81,1.88C14.46,101.68,21.21,77.27,30.12,66Z"/><path class="cls-2" d="M73,43c-2.09-2.6-2.91-5.78-4-8.85,4.44-8.88,3.42-17.63-.47-26.38-.73-1.64-2.94-4-.75-5.11C69.54,1.7,71,4.52,72,6.14,79.48,18.19,79.66,30.49,73,43Z"/><path class="cls-2" d="M30,34.1C28.41,36.72,28.26,40,26,42.27,19.5,34,17.58,24.07,16.25,14c-.17-1.33-.27-3,1.29-3.39,1.78-.46,2,1.37,2.4,2.54C22.48,20.51,25.27,27.76,30,34.1Z"/><path class="cls-2" d="M61,27l-6.92-3a45.66,45.66,0,0,0-10-19.74c-.87-1-2.7-2.29-1.31-3.73s2.68.38,3.74,1.22C54.72,8.27,59.08,17,61,27Z"/><path class="cls-1" d="M69.28,87.19,72,81c4.27,2.67,8.15,5.67,9.54,10.87.33,1.24,1.29,2.76-.22,3.53s-1.76-1-2.47-1.86C76.24,90.57,73.64,87.56,69.28,87.19Z"/><path class="cls-1" d="M53.29,87l3.83,3a60.38,60.38,0,0,0-2.69,14.45C50.45,98.88,52.55,92.91,53.29,87Z"/><path class="cls-4" d="M65.45,52.4c-.26,2-2,2.71-3.44,3.16-5.34,1.66-6.95,4.51-4.07,9.69.64,1.14,2.19,3.46.18,4.4-2.34,1.09-2.63-1.78-3.62-3.1a7.69,7.69,0,0,1-1.27-2.68c-.7-2.93-2-3.66-4.91-2.24-2.42,1.19-6.83,3.12-7.59.88-1.13-3.29,3.5-4.11,6.06-4.9,3.53-1.08,3.21-2.68,2.12-5.42-1.88-4.77-3.38-9.7-5-14.57-.39-1.17-.56-2.52.9-2.89,1.2-.3,1.55,1.1,1.91,1.94,2,4.72,4.24,9.39,5.87,14.24,1,3,2.17,3.61,4.92,2.19a30.83,30.83,0,0,1,5.62-1.94A1.67,1.67,0,0,1,65.45,52.4Z"/></g></g></svg>