<svg xmlns="http://www.w3.org/2000/svg" viewBox="0 0 100.63 132.97"><defs><style>.cls-1{fill:#c692be;}.cls-2{fill:#833150;}.cls-3{fill:#977363;}</style></defs><title>Asset 10b</title><g id="Layer_2" data-name="Layer 2"><g id="Layer_2-2" data-name="Layer 2"><path class="cls-1" d="M82.07,97.73a212.63,212.63,0,0,1-8,30.87c-1.19,3.54-3,4.84-6.48,4.22a22.8,22.8,0,0,0-2.49-.16c-7.38-.55-7.34-.54-6.42-8,.28-2.3.29-4.63.5-8.26-3,3.38-5.28,5.81-7.33,8.45C50.38,126.79,49,127,46.79,126c-7.95-3.64-15-8.63-21.71-14.1-2-1.61-1.31-3.15-.43-4.81a142,142,0,0,0,7.69-16.25c-4.73,3.19-9.43,6.44-14.23,9.51-1.32.83-3,2.33-4.53,1.11s-.83-3.18-.46-4.71c.76-3.2,1.86-6.32,3-10.06C10.31,88.12,5.9,92.56,0,92.81c1.17-7.48,10.52-19.92,21.92-29.3A195.85,195.85,0,0,1,77.84,93.15C79.49,94.41,81.7,95.24,82.07,97.73Z"/><path class="cls-2" d="M82.07,97.73c-.37-2.49-2.58-3.32-4.23-4.58A195.85,195.85,0,0,0,21.92,63.51c3.63-4.14,8.48-6.6,13-9.45.13,2.46,2.41,2,3.74,2.5A194.23,194.23,0,0,1,75.6,74.87c2.37,1.49,4.17,4.23,7.47,4A78.15,78.15,0,0,1,82.07,97.73Z"/><path class="cls-1" d="M83.07,78.9c-3.3.2-5.1-2.54-7.47-4A194.23,194.23,0,0,0,38.7,56.56c-1.33-.49-3.61,0-3.74-2.5,7-3.26,14.11-6.48,21.93-7.46,9.1-1,15.27,3.89,20.62,10.36A52.05,52.05,0,0,1,83.07,78.9Z"/><path class="cls-3" d="M68.87,38.82C74.94,27.23,80.93,15.59,87.12,4.06,89.38-.16,93-1,97.19,1.15s4,5.33,2.09,9.17C93.25,22.14,86.87,33.77,80,45.13,76.07,43.43,73.22,39.81,68.87,38.82Z"/><path class="cls-2" d="M68.87,38.82c4.35,1,7.2,4.61,11.15,6.31-.08,4.11,3.5,9-2.51,11.83C72.16,50.49,66,45.62,56.89,46.6,58.29,40,60,38.93,68.87,38.82Z"/></g></g></svg>