<svg xmlns="http://www.w3.org/2000/svg" viewBox="0 0 113.98 121.99"><defs><style>.cls-1{fill:#833150;}.cls-2{fill:#cb7867;}.cls-3{fill:#c6d7b1;}</style></defs><title>Asset 5b</title><g id="Layer_2" data-name="Layer 2"><g id="Layer_2-2" data-name="Layer 2"><path class="cls-1" d="M50,53.59c-.13-3.44,2.31-4.94,4.85-6.28,3.7-2,6.13-4.16,4.4-9.06-1.6-4.52.9-7.46,5.09-9.31,1.83-.81,4.68-1.14,4.43-4s-3-3.24-5.19-4c-7.23-2.38-14-1.67-20.23,3-3.46,2.63-3.88,6-2.18,9.77,1.56,3.48,4.18,3.12,7.13,2.07,1-.36,2.6-.72,3.09.6.6,1.58-1,2.3-2.07,2.93-8.08,4.56-12.6,2.78-15.22-6.06-1.37-4.63-1.62-9.46-2-14.24-.28-3.81,1.41-6.34,5.22-7.4,7.28-2,14.09-4.94,19.85-10,1-.89,2.29-2.85,4.13-.66C65.78,6.3,71.9,6.2,77.89,5.6c5.31-.52,8.76,1.27,11.27,6,2.25,4.27,6,7.53,9.33,11,4.48,4.58,4.83,7.46,1.41,12.79-3.63,5.69-5.27,11.49-1.62,17.79,1.14,2,.72,3.78-.22,5.68-1.84,3.71-3.75,7.42-3,11.8L85.89,70c-.06-4.78-3.7-6-7.26-7.14-3-1-6-1.85-9-2.85-3.82-1.28-7.13-1-9.35,2.86C56.46,60.22,52.52,57.71,50,53.59Z"/><path class="cls-1" d="M96.49,77.57c-.21,4.57,2.72,6.68,6.16,9,8.85,5.94,11.92,15,11.25,25.13-.56,8.32-8.73,12.36-17.28,9.26-7-2.55-12.39-7.66-18.45-11.69C67.27,102,57.5,93.14,46.05,86.64c-10-5.67-21-8.19-31.93-11-3.54-.9-7.06-1.8-10.11-4-4.55-3.29-5.32-8.22-1.84-12.51a19.48,19.48,0,0,1,21-6.31c6.44,2.21,12.77,4.72,19.15,7.09-.72,8.27,5.07,12.05,10.9,15.8-.79,3.18.51,5.28,3.14,7.09,5.71,4,12.21,5.8,18.74,7.78,4.92,1.49,7.88.28,9-4.86a49,49,0,0,1,5.43.08c4.88.62,7.16-1.31,6.65-6.32A7.44,7.44,0,0,1,96.49,77.57Z"/><path class="cls-2" d="M53.25,75.73C47.42,72,41.63,68.2,42.35,59.93c2.78-1.85,3-6.77,7.69-6.34,2.48,4.12,6.42,6.63,10.25,9.25Q56.77,69.29,53.25,75.73Z"/><path class="cls-2" d="M96.49,77.57a7.44,7.44,0,0,0-.33,1.93c.51,5-1.77,6.94-6.65,6.32a49,49,0,0,0-5.43-.08Q85,77.85,85.89,70l9.17.68C96.51,72.76,96.12,75.24,96.49,77.57Z"/><path class="cls-3" d="M85.89,70q-.9,7.88-1.81,15.77c-1.07,5.14-4,6.35-9,4.86-6.53-2-13-3.82-18.74-7.78-2.63-1.81-3.93-3.91-3.14-7.09q3.53-6.44,7-12.89C62.51,59,65.82,58.7,69.64,60c3,1,6,1.85,9,2.85C82.19,64,85.83,65.19,85.89,70Zm-8.25,3.77c-.42-5.06-4.87-4.37-7.72-5.51-1.87-.75-6.13,5.24-6.46,8.75-.23,2.45,5.44,6.66,9.66,6C78.18,82.11,75.69,76.7,77.64,73.74Z"/><path class="cls-2" d="M77.64,73.74c-2,3,.54,8.37-4.52,9.2-4.22.7-9.89-3.51-9.66-6,.33-3.51,4.59-9.5,6.46-8.75C72.77,69.37,77.22,68.68,77.64,73.74Z"/></g></g></svg>