<svg xmlns="http://www.w3.org/2000/svg" viewBox="0 0 84.44 122.49"><defs><style>.cls-1{fill:#cf6c2b;}.cls-2{fill:#c6d7b1;}.cls-3{fill:#977363;}.cls-4{fill:#833150;}</style></defs><title>Asset 4b</title><g id="Layer_2" data-name="Layer 2"><g id="Layer_2-2" data-name="Layer 2"><path class="cls-1" d="M42.9,59.72c2.7.08,4.67-1.68,6.74-2.93,18.94-11.46,35.91,4.93,34.75,22-.38,5.56-.7,11.31-4,16.21a3.67,3.67,0,0,1-2-3,34.13,34.13,0,0,0-1.64-8.78c-1.28-3.81-3.31-7.14-7.51-7.91s-4.77,3.48-6.37,5.9c-5.89,8.94-8.13,9-13.07-.21-1.33-2.47-3-4.45-6.13-4.3a7.2,7.2,0,0,0-6.93,4.8c-1.12,3-2,6-3,9-1.84,5.7-3.19,11.56-5.87,17-1,2-2.3,3.78-4.92,3.53s-3.75-2-4.43-4.16c-.38-1.26-.61-2.57-.88-3.86-1-4.93-.59-10-1-14.93-.11-1.38-.41-2.73-2.07-3-1.37-.22-2.09.75-2.74,1.77-2.43,3.82-2.81,8-2.1,12.36-.6,4.16.19,8.17,1.36,12.14-2.25,1.47-3.41-.07-4.33-1.71C-.76,96.14-2.52,82.09,4.1,67.76c4.55-9.86,12.56-12.52,22.68-8.37,2.59,1,5.13,2.33,8,2.35A9,9,0,0,0,42.9,59.72Z"/><path class="cls-2" d="M78.42,92.08a3.67,3.67,0,0,0,2,3c-2.08,8.57-5.75,16.24-12.81,21.87-9.73,7.76-17.72,7.44-26.75-1-.81-.77-1.32-1.49-2.29-.35-3.88,4.51-8.42,7.58-14.72,6.36-6.09-1.18-9.29-6-12.67-10.49-1.17-4-2-8-1.36-12.15,1-1,1.11-3.33,2.86-3,1.91.34,1.77,2.51,2.08,4.09s.47,3,.78,4.41c1,4.71,2.46,9.56,8.2,9.83s6.88-4.89,8.48-9,2.65-8.2,4.26-12.18c1.32-3.28,3.26-6.7,7-7.17,4-.51,4.59,3.66,6.18,6.2,2.94,4.68,6.25,5.27,10.74,1.87,2.63-2,3.84-4.94,5.58-7.55C67,85.06,68.1,83,70.39,83.2c2.54.2,2.7,2.65,3.14,4.52C74.16,90.4,75.11,92.5,78.42,92.08Z"/><path class="cls-3" d="M42.9,59.72a9,9,0,0,1-8.09,2C30.26,45.41,24.26,29.59,18.19,13.79c-1.38-3.59-3.41-6.92.58-10.29C22.48.37,29.56-1,33.29.83c1.69.84,1.86,2.34,2.06,3.72C37.92,22.93,40.4,41.32,42.9,59.72Z"/><path class="cls-4" d="M78.42,92.08c-3.31.42-4.26-1.68-4.89-4.36-.44-1.87-.6-4.32-3.14-4.52C68.1,83,67,85.06,65.93,86.71c-1.74,2.61-3,5.57-5.58,7.55-4.49,3.4-7.8,2.81-10.74-1.87-1.59-2.54-2.21-6.71-6.18-6.2-3.74.47-5.68,3.89-7,7.17-1.61,4-2.71,8.17-4.26,12.18s-2.77,9.28-8.48,9-7.17-5.12-8.2-9.83c-.31-1.46-.5-2.94-.78-4.41s-.17-3.75-2.08-4.09c-1.75-.31-1.89,2-2.86,3-.71-4.35-.33-8.53,2.1-12.35.65-1,1.37-2,2.74-1.77,1.66.26,2,1.61,2.07,3,.4,5-.05,10,1,14.93.27,1.29.5,2.6.88,3.86.68,2.2,1.92,3.93,4.43,4.16s3.94-1.55,4.92-3.53c2.68-5.39,4-11.25,5.87-17,1-3,1.88-6,3-9a7.2,7.2,0,0,1,6.93-4.8c3.14-.15,4.8,1.83,6.13,4.3,4.94,9.17,7.18,9.15,13.07.21,1.6-2.42,2.05-6.69,6.37-5.9s6.23,4.1,7.51,7.91A34.13,34.13,0,0,1,78.42,92.08Z"/></g></g></svg>