<svg xmlns="http://www.w3.org/2000/svg" viewBox="0 0 122.35 125"><defs>
<style>.cls-1{fill:#cf6c2b;}.cls-2{fill:#833150;}.cls-3{fill:#977363;}.cls-4{fill:#f5b04e;}</style>
</defs><title>Asset 2b</title><g id="Layer_2" data-name="Layer 2"><g id="Layer_2-2" data-name="Layer 2">
s<path class="cls-1" d="M68.74,26.05l9.07,5.07c8.78,8.69,13.28,19.68,16.51,31.26,5.4,19.29,8.75,38.41-6.74,55.19-7,3.77-14.25,7-22.43,7.37-13,.54-24.58-2.75-33.38-13-1.27-5.47-3-10.81-3.08-16.54-.43-22.44,3.92-43.52,17-62.23l7.86-6.36C58.56,25.22,63.6,24.66,68.74,26.05Zm-31,47a36,36,0,0,0,0,5C39,86.35,41,94.34,49.79,97.83c11.76,4.68,24.83-4.29,26.94-18.22,2.25-14.83-1-28.65-8-41.68-4-7.39-10.38-8.25-16.2-2.31C42.38,46,38.38,58.89,37.78,73.09Z"/><path class="cls-1" d="M23.05,115.13c-14,3.92-21.58-4.42-22.63-13.27C-1,89.85,1.34,78.32,5,67.09,8.54,56.47,14,46.69,20.31,37.48c3.24-4.72,7.17-8.84,13.09-10.12,3.49-.75,7-1,9.39,2.6-6.86,7.26-11.46,15.83-14.93,25.13C20.56,74.66,20.23,94.76,23.05,115.13Z"/><path class="cls-1" d="M84,27.14c6.93-2.67,12-.87,18.09,6.42,8,9.61,11.68,21.15,14.89,32.93,3.32,12.24,6.25,24.61,5.14,37.35-1.21,13.86-7.77,18.79-21.74,17.45-1.16-.11-2.31-.27-3.47-.4,13.8-22.53,11.66-45.6,2.29-68.87C95.51,42.89,90,34.84,84,27.14Z"/><path class="cls-2" d="M84,27.14c6,7.7,11.52,15.75,15.2,24.88,9.37,23.27,11.51,46.34-2.29,68.87-3.31-.54-6.91-.23-9.32-3.32,15.49-16.78,12.14-35.9,6.74-55.19C91.09,50.8,86.59,39.81,77.81,31.12Z"/><path class="cls-2" d="M23.05,115.13c-2.82-20.37-2.49-40.47,4.81-60,3.47-9.3,8.07-17.87,14.93-25.13l2.91,3.17c-13.09,18.71-17.44,39.79-17,62.23.1,5.73,1.81,11.07,3.08,16.54C29.4,114.42,26.36,115.15,23.05,115.13Z"/><path class="cls-3" d="M68.74,26.05c-5.14-1.39-10.18-.83-15.18.72.4-7.18.25-14.29-3-20.95C49.78,4.14,48.8,2.48,51,1s4-1.46,5.79.45A41.91,41.91,0,0,1,68.74,26.05Z"/><path class="cls-4" d="M37.78,73.09c.6-14.2,4.6-27.09,14.79-37.47,5.82-5.94,12.25-5.08,16.2,2.31,7,13,10.21,26.85,8,41.68-2.11,13.93-15.18,22.9-26.94,18.22C41,94.34,39,86.35,37.82,78.07A36,36,0,0,1,37.78,73.09Z"/></g></g></svg>