<svg xmlns="http://www.w3.org/2000/svg" viewBox="0 0 123.62 108.39"><defs><style>.cls-1{fill:#833150;}</style></defs><title>Asset 6b</title><g id="Layer_2" data-name="Layer 2"><g id="Layer_2-2" data-name="Layer 2"><path class="cls-1" d="M23.12,98.28c2.66-4.34,5.12-8.82,8-13s4-9.18,4.41-14.08c1-11.43-3.2-16.39-15.16-18.54-.07-1.39,1.22-1.87,1.87-2.77,3-4.16,4.5-8.4,1.69-13.41-2.52-4.52-5.55-7.84-11.27-7-.7.11-1.41.25-1.76-.4a1.65,1.65,0,0,1,.57-2.21,14.44,14.44,0,0,0,4.09-4.26c4.56-6.75,2.6-12.8-5.23-15.53-3-1-6.2-1.74-10.36-2.88C6.31,1.64,12,2,17.42,1.27,31.28-.53,45.24-.25,59.17,1.06c1.33.12,2.85.15,3.09,1.85.21,1.46-1.19,1.81-2.18,2.36-4.28,2.38-9.25,3.52-12.35,8-3.74,5.34-4.14,10.51-.59,15.67,4.48,6.52,10.44,9.32,16.4,7.68,4.56-1.26,8.52-3.72,12.37-6.35.66-.46,1.36-1.27,2.16-.59,1,.84.44,1.84-.24,2.62-2.6,3-5.27,6-7.84,9-1.73,2.07-3.79,4.8-1.6,7,1.85,1.88,4.87.91,7.34-.63,4-2.49,7.16-5.87,10.68-8.88.78-.67,1.58-2.25,2.81-1,1,1.1-.17,2.08-.84,3-3.22,4.42-6.6,8.73-8.66,13.89-3,7.51-.47,12.06,6.94,12.62,4.8.37,9.59.64,14.39.67,8.6.06,11.28-2.66,11.61-11.2,0-1.47-1.06-3.88,1.24-4.18,1.71-.22,1.78,2.15,2.19,3.49a173.3,173.3,0,0,1,7.52,47,31.4,31.4,0,0,1-.08,3.5c-.07.83-.44,1.76-1.38,1.79s-1.26-.89-1.47-1.74c-1-4-1.91-8.05-4.38-11.55-4.52-6.41-11.85-7.27-17.48-1.75-2.36,2.32-4.34,5-6.58,7.46-.73.8-1.34,2.16-2.74,1.76-1.21-.35-.77-1.68-1.07-2.57-1-3-1.72-6.09-3-8.94a8.33,8.33,0,0,0-13-3.13c-2.72,2.17-5.32,4.56-6.77,7.89-.38.88-.8,2-2.06,1.73-1.06-.23-.81-1.3-.91-2.08-1.94-15.42-11.49-14.37-22-8.71C34.63,90.05,29.08,94.34,23.12,98.28Z"/></g></g></svg>