<svg xmlns="http://www.w3.org/2000/svg" viewBox="0 0 120.33 115.23"><defs><style>.cls-1{fill:#977363;}.cls-2{fill:#833150;}.cls-3{fill:#f5b04e;}.cls-4{fill:#53234f;}.cls-5{fill:#957064;}</style></defs><title>Asset 1b</title><g id="Layer_2" data-name="Layer 2"><g id="Layer_2-2" data-name="Layer 2"><path class="cls-1" d="M17.11,77.05a129.8,129.8,0,0,1,3-44.82,53.1,53.1,0,0,1,7.91-18.11C34.12,5.62,42.63,1.39,53.05,1c3.43.65,6.9.05,10.38.82C77.6,4.93,83.33,15.5,87.12,27.92c2.48,8.13,3.34,16.57,3.79,24.95.42,7.71,1.2,15.56-.73,23.26-1.83,0-3.66.12-5.48,0C62.15,75,39.61,74.81,17.11,77.05ZM34.39,48.8a26.41,26.41,0,0,1,1.77,2.59c2.48,5.43,5,10.86,7.33,16.35.89,2.08,2.38,3,4.29,2.22,2.37-.95.43-2.56-.05-3.62A136.37,136.37,0,0,0,41.48,53.9c-3-5.12-5-9.11.05-15,6.66-7.84,3.3-16.17-5.85-18.28-3.82-.89-5.81.07-5.37,4.34,1.4,13.59.48,27.23.9,40.83.05,1.52-1.11,4.35,1.94,4.07,2.51-.23,1.91-2.84,1.74-4.5A92,92,0,0,1,34.39,48.8ZM63,36.87h1c0,10,0,19.9,0,29.85,0,1.6-.36,3.63,2.27,3.49,2.25-.13,1.86-2,1.86-3.38,0-5.31.06-10.64-.17-15.94-.15-3.27.3-5.18,4.07-6.49,7.61-2.66,10.5-8.29,8.91-15.11-1.44-6.16-6.46-9.21-14.16-9.08-3.18.05-4,1.33-3.84,4.2C63.17,28.56,63,32.72,63,36.87ZM58,64.34h-.1c-.24-5-.55-9.91-.71-14.87C57,45,57.06,40.52,57,36c0-1.23-.38-2.37-1.81-2.57-1.62-.23-2,.92-2,2.18Q53.13,51.82,53.07,68c0,1.73,1,2.25,2.54,2.25S58,69.46,58,67.82C58,66.66,58,65.5,58,64.34Zm0-38c-.41-1.76-1.44-3-3.34-3s-2.58,1.24-2.65,3,.71,2.86,2.57,2.87S57.74,28.47,58,26.38Z"/><path class="cls-2" d="M107.84,95c1.56,1.83,3.71,1.14,5.62,1.2,4.47.15,6.43,2.47,6.71,6.82.71,10.67-.52,12.11-11.28,12.13-16.31,0-32.63.24-48.93-.1-16.75-.33-33.48-1.2-50.22-1.91-2.14-.09-4.25-.7-6.38-.87-2.31-.2-3.21-1.46-3.22-3.6a52,52,0,0,0-.07-6c-.44-3.41,1.27-5.39,4.29-5.21,5,.3,6.31-2.08,6-6.38C12,92.67,9,96.89,14.4,96.6a899,899,0,0,1,90.22-.68A4.18,4.18,0,0,0,107.84,95Z"/><path class="cls-3" d="M107.84,95a4.18,4.18,0,0,1-3.22.93,899,899,0,0,0-90.22.68C9,96.89,12,92.67,10.34,91.08c0-2,.14-3.93,0-5.88-.26-4.83,1.64-7.78,6.73-8.15,22.5-2.24,45-2,67.59-.89,1.82.09,3.65,0,5.48,0,3.22,1.65,6.66.86,10,.9,6.85.86,7.71,1.69,8,8.6C108.3,88.74,108,91.87,107.84,95Z"/><path class="cls-2" d="M100.2,77c-3.36,0-6.8.75-10-.9,1.93-7.7,1.15-15.55.73-23.26-.45-8.38-1.31-16.82-3.79-24.95C83.33,15.5,77.6,4.93,63.43,1.8,60,1,56.48,1.63,53.05,1c17.57-4.25,33.2,5.77,39.69,20.73,4.18,9.63,5.8,19.91,6.6,30.44C100,60.45,99.9,68.74,100.2,77Z"/><path class="cls-4" d="M34.39,48.8a92,92,0,0,0,.5,16.51c.17,1.66.77,4.27-1.74,4.5-3,.28-1.89-2.55-1.94-4.07-.42-13.6.5-27.24-.9-40.83-.44-4.27,1.55-5.23,5.37-4.34C44.83,22.68,48.19,31,41.53,38.85c-5.05,5.94-3.07,9.93-.05,15a136.37,136.37,0,0,1,6.25,12.44c.48,1.06,2.42,2.67.05,3.62-1.91.77-3.4-.14-4.29-2.22-2.34-5.49-4.85-10.92-7.33-16.35A26.41,26.41,0,0,0,34.39,48.8ZM34.05,40c2.79-1.44,4.33-3,5.15-5,1.48-3.55,2.14-7.14-1.75-9.74C35.59,24.05,34,23.77,34,26.91,34.1,31.05,34.05,35.19,34.05,40Z"/><path class="cls-4" d="M63,36.87c0-4.15.13-8.31,0-12.46-.12-2.87.66-4.15,3.84-4.2,7.7-.13,12.72,2.92,14.16,9.08,1.59,6.82-1.3,12.45-8.91,15.11-3.77,1.31-4.22,3.22-4.07,6.49.23,5.3.17,10.63.17,15.94,0,1.42.39,3.25-1.86,3.38-2.63.14-2.26-1.89-2.27-3.49,0-9.95,0-19.9,0-29.85Zm4.09-5h.05a11.39,11.39,0,0,0,0,2.48c.44,1.92-1.38,4.84,1.54,5.59,2.34.59,4.37-1.19,6-3a8.33,8.33,0,0,0,2.35-4.85c.35-3.82-3.52-8.07-7.38-7.85-4.75.27-1.83,4-2.55,6.11A4.94,4.94,0,0,0,67.13,31.91Z"/><path class="cls-4" d="M58,64.34c0,1.16,0,2.32,0,3.48,0,1.64-.73,2.42-2.39,2.42s-2.55-.52-2.54-2.25q.07-16.17.14-32.34c0-1.26.34-2.41,2-2.18C56.6,33.67,57,34.81,57,36c.08,4.48.06,9,.2,13.43.16,5,.47,9.91.71,14.87Z"/><path class="cls-4" d="M58,26.38c-.25,2.09-1.54,2.86-3.42,2.84S51.93,28.14,52,26.35s.89-2.93,2.65-3S57.58,24.62,58,26.38Z"/><path class="cls-5" d="M34.05,40c0-4.81.05-8.95,0-13.09,0-3.14,1.55-2.86,3.41-1.62,3.89,2.6,3.23,6.19,1.75,9.74C38.38,37,36.84,38.56,34.05,40Z"/><path class="cls-5" d="M67.13,31.91a4.94,4.94,0,0,1,0-1.49c.72-2.1-2.2-5.84,2.55-6.11,3.86-.22,7.73,4,7.38,7.85A8.33,8.33,0,0,1,74.73,37c-1.61,1.78-3.64,3.56-6,3-2.92-.75-1.1-3.67-1.54-5.59a11.39,11.39,0,0,1,0-2.48Z"/></g></g></svg>