<svg xmlns="http://www.w3.org/2000/svg" viewBox="0 0 99.01 105.82"><defs><style>.cls-1{fill:#f9d5a3;}.cls-2{fill:#461646;}</style></defs><title>Asset 8b</title><g id="Layer_2" data-name="Layer 2"><g id="Layer_2-2" data-name="Layer 2"><path class="cls-1" d="M30.88,84.58c-2.79,3.85-5.56,7.72-8.38,11.56a54.21,54.21,0,0,1-3.41,4.28c-1.15,1.26-2.53,2.25-4.4,1.68-2.12-.64-2.64-2.52-2.83-4.31-.45-4.4.87-8.61,2-12.75A59.88,59.88,0,0,1,18.16,73.9c1.48-2.9,1.33-4.22-1.66-6.13C8.2,62.46,2.54,54.86.6,45.1c-2.49-12.52,3-22.52,11.56-30.87,18.59-18.13,53.93-19.09,73.46-2,10,8.75,15,19.88,12.92,33.36-1.61,10.22-8.48,17.24-16.23,23.15-3.68,2.8-4.07,5.08-2.37,9,2.24,5.17,4.12,10.54,3.9,16.37-.09,2.44-.45,4.75-3.06,5.75s-4.53-.37-6.19-2.13C71,94,68.89,89.3,66.76,83.45c-1.19,5.81-.67,10.69-2.3,15.22-.85,2.37-1.71,4.9-4.55,5.45s-4.59-1.62-6.18-3.52c-3.54-4.25-4.66-9.46-5.42-15.49-1.64,4.13-2.88,7.68-4.46,11.07a33.93,33.93,0,0,1-3.93,6.33c-1.53,2-3.58,4-6.28,3.09s-2.89-3.84-3-6.31A115.55,115.55,0,0,1,30.88,84.58ZM14.47,34.75c0,7.66,5.3,13,13.23,13.16S41.6,41.8,41.49,33c-.07-6.67-5.28-11-13.24-11.11C19.72,21.78,14.51,26.66,14.47,34.75ZM65.61,48.41c8.81,0,14.48-4.74,14.55-12.23S75,23,68.23,23c-8.54,0-14.79,5.6-14.82,13.4C53.39,43.68,58.16,48.38,65.61,48.41ZM46.07,60.72c2.15,3.28,4.11,6.5,6.31,9.55a3.43,3.43,0,0,0,4.79,1.21c2.17-1.18,1.79-3,1-4.71-1.76-4.11-3.37-8.32-6.49-11.65-3.39-3.63-6.31-3.67-9.79-.17-3.22,3.25-4.9,7.41-6.7,11.52-.76,1.74-1,3.26.8,4.29s3.41.31,4.49-1.58C42.14,66.32,43.59,63.32,46.07,60.72Z"/><path class="cls-2" d="M14.47,34.75c0-8.09,5.25-13,13.78-12.9,8,.06,13.17,4.44,13.24,11.11.11,8.84-5.73,15.16-13.79,14.95S14.44,42.41,14.47,34.75Z"/><path class="cls-2" d="M65.61,48.41c-7.45,0-12.22-4.73-12.2-12,0-7.8,6.28-13.45,14.82-13.4,6.8,0,12,5.81,11.93,13.21S74.42,48.43,65.61,48.41Z"/><path class="cls-2" d="M46.07,60.72c-2.48,2.6-3.93,5.6-5.55,8.46C39.44,71.07,38,71.86,36,70.76s-1.56-2.55-.8-4.29C37,62.36,38.71,58.2,41.93,55c3.48-3.5,6.4-3.46,9.79.17,3.12,3.33,4.73,7.54,6.49,11.65.75,1.75,1.13,3.53-1,4.71a3.43,3.43,0,0,1-4.79-1.21C50.18,67.22,48.22,64,46.07,60.72Z"/></g></g></svg>